<svg width="31" height="31" viewBox="0 0 31 31" fill="none" xmlns="http://www.w3.org/2000/svg">
<path d="M15.5 1.9375C8.01035 1.9375 1.9375 8.01035 1.9375 15.5C1.9375 22.9896 8.01035 29.0625 15.5 29.0625C22.9896 29.0625 29.0625 22.9896 29.0625 15.5C29.0625 8.01035 22.9896 1.9375 15.5 1.9375ZM15.5 26.7617C9.28184 26.7617 4.23828 21.7182 4.23828 15.5C4.23828 9.28184 9.28184 4.23828 15.5 4.23828C21.7182 4.23828 26.7617 9.28184 26.7617 15.5C26.7617 21.7182 21.7182 26.7617 15.5 26.7617ZM19.0632 8.94277C18.5818 8.83682 18.0218 8.7793 17.3891 8.7793C14.1589 8.7793 11.9731 10.4655 11.3768 13.3173L10.4141 13.3173C10.2809 13.3173 10.1719 13.4263 10.1719 13.5595L10.1719 14.3829C10.1719 14.5161 10.2809 14.6251 10.4141 14.6251L11.2133 14.6251C11.2042 14.7492 11.2042 14.8794 11.2042 15.0126L11.2042 16.1297L10.4141 16.1297C10.2809 16.1297 10.1719 16.2387 10.1719 16.3719L10.1719 17.1953C10.1719 17.3285 10.2809 17.4375 10.4141 17.4375L11.3283 17.4375C11.849 20.4406 14.065 22.2207 17.3891 22.2207C18.0218 22.2207 18.5818 22.1692 19.0632 22.0663C19.1752 22.0421 19.2569 21.9452 19.2569 21.8302L19.2569 20.5345C19.2569 20.3831 19.1177 20.2681 18.9693 20.2983C18.5243 20.3831 18.0036 20.4225 17.4012 20.4225C15.3274 20.4225 13.9349 19.3145 13.4717 17.4375L17.4254 17.4375C17.5586 17.4375 17.6676 17.3285 17.6676 17.1953L17.6676 16.3719C17.6676 16.2387 17.5586 16.1297 17.4254 16.1297L13.2961 16.1297L13.2961 15.0398C13.2961 14.8976 13.2961 14.7553 13.3052 14.6221L17.4193 14.6221C17.5525 14.6221 17.6615 14.5131 17.6615 14.3799L17.6615 13.5564C17.6615 13.4232 17.5525 13.3143 17.4193 13.3143L13.5353 13.3143C14.056 11.5917 15.4213 10.5775 17.3981 10.5775C18.0006 10.5775 18.5213 10.6229 18.9633 10.7107C18.9984 10.7179 19.0346 10.7172 19.0694 10.7087C19.1042 10.7001 19.1366 10.684 19.1644 10.6614C19.1922 10.6388 19.2147 10.6104 19.2302 10.5781C19.2456 10.5458 19.2537 10.5104 19.2539 10.4746L19.2539 9.17891C19.2539 9.06387 19.1752 8.96699 19.0632 8.94277Z" fill="#37616A"/>
</svg>
