<svg width="31" height="31" fill="none" xmlns="http://www.w3.org/2000/svg"><path d="M15.5 1.938C8.01 1.938 1.937 8.01 1.937 15.5c0 7.49 6.073 13.563 13.563 13.563S29.063 22.99 29.063 15.5 22.99 1.937 15.5 1.937zm0 24.824c-6.218 0-11.262-5.044-11.262-11.262 0-6.218 5.044-11.262 11.262-11.262 6.218 0 11.262 5.044 11.262 11.262 0 6.218-5.044 11.262-11.262 11.262zm3.563-17.82a7.841 7.841 0 0 0-1.674-.163c-3.23 0-5.416 1.687-6.012 4.538h-.963a.243.243 0 0 0-.242.242v.824c0 .133.109.242.242.242h.8c-.01.124-.01.254-.01.388v1.117h-.79a.243.243 0 0 0-.242.242v.823c0 .133.109.242.242.242h.914c.521 3.004 2.737 4.784 6.061 4.784.633 0 1.193-.052 1.674-.155a.243.243 0 0 0 .194-.236v-1.295a.24.24 0 0 0-.288-.237 8.48 8.48 0 0 1-1.568.125c-2.074 0-3.466-1.108-3.93-2.985h3.954a.243.243 0 0 0 .243-.243v-.823a.243.243 0 0 0-.243-.242h-4.129v-1.09c0-.142 0-.285.01-.418h4.113a.243.243 0 0 0 .242-.242v-.824a.243.243 0 0 0-.242-.242h-3.884c.521-1.722 1.886-2.736 3.863-2.736.603 0 1.123.045 1.565.133a.242.242 0 0 0 .29-.236V9.179a.24.24 0 0 0-.19-.236z" fill="#37616A"/></svg>