<svg width="64" height="100" viewBox="0 0 64 100" fill="none" xmlns="http://www.w3.org/2000/svg">
<path d="M62.7771 52.8163L53.2253 45.8853C52.8584 45.6207 52.3792 45.6167 52.0123 45.8743L42.4867 52.5168L36.1178 33.6796L22.0337 0.669201C21.825 0.1825 21.3293 -0.0853663 20.8223 0.0244662C20.3243 0.136663 19.9679 0.597294 19.9679 1.13222V17.7966L8.18235 6.2901C7.8358 5.95113 7.32126 5.89029 6.91143 6.13523C6.50084 6.38016 6.29064 6.87637 6.39086 7.36071L17.0125 58.6118C17.0517 58.7975 17.1338 58.9697 17.2536 59.1136L30.0841 74.6093L0.589762 90.3966C0.159584 90.6265 -0.0724502 91.1275 0.02022 91.6245C0.112884 92.1206 0.50764 92.492 0.98829 92.5355L32.9301 95.3798C32.9617 95.3821 32.9919 95.3829 33.0205 95.3829C33.0936 95.3829 33.1644 95.3648 33.2329 95.3497L36.6231 99.3248C36.7285 99.4456 36.8739 99.5128 37.0261 99.5128C37.0615 99.5128 37.0954 99.5104 37.1316 99.5025C37.3192 99.4638 37.4729 99.3248 37.5369 99.1359L40.484 90.3823L58.5529 77.7159C58.8889 77.4805 59.0704 77.0681 59.026 76.6477L56.7064 55.021L62.1887 54.8804C62.6551 54.8693 63.0626 54.543 63.1975 54.0729C63.3293 53.6036 63.1598 53.0955 62.7764 52.8174L62.7771 52.8163ZM54.4781 54.5103L55.5916 64.8949L43.4368 54.7925L54.4781 54.5103ZM47.9796 73.8461L32.6945 74.3628C32.6651 74.3162 32.6569 74.2601 32.6214 74.2167L19.0879 57.8747L34.5734 35.8859L40.9145 54.6424C41.0245 54.9719 41.2754 55.2295 41.5895 55.3393C41.634 55.3551 41.6799 55.3425 41.7266 55.3527L47.9796 73.8461ZM22.1265 6.43565L32.5449 30.8435L22.0935 20.6423C22.1108 20.5633 22.1266 20.4827 22.1266 20.3997L22.1265 6.43565ZM20.3101 21.2291C20.5949 21.5056 20.9926 21.5878 21.3565 21.4724L33.6756 33.4963L34.114 34.5211L34.1389 34.5978L18.7688 56.4206L9.23193 10.4124L20.3101 21.2291ZM32.2955 75.9693C32.4899 75.865 32.627 75.6904 32.7294 75.4945L46.4618 75.0314L17.0465 91.6918L4.93533 90.6149L32.2955 75.9693ZM32.7362 93.0872L19.0114 91.8673L48.8086 74.9897L55.9255 76.8323L32.7362 93.0872ZM49.1484 73.9118L43.0688 55.9335L55.7637 66.4839L56.7725 75.8854L49.1484 73.9118ZM55.476 52.7848C55.1724 52.7927 54.8876 52.9333 54.6872 53.1735C54.6382 53.2328 54.6156 53.307 54.5795 53.375L44.8 53.6255L52.599 48.1862L58.8203 52.7001L55.476 52.7848ZM36.8226 97.8545L34.2024 94.7841L38.9848 91.4333L36.8226 97.8545Z" fill="#37616A"/>
</svg>
