<svg width="92" height="82" viewBox="0 0 92 82" fill="none" xmlns="http://www.w3.org/2000/svg">
<path d="M91.1272 15.111L87.0847 11.1681C86.9034 10.9892 86.6534 10.8765 86.3869 10.8497L76.265 9.82965C75.9274 9.79513 75.5883 9.90221 75.3485 10.1192L69.0323 15.817L61.6136 7.48941L70.423 5.47946C70.9215 5.36604 71.27 4.96027 71.2676 4.49673C71.2653 4.03318 70.916 3.63022 70.4144 3.51891L54.6637 0.0295974C54.3028 -0.0514172 53.9246 0.0366418 53.6488 0.259952L44.7472 7.48566L41.2796 5.49338C41.0335 5.35178 40.7327 5.30036 40.4483 5.35672L0.89054 12.8432C0.397533 12.9362 0.0334191 13.3145 0.00217614 13.7682C-0.0290668 14.2218 0.278762 14.6375 0.754587 14.7861L22.1186 21.4293L37.8865 43.1483L14.1343 59.7873C13.8835 59.9627 13.728 60.2254 13.7038 60.51C13.6803 60.7946 13.792 61.0757 14.0108 61.2829L17.1979 64.2874L15.2548 66.2535C14.9094 66.6008 14.8751 67.1172 15.1696 67.4997L25.8018 81.3327C26.0128 81.6068 26.3581 81.7667 26.7222 81.7667C26.7793 81.7667 26.8379 81.7625 26.8949 81.7547C27.3192 81.6941 27.6677 81.4215 27.7934 81.0517L30.5093 73.0348L71.4932 42.4212C71.6096 42.3346 71.7042 42.2282 71.7729 42.107L79.579 28.5065L85.0718 16.9235H90.4247C90.4333 16.9242 90.4426 16.9235 90.4473 16.9235C91.0669 16.9235 91.5677 16.4712 91.5677 15.9132C91.5677 15.5871 91.3974 15.2961 91.1271 15.1116L91.1272 15.111ZM32.8237 49.2539L19.0834 63.1427L16.4893 60.6954L32.8237 49.2539ZM19.5568 64.9355C19.8287 64.6607 19.8944 64.2881 19.7764 63.957L37.7125 45.8287L38.0516 45.5927L29.3462 71.2828L28.8211 71.6745C28.6531 71.7999 28.5273 71.9683 28.4648 72.1571L26.3264 78.4713L17.5132 67.0046L19.5568 64.9355ZM84.197 14.9222C83.8048 14.9659 83.4625 15.1836 83.3024 15.5168L78.7073 25.2089L76.8571 11.9211L85.2211 12.7643L84.197 14.9222ZM68.8807 18.3369C69.2003 18.3573 69.5089 18.2453 69.7324 18.0417L75.8165 12.5545L77.8385 27.0497L77.8182 27.0899L66.2679 20.4523L68.6722 18.2845C68.7401 18.3007 68.8065 18.3324 68.8808 18.3367L68.8807 18.3369ZM58.7736 7.5295L67.7916 17.6499L65.2992 19.8972L46.2748 8.9645L54.6826 2.13953L58.6047 6.53904C58.5977 6.55243 58.5891 6.56229 58.5844 6.57568C58.4625 6.90185 58.5353 7.26039 58.7736 7.5295ZM59.4697 5.89512L56.449 2.50662L65.5195 4.51512L59.4697 5.89512ZM77.3424 28.0144L77.3315 28.0335L40.122 42.54L39.9852 42.3512L41.1861 7.83501L44.2606 9.60254C44.6044 9.79838 45.0232 9.80261 45.3693 9.64199L77.3424 28.0144ZM38.9148 40.8788L24.0016 20.3393L40.0765 7.50091L38.9148 40.8788ZM37.8764 7.90813L23.1984 19.6298L5.3185 14.0694L37.8764 7.90813ZM30.9139 70.1073L39.5882 44.5146L40.0757 44.1743C40.2109 44.0792 40.3054 43.958 40.3796 43.8277L68.1503 42.2934L30.9139 70.1073ZM42.544 42.6967L76.5153 29.4512L69.8864 40.9969L69.613 41.2019L42.544 42.6967ZM85.4241 14.9037L86.1961 13.2764L87.865 14.9037H85.4241Z" fill="#37616A"/>
</svg>
