<svg width="131" height="119" viewBox="0 0 131 119" fill="none" xmlns="http://www.w3.org/2000/svg">
<path d="M114.188 44.6898L112.822 38.7523C112.751 38.4409 112.513 38.1832 112.189 38.0644L100.631 33.823C100.28 33.6942 99.8842 33.7467 99.5889 33.9585L86.7155 43.1883L81.1955 19.594C81.1356 19.3397 80.9638 19.1192 80.7211 18.9817C80.4776 18.845 80.1845 18.8058 79.9067 18.8702L73.1505 20.4639L71.8931 18.2818C71.6928 17.9325 71.2761 17.7326 70.8441 17.7785L20.3174 23.1168C19.8334 23.1679 19.4504 23.5166 19.397 23.9575C19.3436 24.3985 19.6331 24.8142 20.0937 24.9609L34.6045 29.5669L30.1649 30.6148C29.6649 30.733 29.3338 31.164 29.3849 31.6315C29.4361 32.0976 29.8557 32.4615 30.3711 32.4861L46.2526 33.265L49.8712 34.4119L47.9837 63.7029L19.5904 70.3349C19.1123 70.4465 18.7855 70.8443 18.8045 71.2925C18.8235 71.7388 19.1817 72.1139 19.6671 72.1943L34.3666 74.5889L29.107 78.2592C28.7225 78.5275 28.5916 78.9997 28.7883 79.4014C28.9593 79.7487 29.3373 79.9659 29.7452 79.9659C29.8088 79.9659 29.8731 79.9612 29.9382 79.9499L91.2817 69.5706C91.5763 69.5201 91.8344 69.3581 91.9879 69.1243L102.879 52.6024L109.129 44.2246L112.72 45.7479C113.08 45.9 113.504 45.8549 113.815 45.6311C114.126 45.4066 114.27 45.0421 114.188 44.6894L114.188 44.6898ZM38.8737 30.4184L41.0302 31.1031L37.2229 30.9165L38.4679 30.6223C38.6229 30.5851 38.7553 30.5094 38.8737 30.4184ZM50.0306 64.5085L51.9599 34.5732L85.0112 45.0634L85.0156 45.0834L85.0163 45.084L48.8453 74.7524L49.455 65.2916C49.781 65.1415 50.0098 64.8506 50.0318 64.5093L50.0306 64.5085ZM101.36 51.2439L87.535 45.0264L99.8638 36.1877L101.396 51.1982L101.36 51.2439ZM37.0691 73.0941L24.7695 71.0913L48.3851 65.5743L47.7783 74.9953L46.7871 75.1627L37.8568 73.7077C37.7303 73.3936 37.4379 73.1546 37.0687 73.0941L37.0691 73.0941ZM37.5231 74.7867C37.5816 74.7456 37.6276 74.6944 37.6751 74.646L43.8765 75.656L33.849 77.3527L37.5231 74.7867ZM53.7168 73.9899L99.7913 53.5814L90.4304 67.7798L53.7168 73.9899ZM51.3503 73.9799L85.721 45.7888C86.0251 45.8771 86.3497 45.8326 86.6136 45.6752L100.798 52.0548L100.777 52.0841L51.3503 73.9799ZM107.894 42.484L102.322 49.956L100.894 35.9728L110.698 39.5707L108.835 42.0695C108.47 42.0483 108.107 42.1965 107.894 42.484ZM109.837 42.4242L111.127 40.6943L111.709 43.2192L109.837 42.4242ZM79.3718 20.9668L83.8318 40.0289L73.6252 22.3217L79.3718 20.9668ZM84.641 43.485L84.7543 43.9744L51.9818 33.572C51.9117 33.2453 51.666 32.9664 51.3078 32.8535L46.8018 31.4257C46.7082 31.3965 46.611 31.3792 46.5123 31.3746L44.7871 31.2896L39.2203 29.5224C39.1501 29.1957 38.9045 28.9168 38.5478 28.8046L25.0873 24.532L70.3684 19.7494L71.6784 22.0218C71.8546 22.3272 72.1938 22.5118 72.5586 22.5265L84.641 43.485Z" fill="#37616A"/>
</svg>
