<svg width="203" height="203" viewBox="0 0 203 203" fill="none" xmlns="http://www.w3.org/2000/svg">
<path d="M150.013 153.15C163.358 140.622 171.916 122.98 172.534 103.26C173.768 63.8234 142.753 30.8673 103.283 29.6348C63.8144 28.4024 30.8007 59.3579 29.5686 98.7953C28.3349 138.232 59.3455 171.277 98.8147 172.51C118.549 173.126 136.667 165.676 150.014 153.149L150.013 153.15ZM149.545 147.895C149.266 148.183 148.945 148.442 148.661 148.726L141.71 141.327C141.341 140.924 140.825 140.685 140.278 140.663C139.732 140.642 139.2 140.841 138.801 141.215C138.403 141.59 138.171 142.109 138.157 142.656C138.145 143.203 138.351 143.732 138.731 144.126L145.681 151.525C133.267 162.485 116.828 168.919 98.942 168.362C81.056 167.803 65.0522 160.356 53.3495 148.645L60.7497 141.694L60.7487 141.693C60.851 141.614 60.9444 141.526 61.0281 141.43C61.7784 140.581 61.6979 139.284 60.8485 138.534C59.998 137.784 58.7012 137.865 57.9509 138.714L50.5508 145.666C39.5687 133.257 33.0679 116.81 33.6282 98.9272C34.1872 81.0427 41.7026 65.0454 53.4403 53.3351L60.3909 60.7342C60.785 61.187 61.3585 61.4439 61.9585 61.4374C62.5595 61.43 63.1264 61.1574 63.5098 60.6957C64.1865 59.8782 64.1262 58.6798 63.3703 57.9355L56.4197 50.5364C68.8341 39.5646 85.2753 33.052 103.16 33.6102C121.045 34.1685 137.047 41.6941 148.751 53.4187L141.351 60.3703C140.947 60.7397 140.709 61.2544 140.687 61.801C140.667 62.3478 140.866 62.8781 141.241 63.2769C141.615 63.6757 142.133 63.9086 142.679 63.9216C143.227 63.9347 143.755 63.7284 144.148 63.3487L151.549 56.3971C162.53 68.818 169.031 85.2526 168.471 103.136C167.925 120.586 160.792 136.278 149.544 147.896L149.545 147.895ZM101.511 142.648L101.51 142.647C101.586 142.536 101.65 142.416 101.702 142.293L128.195 80.9636C128.517 80.2056 128.353 79.3295 127.779 78.7401C127.206 78.1506 126.335 77.9621 125.569 78.2617L101.57 87.3152L78.0499 76.7341L78.051 76.7332C77.2984 76.3982 76.4198 76.5471 75.8206 77.11C75.2214 77.6729 75.0179 78.5404 75.3052 79.3125L97.9117 142.176C98.1715 142.894 98.8096 143.409 99.5675 143.508C100.324 143.608 101.075 143.277 101.512 142.649L101.511 142.648ZM99.9585 135.959L80.7171 82.4604L100.585 91.3921C101.089 91.6065 101.658 91.6071 102.164 91.3962L122.505 83.7655L99.9562 135.959L99.9585 135.959Z" fill="#FFF6E0"/>
</svg>
