<svg width="37" height="34" viewBox="0 0 37 34" fill="none" xmlns="http://www.w3.org/2000/svg">
<path fill-rule="evenodd" clip-rule="evenodd" d="M17.0488 4.29185C18.7425 2.72342 21.0397 1.84229 23.435 1.84229H27.9508C28.7822 1.84229 29.4561 2.46635 29.4561 3.23617V8.81173C29.4561 9.58155 28.7822 10.2056 27.9508 10.2056H23.435V12.9934H27.9508C28.4144 12.9934 28.852 13.1911 29.1373 13.5295C29.4225 13.8678 29.5236 14.3089 29.4111 14.7253L27.9059 20.3009C27.7384 20.9214 27.1363 21.3567 26.4456 21.3567H23.435V31.1139C23.435 31.8838 22.7611 32.5078 21.9298 32.5078H15.9087C15.0774 32.5078 14.4035 31.8838 14.4035 31.1139V21.3567H11.393C10.5616 21.3567 9.8877 20.7327 9.8877 19.9628V14.3873C9.8877 13.6175 10.5616 12.9934 11.393 12.9934H14.4035V10.2056C14.4035 7.98752 15.355 5.86028 17.0488 4.29185ZM23.435 4.63006C21.8382 4.63006 20.3067 5.21748 19.1775 6.2631C18.0484 7.30872 17.414 8.72688 17.414 10.2056V14.3873C17.414 15.1571 16.7401 15.7812 15.9087 15.7812H12.8982V18.5689H15.9087C16.7401 18.5689 17.414 19.193 17.414 19.9628V29.72H20.4245V19.9628C20.4245 19.193 21.0985 18.5689 21.9298 18.5689H25.2703L26.0229 15.7812H21.9298C21.0985 15.7812 20.4245 15.1571 20.4245 14.3873V10.2056C20.4245 9.46625 20.7417 8.75717 21.3063 8.23436C21.8709 7.71155 22.6366 7.41784 23.435 7.41784H26.4456V4.63006H23.435Z" fill="#37616A"/>
</svg>
