<svg width="42" height="47" viewBox="0 0 42 47" fill="none" xmlns="http://www.w3.org/2000/svg">
<path d="M10.5744 27.3245C10.5744 26.1677 11.5066 25.2299 12.6565 25.2299C13.8064 25.2299 14.7386 26.1677 14.7386 27.3245C14.7386 28.4813 13.8064 29.4191 12.6565 29.4191C11.5066 29.4191 10.5744 28.4813 10.5744 27.3245Z" fill="#37616A"/>
<path d="M12.6565 33.6083C11.5066 33.6083 10.5744 34.5461 10.5744 35.7029C10.5744 36.8597 11.5066 37.7975 12.6565 37.7975C13.8064 37.7975 14.7386 36.8597 14.7386 35.7029C14.7386 34.5461 13.8064 33.6083 12.6565 33.6083Z" fill="#37616A"/>
<path d="M18.9027 27.3245C18.9027 26.1677 19.8349 25.2299 20.9848 25.2299C22.1347 25.2299 23.0669 26.1677 23.0669 27.3245C23.0669 28.4813 22.1347 29.4191 20.9848 29.4191C19.8349 29.4191 18.9027 28.4813 18.9027 27.3245Z" fill="#37616A"/>
<path d="M20.9848 33.6083C19.8349 33.6083 18.9027 34.5461 18.9027 35.7029C18.9027 36.8597 19.8349 37.7975 20.9848 37.7975C22.1347 37.7975 23.0669 36.8597 23.0669 35.7029C23.0669 34.5461 22.1347 33.6083 20.9848 33.6083Z" fill="#37616A"/>
<path d="M27.231 27.3245C27.231 26.1677 28.1632 25.2299 29.3131 25.2299C30.463 25.2299 31.3952 26.1677 31.3952 27.3245C31.3952 28.4813 30.463 29.4191 29.3131 29.4191C28.1632 29.4191 27.231 28.4813 27.231 27.3245Z" fill="#37616A"/>
<path d="M29.3131 33.6083C28.1632 33.6083 27.231 34.5461 27.231 35.7029C27.231 36.8597 28.1632 37.7975 29.3131 37.7975C30.463 37.7975 31.3952 36.8597 31.3952 35.7029C31.3952 34.5461 30.463 33.6083 29.3131 33.6083Z" fill="#37616A"/>
<path fill-rule="evenodd" clip-rule="evenodd" d="M8.49236 2.18933C8.49236 1.03251 9.42454 0.0947266 10.5744 0.0947266C11.7243 0.0947266 12.6565 1.03251 12.6565 2.18933V4.28392H29.3131V2.18933C29.3131 1.03251 30.2453 0.0947266 31.3952 0.0947266C32.5451 0.0947266 33.4773 1.03251 33.4773 2.18933V4.28392H35.5593C39.009 4.28392 41.8056 7.09728 41.8056 10.5677V39.8921C41.8056 43.3625 39.009 46.1759 35.5593 46.1759H6.41029C2.96059 46.1759 0.164062 43.3625 0.164062 39.8921V10.5677C0.164062 7.09727 2.96059 4.28392 6.41029 4.28392H8.49236V2.18933ZM29.3131 8.47312V10.5677C29.3131 11.7245 30.2453 12.6623 31.3952 12.6623C32.5451 12.6623 33.4773 11.7245 33.4773 10.5677V8.47312H35.5593C36.7092 8.47312 37.6414 9.41091 37.6414 10.5677V16.8515H4.32821V10.5677C4.32821 9.41091 5.26039 8.47312 6.41029 8.47312H8.49236V10.5677C8.49236 11.7245 9.42454 12.6623 10.5744 12.6623C11.7243 12.6623 12.6565 11.7245 12.6565 10.5677V8.47312H29.3131ZM4.32821 21.0407V39.8921C4.32821 41.0489 5.26039 41.9867 6.41029 41.9867H35.5593C36.7092 41.9867 37.6414 41.0489 37.6414 39.8921V21.0407H4.32821Z" fill="#37616A"/>
</svg>
