<svg width="50" height="51" viewBox="0 0 50 51" fill="none" xmlns="http://www.w3.org/2000/svg">
<path d="M41.8939 37.4869C40.9733 35.2934 39.6375 33.3009 37.9607 31.6204C36.289 29.9351 34.3087 28.5915 32.1292 27.6636C32.1097 27.6538 32.0902 27.6489 32.0707 27.6391C35.1108 25.4299 37.0872 21.8315 37.0872 17.7715C37.0872 11.0459 31.6705 5.59668 24.9851 5.59668C18.2997 5.59668 12.8831 11.0459 12.8831 17.7715C12.8831 21.8315 14.8594 25.4299 17.8996 27.644C17.88 27.6538 17.8605 27.6587 17.841 27.6685C15.6548 28.5964 13.6931 29.9268 12.0096 31.6253C10.3344 33.3071 8.99872 35.2993 8.0764 37.4919C7.17032 39.6384 6.68165 41.9398 6.63684 44.2715C6.63554 44.3239 6.64467 44.376 6.66371 44.4248C6.68274 44.4736 6.71129 44.518 6.74767 44.5556C6.78406 44.5931 6.82753 44.6229 6.87554 44.6432C6.92356 44.6636 6.97513 44.6741 7.02723 44.674H9.95515C10.1699 44.674 10.3407 44.5022 10.3455 44.2911C10.4431 40.5012 11.9559 36.9518 14.6301 34.2616C17.3969 31.4781 21.0715 29.9464 24.9851 29.9464C28.8988 29.9464 32.5733 31.4781 35.3402 34.2616C38.0144 36.9518 39.5271 40.5012 39.6247 44.2911C39.6296 44.5071 39.8004 44.674 40.0151 44.674H42.943C42.9951 44.6741 43.0467 44.6636 43.0947 44.6432C43.1427 44.6229 43.1862 44.5931 43.2226 44.5556C43.259 44.518 43.2875 44.4736 43.3065 44.4248C43.3256 44.376 43.3347 44.3239 43.3334 44.2715C43.2846 41.9249 42.8015 39.6421 41.8939 37.4869ZM24.9851 26.2154C22.7453 26.2154 20.6372 25.3366 19.0512 23.7411C17.4653 22.1456 16.5918 20.0249 16.5918 17.7715C16.5918 15.5182 17.4653 13.3974 19.0512 11.8019C20.6372 10.2064 22.7453 9.32768 24.9851 9.32768C27.225 9.32768 29.3331 10.2064 30.919 11.8019C32.505 13.3974 33.3785 15.5182 33.3785 17.7715C33.3785 20.0249 32.505 22.1456 30.919 23.7411C29.3331 25.3366 27.225 26.2154 24.9851 26.2154Z" fill="#37616A"/>
</svg>
