<svg width="50" height="51" viewBox="0 0 50 51" fill="none" xmlns="http://www.w3.org/2000/svg">
<path d="M44.6542 12.7875L32.1617 6.50366C31.8725 6.35804 31.5534 6.28223 31.23 6.28223C30.9065 6.28223 30.5875 6.35804 30.2983 6.50366L18.7386 12.3204L7.17682 6.50366C6.85932 6.34404 6.50652 6.26874 6.15194 6.28489C5.79736 6.30105 5.45277 6.40813 5.1509 6.59596C4.84903 6.7838 4.59991 7.04615 4.42719 7.3581C4.25448 7.67005 4.1639 8.02125 4.16406 8.37832V35.6081C4.16406 36.402 4.60963 37.1267 5.31545 37.4828L17.8079 43.7666C18.0972 43.9122 18.4162 43.988 18.7396 43.988C19.0631 43.988 19.3821 43.9122 19.6714 43.7666L31.231 37.9499L42.7928 43.7645C43.1094 43.9256 43.4619 44.002 43.8164 43.9862C44.1709 43.9704 44.5153 43.863 44.8166 43.6744C45.4308 43.2911 45.8056 42.6187 45.8056 41.8919V14.6621C45.8056 13.8683 45.36 13.1435 44.6542 12.7875ZM20.8207 15.9566L29.149 11.7674V34.3136L20.8207 38.5028V15.9566ZM8.32821 11.7674L16.6565 15.9566V38.5028L8.32821 34.3136V11.7674ZM41.6414 38.5028L33.3131 34.3136V11.7674L41.6414 15.9566V38.5028Z" fill="#37616A"/>
</svg>
