<svg width="50" height="51" viewBox="0 0 50 51" fill="none" xmlns="http://www.w3.org/2000/svg">
<path d="M24.9848 3.14209C12.9121 3.14209 3.12305 12.99 3.12305 25.1354C3.12305 37.2808 12.9121 47.1287 24.9848 47.1287C37.0576 47.1287 46.8466 37.2808 46.8466 25.1354C46.8466 12.99 37.0576 3.14209 24.9848 3.14209ZM24.9848 43.3977C14.9616 43.3977 6.83174 35.2189 6.83174 25.1354C6.83174 15.0518 14.9616 6.87309 24.9848 6.87309C35.0081 6.87309 43.1379 15.0518 43.1379 25.1354C43.1379 35.2189 35.0081 43.3977 24.9848 43.3977ZM30.7284 14.502C29.9525 14.3302 29.0498 14.2369 28.0299 14.2369C22.8231 14.2369 19.2998 16.9713 18.3385 21.5958H16.7867C16.5719 21.5958 16.3963 21.7726 16.3963 21.9886V23.3239C16.3963 23.5399 16.5719 23.7166 16.7867 23.7166H18.0749C18.0603 23.9179 18.0603 24.129 18.0603 24.345V26.1565H16.7867C16.5719 26.1565 16.3963 26.3332 16.3963 26.5492V27.8845C16.3963 28.1005 16.5719 28.2773 16.7867 28.2773H18.2604C19.0997 33.1472 22.6718 36.0338 28.0299 36.0338C29.0498 36.0338 29.9525 35.9504 30.7284 35.7835C30.909 35.7442 31.0407 35.5871 31.0407 35.4005V33.2994C31.0407 33.0539 30.8163 32.8674 30.5772 32.9165C29.8598 33.0539 29.0205 33.1178 28.0494 33.1178C24.7067 33.1178 22.4619 31.321 21.7153 28.2773H28.0884C28.3031 28.2773 28.4788 28.1005 28.4788 27.8845V26.5492C28.4788 26.3332 28.3031 26.1565 28.0884 26.1565H21.4323V24.3892C21.4323 24.1584 21.4323 23.9277 21.4469 23.7117H28.0787C28.2934 23.7117 28.4691 23.535 28.4691 23.319V21.9837C28.4691 21.7677 28.2934 21.5909 28.0787 21.5909H21.8178C22.6571 18.7976 24.858 17.153 28.0445 17.153C29.0156 17.153 29.8549 17.2266 30.5674 17.369C30.624 17.3806 30.6824 17.3795 30.7385 17.3656C30.7945 17.3518 30.8468 17.3256 30.8917 17.289C30.9365 17.2524 30.9726 17.2062 30.9976 17.1538C31.0225 17.1014 31.0356 17.0442 31.0359 16.9861V14.8849C31.0359 14.6984 30.909 14.5413 30.7284 14.502Z" fill="#37616A"/>
</svg>
