<svg width="172" height="153" viewBox="0 0 172 153" fill="none" xmlns="http://www.w3.org/2000/svg">
<path d="M170.5 71C170.5 115.392 132.736 151.5 86 151.5C39.2638 151.5 1.5 115.392 1.5 71C1.5 26.6076 39.2638 -9.5 86 -9.5C132.736 -9.5 170.5 26.6076 170.5 71Z" stroke="#FFF6E0" stroke-width="3"/>
<path d="M154.284 66.4711L152.439 57.6398C152.343 57.1766 152.021 56.7933 151.583 56.6165L135.966 50.308C135.493 50.1164 134.958 50.1944 134.559 50.5095L117.165 64.2379L109.707 29.1438C109.626 28.7655 109.394 28.4376 109.066 28.2331C108.737 28.0297 108.341 27.9714 107.965 28.0672L98.8366 30.4377L97.1377 27.1921C96.8671 26.6725 96.3041 26.3752 95.7203 26.4434L27.4514 34.3836C26.7975 34.4596 26.28 34.9782 26.2079 35.634C26.1358 36.2899 26.5269 36.9082 27.1492 37.1265L46.7555 43.9774L40.7569 45.536C40.0813 45.7118 39.6339 46.3529 39.703 47.0482C39.7722 47.7416 40.3391 48.2829 41.0355 48.3194L62.4937 49.478L67.3829 51.1838L64.8326 94.7511L26.4691 104.616C25.8231 104.782 25.3816 105.373 25.4073 106.04C25.433 106.704 25.917 107.262 26.5728 107.381L46.434 110.943L39.3275 116.402C38.8079 116.801 38.6311 117.503 38.8968 118.101C39.1279 118.618 39.6386 118.941 40.1898 118.941C40.2757 118.941 40.3626 118.934 40.4505 118.917L123.335 103.479C123.733 103.404 124.081 103.163 124.289 102.815L139.005 78.2403L147.449 65.7792L152.301 68.045C152.788 68.2712 153.36 68.2041 153.78 67.8712C154.2 67.5373 154.395 66.9951 154.284 66.4706L154.284 66.4711ZM52.5238 45.244L55.4374 46.2623L50.2933 45.9848L51.9754 45.5472C52.1848 45.4919 52.3638 45.3793 52.5238 45.244ZM67.5984 95.9494L70.2051 51.4238L114.862 67.0269L114.868 67.0565L114.869 67.0575L65.9968 111.186L66.8206 97.1141C67.2611 96.8909 67.5703 96.4583 67.5999 95.9506L67.5984 95.9494ZM136.952 76.2198L118.272 66.9718L134.93 53.8252L137 76.1517L136.952 76.2198ZM50.0855 108.719L33.4669 105.741L65.375 97.5346L64.5552 111.547L63.2158 111.796L51.1497 109.632C50.9788 109.165 50.5837 108.809 50.085 108.72L50.0855 108.719ZM50.6988 111.237C50.7779 111.176 50.8401 111.1 50.9043 111.028L59.2832 112.53L45.7346 115.054L50.6988 111.237ZM72.5788 110.052L134.832 79.6964L122.184 100.815L72.5788 110.052ZM69.3814 110.037L115.821 68.1058C116.232 68.2372 116.671 68.171 117.027 67.9369L136.193 77.4259L136.164 77.4693L69.3814 110.037ZM145.78 63.1903L138.251 74.3041L136.322 53.5056L149.569 58.857L147.051 62.5738C146.558 62.5422 146.068 62.7626 145.78 63.1903ZM148.405 63.1014L150.148 60.5283L150.935 64.2837L148.405 63.1014ZM107.243 31.1857L113.269 59.5386L99.478 33.201L107.243 31.1857ZM114.362 64.6792L114.515 65.4071L70.2347 49.9346C70.1399 49.4486 69.808 49.0338 69.324 48.8658L63.2357 46.7422C63.1093 46.6988 62.9779 46.6731 62.8446 46.6662L60.5135 46.5398L52.9921 43.9113C52.8972 43.4253 52.5654 43.0105 52.0833 42.8436L33.8963 36.4885L95.0776 29.3749L96.8476 32.7548C97.0857 33.2092 97.544 33.4838 98.0369 33.5055L114.362 64.6792Z" fill="#FFF6E0"/>
</svg>
