<svg width="130" height="93" viewBox="0 0 130 93" fill="none" xmlns="http://www.w3.org/2000/svg">
<path d="M129.284 40.471L127.439 31.6397C127.343 31.1765 127.021 30.7932 126.583 30.6164L110.966 24.3079C110.493 24.1163 109.958 24.1943 109.559 24.5094L92.1649 38.2377L84.7066 3.1437C84.6256 2.7654 84.3935 2.43747 84.0656 2.23301C83.7367 2.02954 83.3406 1.97125 82.9652 2.06707L73.8366 4.43761L72.1377 1.19193C71.8671 0.672389 71.3041 0.375079 70.7203 0.44325L2.45141 8.38347C1.79755 8.45952 1.27998 8.97809 1.20786 9.63393C1.13576 10.2898 1.52689 10.9081 2.14917 11.1264L21.7555 17.9773L15.7569 19.5359C15.0813 19.7117 14.6339 20.3528 14.703 21.0481C14.7722 21.7415 15.3391 22.2828 16.0355 22.3193L37.4937 23.4779L42.3829 25.1837L39.8326 68.751L1.46911 78.6155C0.823139 78.7814 0.381625 79.373 0.407315 80.0397C0.432995 80.7035 0.916975 81.2616 1.57284 81.3811L21.434 84.9428L14.3275 90.402C13.8079 90.801 13.6311 91.5033 13.8968 92.1009C14.1279 92.6175 14.6386 92.9405 15.1898 92.9405C15.2757 92.9405 15.3626 92.9336 15.4505 92.9168L98.3345 77.4786C98.7326 77.4035 99.0813 77.1625 99.2887 76.8148L114.005 52.2401L122.449 39.7791L127.301 42.0449C127.788 42.2711 128.36 42.2039 128.78 41.8711C129.2 41.5372 129.395 40.995 129.284 40.4705L129.284 40.471ZM27.5238 19.2439L30.4374 20.2622L25.2933 19.9846L26.9754 19.5471C27.1848 19.4918 27.3638 19.3792 27.5238 19.2439ZM42.5984 69.9493L45.2051 25.4237L89.8622 41.0268L89.8681 41.0564L89.8691 41.0574L40.9968 85.186L41.8206 71.114C42.2611 70.8908 42.5703 70.4581 42.5999 69.9505L42.5984 69.9493ZM111.952 50.2196L93.2722 40.9716L109.93 27.8251L112 50.1516L111.952 50.2196ZM25.0855 82.7194L8.46694 79.7405L40.375 71.5345L39.5552 85.5473L38.2158 85.7962L26.1497 83.6321C25.9788 83.1649 25.5837 82.8094 25.085 82.7195L25.0855 82.7194ZM25.6988 85.2371C25.7779 85.1758 25.8401 85.0998 25.9043 85.0277L34.2832 86.53L20.7346 89.0536L25.6988 85.2371ZM47.5788 84.0518L109.832 53.6963L97.1843 74.8149L47.5788 84.0518ZM44.3814 84.037L90.8212 42.1057C91.2321 42.237 91.6706 42.1709 92.0272 41.9368L111.193 51.4258L111.164 51.4692L44.3814 84.037ZM120.78 37.1901L113.251 48.304L111.322 27.5055L124.569 32.8569L122.051 36.5737C121.558 36.5421 121.068 36.7625 120.78 37.1901ZM123.405 37.1012L125.148 34.5282L125.935 38.2836L123.405 37.1012ZM82.2425 5.18561L88.2686 33.5385L74.478 7.20089L82.2425 5.18561ZM89.362 38.6791L89.5151 39.407L45.2347 23.9344C45.1399 23.4485 44.808 23.0336 44.324 22.8657L38.2357 20.7421C38.1093 20.6987 37.9779 20.673 37.8446 20.6661L35.5135 20.5396L27.9921 17.9112C27.8972 17.4252 27.5654 17.0104 27.0833 16.8434L8.89633 10.4884L70.0776 3.37476L71.8476 6.7547C72.0857 7.20906 72.544 7.48364 73.0369 7.50538L89.362 38.6791Z" fill="#FFF6E0"/>
</svg>
