<svg width="36" height="41" viewBox="0 0 36 41" fill="none" xmlns="http://www.w3.org/2000/svg">
<path d="M16.0036 13.0392C11.4632 13.0392 7.801 16.8167 7.801 21.5C7.801 26.1833 11.4632 29.9608 16.0036 29.9608C20.5439 29.9608 24.2061 26.1833 24.2061 21.5C24.2061 16.8167 20.5439 13.0392 16.0036 13.0392ZM16.0036 27.0006C13.0695 27.0006 10.6708 24.5338 10.6708 21.5C10.6708 18.4662 13.0624 15.9994 16.0036 15.9994C18.9448 15.9994 21.3363 18.4662 21.3363 21.5C21.3363 24.5338 18.9376 27.0006 16.0036 27.0006ZM26.4549 12.6931C26.4549 13.7903 25.5982 14.6666 24.5417 14.6666C23.478 14.6666 22.6284 13.7829 22.6284 12.6931C22.6284 11.6033 23.4851 10.7197 24.5417 10.7197C25.5982 10.7197 26.4549 11.6033 26.4549 12.6931ZM31.8876 14.696C31.7662 12.0525 31.1808 9.71087 29.3033 7.7816C27.4329 5.85234 25.1627 5.24852 22.5999 5.11598C19.9585 4.96134 12.0415 4.96134 9.40011 5.11598C6.84439 5.24116 4.57423 5.84497 2.69671 7.77424C0.819186 9.7035 0.240937 12.0451 0.112437 14.6887C-0.0374791 17.4132 -0.0374791 25.5794 0.112437 28.304C0.233798 30.9475 0.819186 33.2891 2.69671 35.2184C4.57423 37.1477 6.83726 37.7515 9.40011 37.884C12.0415 38.0387 19.9585 38.0387 22.5999 37.884C25.1627 37.7588 27.4329 37.155 29.3033 35.2184C31.1737 33.2891 31.7591 30.9475 31.8876 28.304C32.0375 25.5794 32.0375 17.4206 31.8876 14.696ZM28.4752 31.2273C27.9183 32.6706 26.8404 33.7825 25.434 34.3642C23.3281 35.2258 18.3308 35.0269 16.0036 35.0269C13.6763 35.0269 8.67195 35.2184 6.57312 34.3642C5.1739 33.7899 4.09593 32.678 3.53196 31.2273C2.69671 29.0551 2.88946 23.9005 2.88946 21.5C2.88946 19.0995 2.70385 13.9376 3.53196 11.7727C4.08879 10.3294 5.16676 9.21751 6.57312 8.63578C8.67908 7.77424 13.6763 7.97306 16.0036 7.97306C18.3308 7.97306 23.3352 7.7816 25.434 8.63578C26.8332 9.21014 27.9112 10.322 28.4752 11.7727C29.3104 13.9449 29.1177 19.0995 29.1177 21.5C29.1177 23.9005 29.3104 29.0624 28.4752 31.2273Z" fill="#37616A"/>
</svg>
