<svg width="36" height="34" fill="none" xmlns="http://www.w3.org/2000/svg"><path d="M18.418.404c-4.766 0-5.365.02-7.238.1-1.872.084-3.148.364-4.265.778a8.651 8.651 0 0 0-3.11 1.93 8.184 8.184 0 0 0-2.027 2.962c-.434 1.063-.73 2.28-.816 4.057-.084 1.787-.106 2.356-.106 6.902 0 4.54.022 5.11.106 6.893.088 1.781.382 2.996.816 4.06a8.186 8.186 0 0 0 2.027 2.963c.974.93 1.953 1.503 3.108 1.93 1.12.414 2.393.696 4.263.778 1.875.08 2.472.1 7.242.1s5.365-.02 7.24-.1c1.868-.084 3.147-.364 4.265-.778a8.648 8.648 0 0 0 3.108-1.93 8.186 8.186 0 0 0 2.026-2.963c.433-1.064.729-2.279.817-4.06.083-1.784.105-2.352.105-6.895 0-4.544-.022-5.113-.105-6.898-.088-1.78-.384-2.996-.817-4.059a8.182 8.182 0 0 0-2.026-2.962 8.639 8.639 0 0 0-3.11-1.93C28.8.868 27.523.586 25.654.504c-1.874-.08-2.47-.1-7.242-.1h.007-.002zm-1.574 3.015h1.576c4.689 0 5.244.014 7.095.096 1.712.073 2.643.347 3.262.575.819.303 1.405.667 2.02 1.252a5.15 5.15 0 0 1 1.312 1.924c.242.587.527 1.474.604 3.105.085 1.762.103 2.291.103 6.755s-.018 4.995-.103 6.758c-.077 1.63-.365 2.515-.604 3.105a5.147 5.147 0 0 1-1.315 1.921c-.614.586-1.198.947-2.02 1.25-.614.23-1.545.502-3.26.578-1.85.08-2.405.098-7.094.098s-5.246-.019-7.097-.098c-1.712-.076-2.64-.348-3.26-.578a5.473 5.473 0 0 1-2.02-1.25 5.17 5.17 0 0 1-1.316-1.923c-.24-.588-.527-1.474-.604-3.105-.084-1.763-.101-2.292-.101-6.76 0-4.466.017-4.993.1-6.755.08-1.631.365-2.518.607-3.107.318-.78.7-1.338 1.315-1.924.614-.585 1.198-.947 2.02-1.25.618-.23 1.547-.502 3.259-.577 1.62-.071 2.248-.092 5.52-.094v.004zm10.95 2.776c-.277 0-.551.052-.807.153s-.488.249-.684.435c-.195.187-.35.408-.457.651a1.923 1.923 0 0 0 0 1.537c.106.243.262.465.457.65.196.187.428.335.684.436.256.1.53.153.806.153.56 0 1.095-.212 1.49-.588a1.96 1.96 0 0 0 .618-1.42 1.96 1.96 0 0 0-.617-1.419 2.162 2.162 0 0 0-1.49-.588zM18.42 8.541a9.418 9.418 0 0 0-3.495.615 9.074 9.074 0 0 0-2.974 1.853 8.583 8.583 0 0 0-1.992 2.804 8.239 8.239 0 0 0-.7 3.318c0 1.14.238 2.268.7 3.32a8.583 8.583 0 0 0 1.992 2.803c.853.8 1.864 1.429 2.974 1.853a9.418 9.418 0 0 0 3.495.615c2.368-.036 4.626-.956 6.287-2.563 1.661-1.607 2.592-3.772 2.592-6.027 0-2.256-.93-4.42-2.592-6.028-1.661-1.607-3.92-2.527-6.287-2.563zm0 3.013c1.553 0 3.042.588 4.14 1.633a5.445 5.445 0 0 1 1.715 3.944 5.445 5.445 0 0 1-1.715 3.942 6.006 6.006 0 0 1-4.14 1.634 6.006 6.006 0 0 1-4.14-1.634 5.445 5.445 0 0 1-1.714-3.942c0-1.48.616-2.898 1.714-3.944a6.006 6.006 0 0 1 4.14-1.633z" fill="#37616A"/></svg>