<svg width="36" height="41" fill="none" xmlns="http://www.w3.org/2000/svg"><path d="M16.004 13.04c-4.54 0-8.203 3.777-8.203 8.46 0 4.683 3.662 8.46 8.203 8.46 4.54 0 8.202-3.777 8.202-8.46 0-4.683-3.662-8.46-8.202-8.46zm0 13.96c-2.935 0-5.333-2.466-5.333-5.5s2.391-5.5 5.333-5.5c2.94 0 5.332 2.466 5.332 5.5S18.938 27 16.004 27zm10.45-14.307c0 1.097-.856 1.974-1.912 1.974-1.064 0-1.914-.884-1.914-1.974 0-1.09.857-1.973 1.914-1.973 1.056 0 1.913.883 1.913 1.973zm5.434 2.003c-.122-2.643-.707-4.985-2.585-6.914-1.87-1.93-4.14-2.533-6.703-2.666-2.642-.155-10.559-.155-13.2 0-2.556.125-4.826.729-6.703 2.658C.819 9.704.24 12.045.112 14.69c-.15 2.724-.15 10.89 0 13.615.122 2.644.707 4.985 2.585 6.914 1.877 1.93 4.14 2.533 6.703 2.666 2.641.155 10.559.155 13.2 0 2.563-.125 4.833-.729 6.703-2.666 1.87-1.929 2.456-4.27 2.585-6.914.15-2.725.15-10.883 0-13.608zm-3.413 16.531a5.487 5.487 0 0 1-3.041 3.137c-2.106.862-7.103.663-9.43.663-2.328 0-7.332.191-9.43-.663-1.4-.574-2.478-1.686-3.042-3.137-.835-2.172-.643-7.326-.643-9.727 0-2.4-.185-7.562.643-9.727a5.487 5.487 0 0 1 3.041-3.137c2.106-.862 7.103-.663 9.43-.663 2.328 0 7.332-.191 9.431.663 1.4.574 2.477 1.686 3.041 3.137.835 2.172.643 7.326.643 9.727 0 2.4.192 7.562-.643 9.727z" fill="#37616A"/></svg>