<svg width="36" height="34" viewBox="0 0 36 34" fill="none" xmlns="http://www.w3.org/2000/svg">
<path d="M18.4178 0.403809C13.6521 0.403809 13.0528 0.424717 11.1803 0.504169C9.30786 0.587802 8.03246 0.867973 6.91512 1.28196C5.74311 1.70184 4.68151 2.36046 3.80456 3.2118C2.91129 4.04749 2.21988 5.0585 1.77842 6.1745C1.34377 7.23665 1.04743 8.45351 0.961814 10.2307C0.878397 12.0184 0.856445 12.5871 0.856445 17.1326C0.856445 21.6738 0.878397 22.2425 0.961814 24.026C1.04962 25.8074 1.34377 27.0222 1.77842 28.0864C2.22843 29.1862 2.82771 30.1187 3.80456 31.0491C4.77922 31.9796 5.75827 32.5524 6.91293 32.979C8.03246 33.393 9.30567 33.6752 11.176 33.7568C13.0506 33.8362 13.6477 33.8571 18.4178 33.8571C23.1879 33.8571 23.7828 33.8362 25.6575 33.7568C27.5256 33.6731 28.8054 33.393 29.9227 32.979C31.094 32.5589 32.1548 31.9003 33.0311 31.0491C34.0079 30.1187 34.6072 29.1862 35.0572 28.0864C35.4897 27.0222 35.786 25.8074 35.8738 24.026C35.9573 22.2425 35.9792 21.6738 35.9792 17.1305C35.9792 12.5871 35.9573 12.0184 35.8738 10.2328C35.786 8.45351 35.4897 7.23665 35.0572 6.1745C34.6158 5.05847 33.9244 4.04745 33.0311 3.2118C32.1544 2.36015 31.0927 1.70147 29.9205 1.28196C28.801 0.867973 27.5234 0.585711 25.6553 0.504169C23.7806 0.424717 23.1857 0.403809 18.4134 0.403809H18.42H18.4178ZM16.8439 3.41879H18.42C23.1089 3.41879 23.6643 3.43342 25.5148 3.51497C27.2271 3.58815 28.1578 3.86204 28.7768 4.08995C29.5956 4.39312 30.1818 4.75692 30.7964 5.34235C31.4111 5.92779 31.7908 6.48395 32.1091 7.26592C32.3506 7.85344 32.636 8.73996 32.7128 10.3708C32.7984 12.1334 32.816 12.6624 32.816 17.1263C32.816 21.5902 32.7984 22.1213 32.7128 23.8839C32.636 25.5147 32.3484 26.3991 32.1091 26.9887C31.8276 27.715 31.3782 28.3717 30.7942 28.9102C30.1796 29.4956 29.5956 29.8574 28.7747 30.1605C28.16 30.3905 27.2292 30.6623 25.5148 30.7376C23.6643 30.8171 23.1089 30.8359 18.42 30.8359C13.7311 30.8359 13.1736 30.8171 11.323 30.7376C9.61079 30.6623 8.68224 30.3905 8.0632 30.1605C7.30037 29.8927 6.61027 29.4655 6.04364 28.9102C5.45918 28.3708 5.0091 27.7135 4.72653 26.9866C4.48726 26.3991 4.19969 25.5126 4.12286 23.8818C4.03945 22.1192 4.02188 21.5902 4.02188 17.1221C4.02188 12.6561 4.03945 12.1292 4.12286 10.3666C4.20189 8.73577 4.48726 7.84926 4.72873 7.25965C5.04703 6.47977 5.42899 5.92151 6.04364 5.33608C6.65829 4.75065 7.2422 4.38893 8.0632 4.08576C8.68224 3.85577 9.61079 3.58396 11.323 3.50869C12.9431 3.43761 13.5709 3.4167 16.8439 3.41461V3.41879ZM27.7934 6.19541C27.5167 6.19541 27.2426 6.24733 26.987 6.3482C26.7313 6.44907 26.499 6.59692 26.3033 6.78331C26.1076 6.96969 25.9524 7.19097 25.8465 7.43449C25.7405 7.67801 25.686 7.93902 25.686 8.20261C25.686 8.4662 25.7405 8.72721 25.8465 8.97073C25.9524 9.21426 26.1076 9.43553 26.3033 9.62192C26.499 9.8083 26.7313 9.95615 26.987 10.057C27.2426 10.1579 27.5167 10.2098 27.7934 10.2098C28.3523 10.2098 28.8883 9.99834 29.2835 9.62192C29.6787 9.24549 29.9008 8.73495 29.9008 8.20261C29.9008 7.67027 29.6787 7.15973 29.2835 6.78331C28.8883 6.40689 28.3523 6.19541 27.7934 6.19541ZM18.42 8.54133C17.2238 8.52355 16.0358 8.73261 14.9253 9.15633C13.8147 9.58004 12.8037 10.21 11.9512 11.0094C11.0987 11.8088 10.4216 12.7618 9.95948 13.8129C9.49734 14.8639 9.25935 15.992 9.25935 17.1315C9.25935 18.271 9.49734 19.3991 9.95948 20.4502C10.4216 21.5012 11.0987 22.4542 11.9512 23.2536C12.8037 24.0531 13.8147 24.683 14.9253 25.1067C16.0358 25.5304 17.2238 25.7395 18.42 25.7217C20.7876 25.6865 23.0457 24.766 24.7069 23.1589C26.3682 21.5517 27.2993 19.3868 27.2993 17.1315C27.2993 14.8762 26.3682 12.7113 24.7069 11.1042C23.0457 9.49702 20.7876 8.57651 18.42 8.54133ZM18.42 11.5542C19.9727 11.5542 21.4619 12.1417 22.5598 13.1875C23.6577 14.2332 24.2745 15.6516 24.2745 17.1305C24.2745 18.6094 23.6577 20.0277 22.5598 21.0735C21.4619 22.1192 19.9727 22.7067 18.42 22.7067C16.8673 22.7067 15.3782 22.1192 14.2802 21.0735C13.1823 20.0277 12.5655 18.6094 12.5655 17.1305C12.5655 15.6516 13.1823 14.2332 14.2802 13.1875C15.3782 12.1417 16.8673 11.5542 18.42 11.5542Z" fill="#37616A"/>
</svg>
