<svg width="108" height="71" fill="none" xmlns="http://www.w3.org/2000/svg"><g clip-path="url(#a)"><path d="m1.597 47.674-.821-1.316 54.783-34.354.821 1.3-54.783 34.37zM87.985 57.169l-1.384-.682 16.958-34.756 1.384.681L87.985 57.17z" fill="#113343"/><path d="m55.036 13.034-.136 10.36 1.536.022.136-10.361-1.536-.021z" fill="#113343"/><path d="m103.974 22.162-48.797.937.029 1.549 48.797-.937-.029-1.549z" fill="#113343"/><path d="M6.281 61.382c0-4.895 3.818-8.953 8.898-8.953s8.897 3.841 8.897 8.953v8.611h-3.21v-3.005c-1.261 2.107-3.482 3.423-6.204 3.423-4.837 0-8.396-4.058-8.396-9.03h.015zm14.434.03c0-3.144-2.388-5.73-5.521-5.73s-5.521 2.586-5.521 5.73c0 3.145 2.418 5.7 5.52 5.7 3.104 0 5.522-2.586 5.522-5.7zM28.943 61.459v-16.48h3.376v10.006c1.37-1.534 3.407-2.556 5.658-2.556 5.08 0 8.73 3.81 8.73 9.03 0 4.925-3.817 8.952-8.867 8.952-5.05 0-8.897-3.887-8.897-8.952zm14.388-.031c0-3.113-2.388-5.7-5.49-5.7-3.103 0-5.522 2.587-5.522 5.7s2.388 5.73 5.521 5.73 5.49-2.586 5.49-5.73zM49.475 61.382c0-4.895 3.818-8.953 8.898-8.953s8.897 3.841 8.897 8.953v8.611h-3.21v-3.005c-1.262 2.107-3.482 3.423-6.205 3.423-4.836 0-8.395-4.058-8.395-9.03h.015zm14.434.03c0-3.144-2.388-5.73-5.521-5.73s-5.521 2.586-5.521 5.73c0 3.145 2.418 5.7 5.52 5.7 3.103 0 5.522-2.586 5.522-5.7zM71.072 61.382c0-4.926 3.924-8.984 8.73-8.953 3.072 0 5.901 1.44 7.438 4.507l-2.799 1.611c-.989-1.858-2.662-2.834-4.639-2.834-2.935 0-5.353 2.555-5.353 5.669 0 3.113 2.418 5.73 5.353 5.73 1.977 0 3.65-.975 4.64-2.834l2.798 1.58c-1.537 3.113-4.365 4.507-7.438 4.507-4.806.077-8.73-4.027-8.73-8.983zM89.627 61.382c0-4.926 3.924-8.953 8.943-8.953s8.867 4.058 8.867 8.953c0 4.894-3.848 9.03-8.867 9.03-5.019 0-8.943-4.059-8.943-9.03zm14.434.03c0-3.144-2.388-5.73-5.49-5.73-3.103 0-5.567 2.586-5.567 5.73 0 3.145 2.418 5.7 5.566 5.7 3.149 0 5.491-2.586 5.491-5.7z" stroke="#113343" stroke-width="2" stroke-miterlimit="10"/><path d="M101.627 22.83 55.27 13.522l.304-1.518 46.358 9.308-.305 1.518zM1.065 48.2 0 47.087 49.14 0l1.065 1.115-49.14 47.086z" fill="#113343"/><path d="M103.057 23.186 48.563 1.471l.578-1.44 54.479 21.715-.563 1.44zM.639 48.51.03 47.087l55.635-24.271.609 1.425L.639 48.51z" fill="#113343"/></g><defs><clipPath id="a"><path fill="#fff" d="M0 0h108v71H0z"/></clipPath></defs></svg>