<svg width="86" height="55" fill="none" xmlns="http://www.w3.org/2000/svg"><g clip-path="url(#a)"><path d="m1.272 36.93-.654-1.02L44.24 9.3l.654 1.008L1.272 36.93zM70.062 44.286l-1.102-.528 13.504-26.924 1.102.527-13.504 26.925z" fill="#113343"/><path d="m43.825 10.096-.108 8.026 1.223.017.108-8.026-1.223-.017z" fill="#113343"/><path d="m82.794 17.168-38.857.726.023 1.2 38.857-.726-.022-1.2z" fill="#113343"/><path d="M5.002 47.55c0-3.792 3.04-6.936 7.085-6.936s7.085 2.976 7.085 6.935v6.671h-2.556v-2.328c-1.005 1.632-2.773 2.652-4.941 2.652-3.851 0-6.685-3.143-6.685-6.995h.012zm11.493.023c0-2.436-1.901-4.44-4.396-4.44s-4.396 2.004-4.396 4.44c0 2.436 1.925 4.415 4.396 4.415 2.47 0 4.396-2.003 4.396-4.415zM23.047 47.61V34.842h2.689v7.75a6.145 6.145 0 0 1 4.505-1.979c4.045 0 6.952 2.952 6.952 6.995 0 3.816-3.04 6.935-7.06 6.935-4.022 0-7.086-3.011-7.086-6.935zm11.457-.025c0-2.412-1.901-4.415-4.372-4.415-2.47 0-4.396 2.003-4.396 4.415s1.901 4.44 4.396 4.44 4.372-2.004 4.372-4.44zM39.397 47.55c0-3.792 3.04-6.936 7.085-6.936s7.085 2.976 7.085 6.935v6.671H51.01v-2.328c-1.005 1.632-2.773 2.652-4.94 2.652-3.852 0-6.686-3.143-6.686-6.995h.012zm11.493.023c0-2.436-1.901-4.44-4.396-4.44s-4.396 2.004-4.396 4.44c0 2.436 1.925 4.415 4.396 4.415 2.47 0 4.396-2.003 4.396-4.415zM56.595 47.55c0-3.816 3.124-6.96 6.951-6.936 2.447 0 4.7 1.116 5.923 3.492l-2.229 1.247c-.787-1.44-2.12-2.195-3.694-2.195-2.337 0-4.263 1.98-4.263 4.391 0 2.412 1.926 4.44 4.263 4.44 1.575 0 2.907-.756 3.694-2.196l2.229 1.224c-1.224 2.411-3.476 3.491-5.923 3.491-3.827.06-6.951-3.12-6.951-6.959zM71.37 47.55c0-3.816 3.125-6.936 7.121-6.936 3.997 0 7.06 3.144 7.06 6.935 0 3.791-3.063 6.995-7.06 6.995-3.996 0-7.121-3.143-7.121-6.995zm11.493.023c0-2.436-1.901-4.44-4.372-4.44a4.432 4.432 0 0 0-4.432 4.44 4.389 4.389 0 0 0 4.432 4.415c2.507 0 4.372-2.003 4.372-4.415z" stroke="#113343" stroke-miterlimit="10"/><path d="m80.925 17.685-36.914-7.21.242-1.176 36.915 7.21-.243 1.176zM.848 37.339 0 36.475 39.13 0l.848.864L.848 37.339z" fill="#113343"/><path d="M82.064 17.961 38.67 1.14l.46-1.116 43.382 16.822-.448 1.115zM.509 37.578l-.485-1.103 44.302-18.802.484 1.104L.51 37.578z" fill="#113343"/></g><defs><clipPath id="a"><path fill="#fff" d="M0 0h86v55H0z"/></clipPath></defs></svg>