<svg width="86" height="55" viewBox="0 0 86 55" fill="none" xmlns="http://www.w3.org/2000/svg">
<g clip-path="url(#clip0_856_21705)">
<path d="M1.27167 36.9306L0.617676 35.9108L44.2414 9.29865L44.8954 10.3065L1.27167 36.9306Z" fill="#113343"/>
<path d="M70.0619 44.2856L68.9598 43.7576L82.4636 16.8336L83.5657 17.3615L70.0619 44.2856Z" fill="#113343"/>
<path d="M43.8254 10.0964L43.7166 18.1225L44.9397 18.1388L45.0485 10.1127L43.8254 10.0964Z" fill="#113343"/>
<path d="M82.7945 17.168L43.9373 17.8937L43.9601 19.0933L82.8173 18.3676L82.7945 17.168Z" fill="#113343"/>
<path d="M5.00186 47.5491C5.00186 43.7576 8.04171 40.6141 12.0868 40.6141C16.1318 40.6141 19.1717 43.5896 19.1717 47.5491V54.2201H16.6163V51.8924C15.6111 53.5242 13.8429 54.544 11.675 54.544C7.82371 54.544 4.98975 51.4005 4.98975 47.5491H5.00186ZM16.4952 47.5731C16.4952 45.1374 14.5937 43.1337 12.0989 43.1337C9.60403 43.1337 7.7026 45.1374 7.7026 47.5731C7.7026 50.0087 9.62825 51.9884 12.0989 51.9884C14.5695 51.9884 16.4952 49.9847 16.4952 47.5731Z" stroke="#113343" stroke-miterlimit="10"/>
<path d="M23.0472 47.6091V34.8429H25.7359V42.5938C26.8259 41.406 28.4487 40.6141 30.2412 40.6141C34.2862 40.6141 37.1929 43.5657 37.1929 47.6091C37.1929 51.4245 34.153 54.5441 30.1322 54.5441C26.1113 54.5441 23.0472 51.5325 23.0472 47.6091ZM34.5042 47.5851C34.5042 45.1734 32.6028 43.1697 30.1322 43.1697C27.6615 43.1697 25.7359 45.1734 25.7359 47.5851C25.7359 49.9967 27.6373 52.0244 30.1322 52.0244C32.627 52.0244 34.5042 50.0207 34.5042 47.5851Z" stroke="#113343" stroke-miterlimit="10"/>
<path d="M39.397 47.5491C39.397 43.7576 42.4369 40.6141 46.4819 40.6141C50.527 40.6141 53.5668 43.5896 53.5668 47.5491V54.2201H51.0114V51.8924C50.0062 53.5242 48.238 54.544 46.0701 54.544C42.2189 54.544 39.3849 51.4005 39.3849 47.5491H39.397ZM50.8903 47.5731C50.8903 45.1374 48.9889 43.1337 46.494 43.1337C43.9992 43.1337 42.0977 45.1374 42.0977 47.5731C42.0977 50.0087 44.0234 51.9884 46.494 51.9884C48.9647 51.9884 50.8903 49.9847 50.8903 47.5731Z" stroke="#113343" stroke-miterlimit="10"/>
<path d="M56.5946 47.5491C56.5946 43.7336 59.7192 40.5901 63.5463 40.6141C65.9927 40.6141 68.2454 41.7299 69.4686 44.1056L67.2401 45.3534C66.4529 43.9136 65.1207 43.1577 63.5463 43.1577C61.2089 43.1577 59.2832 45.1374 59.2832 47.5491C59.2832 49.9607 61.2089 51.9884 63.5463 51.9884C65.1207 51.9884 66.4529 51.2325 67.2401 49.7928L69.4686 51.0166C68.2454 53.4282 65.9927 54.5081 63.5463 54.5081C59.7192 54.5681 56.5946 51.3885 56.5946 47.5491Z" stroke="#113343" stroke-miterlimit="10"/>
<path d="M71.37 47.5491C71.37 43.7336 74.4946 40.6141 78.4912 40.6141C82.4879 40.6141 85.5519 43.7576 85.5519 47.5491C85.5519 51.3405 82.4879 54.544 78.4912 54.544C74.4946 54.544 71.37 51.4005 71.37 47.5491ZM82.8633 47.5731C82.8633 45.1374 80.9619 43.1337 78.4912 43.1337C76.0206 43.1337 74.0586 45.1374 74.0586 47.5731C74.0586 50.0087 75.9843 51.9884 78.4912 51.9884C80.9982 51.9884 82.8633 49.9847 82.8633 47.5731Z" stroke="#113343" stroke-miterlimit="10"/>
<path d="M80.9255 17.6854L44.0112 10.4745L44.2535 9.29865L81.1677 16.5096L80.9255 17.6854Z" fill="#113343"/>
<path d="M0.847768 37.3386L0 36.4747L39.1305 0L39.9783 0.863874L0.847768 37.3386Z" fill="#113343"/>
<path d="M82.0639 17.9614L38.6703 1.13982L39.1305 0.0239868L82.512 16.8455L82.0639 17.9614Z" fill="#113343"/>
<path d="M0.508609 37.5785L0.0241699 36.4747L44.3261 17.6734L44.8105 18.7773L0.508609 37.5785Z" fill="#113343"/>
</g>
<defs>
<clipPath id="clip0_856_21705">
<rect width="86" height="55" fill="white"/>
</clipPath>
</defs>
</svg>
