<svg width="108" height="71" viewBox="0 0 108 71" fill="none" xmlns="http://www.w3.org/2000/svg">
<g clip-path="url(#clip0_856_21959)">
<path d="M1.59696 47.6741L0.775665 46.3576L55.5589 12.0037L56.3802 13.3048L1.59696 47.6741Z" fill="#113343"/>
<path d="M87.9848 57.1686L86.6007 56.4871L103.559 21.7306L104.943 22.4121L87.9848 57.1686Z" fill="#113343"/>
<path d="M55.0365 13.0336L54.8998 23.3946L56.4358 23.4156L56.5725 13.0546L55.0365 13.0336Z" fill="#113343"/>
<path d="M103.974 22.1623L55.1771 23.0992L55.2057 24.6477L104.003 23.7109L103.974 22.1623Z" fill="#113343"/>
<path d="M6.28137 61.3816C6.28137 56.4871 10.0989 52.4291 15.1787 52.4291C20.2586 52.4291 24.076 56.2703 24.076 61.3816V69.9932H20.8669V66.9884C19.6046 69.0949 17.384 70.4114 14.6616 70.4114C9.8251 70.4114 6.26616 66.3534 6.26616 61.3816H6.28137ZM20.7148 61.4125C20.7148 58.2683 18.327 55.6817 15.1939 55.6817C12.0608 55.6817 9.673 58.2683 9.673 61.4125C9.673 64.5567 12.0913 67.1124 15.1939 67.1124C18.2966 67.1124 20.7148 64.5258 20.7148 61.4125Z" stroke="#113343" stroke-width="2" stroke-miterlimit="10"/>
<path d="M28.943 61.459V44.9791H32.3194V54.9847C33.6882 53.4514 35.7262 52.4291 37.9772 52.4291C43.057 52.4291 46.7072 56.2393 46.7072 61.459C46.7072 66.3844 42.8897 70.4114 37.8403 70.4114C32.7909 70.4114 28.943 66.5238 28.943 61.459ZM43.3308 61.428C43.3308 58.3148 40.943 55.7282 37.8403 55.7282C34.7376 55.7282 32.3194 58.3148 32.3194 61.428C32.3194 64.5412 34.7072 67.1588 37.8403 67.1588C40.9734 67.1588 43.3308 64.5722 43.3308 61.428Z" stroke="#113343" stroke-width="2" stroke-miterlimit="10"/>
<path d="M49.4753 61.3816C49.4753 56.4871 53.2928 52.4291 58.3726 52.4291C63.4525 52.4291 67.27 56.2703 67.27 61.3816V69.9932H64.0608V66.9884C62.7985 69.0949 60.578 70.4114 57.8555 70.4114C53.019 70.4114 49.4601 66.3534 49.4601 61.3816H49.4753ZM63.9088 61.4125C63.9088 58.2683 61.5209 55.6817 58.3878 55.6817C55.2548 55.6817 52.8669 58.2683 52.8669 61.4125C52.8669 64.5567 55.2852 67.1124 58.3878 67.1124C61.4905 67.1124 63.9088 64.5258 63.9088 61.4125Z" stroke="#113343" stroke-width="2" stroke-miterlimit="10"/>
<path d="M71.0722 61.3815C71.0722 56.4562 74.9962 52.3981 79.8023 52.4291C82.8745 52.4291 85.7034 53.8695 87.2395 56.9363L84.4411 58.5471C83.4525 56.6885 81.7795 55.7127 79.8023 55.7127C76.8669 55.7127 74.4487 58.2683 74.4487 61.3815C74.4487 64.4948 76.8669 67.1124 79.8023 67.1124C81.7795 67.1124 83.4525 66.1366 84.4411 64.2779L87.2395 65.8578C85.7034 68.971 82.8745 70.365 79.8023 70.365C74.9962 70.4424 71.0722 66.3379 71.0722 61.3815Z" stroke="#113343" stroke-width="2" stroke-miterlimit="10"/>
<path d="M89.6274 61.3816C89.6274 56.4562 93.5513 52.4291 98.5703 52.4291C103.589 52.4291 107.437 56.4871 107.437 61.3816C107.437 66.276 103.589 70.4114 98.5703 70.4114C93.5513 70.4114 89.6274 66.3534 89.6274 61.3816ZM104.061 61.4125C104.061 58.2683 101.673 55.6817 98.5703 55.6817C95.4677 55.6817 93.0038 58.2683 93.0038 61.4125C93.0038 64.5567 95.422 67.1124 98.5703 67.1124C101.719 67.1124 104.061 64.5258 104.061 61.4125Z" stroke="#113343" stroke-width="2" stroke-miterlimit="10"/>
<path d="M101.627 22.8303L55.27 13.5216L55.5741 12.0037L101.932 21.3124L101.627 22.8303Z" fill="#113343"/>
<path d="M1.06464 48.2007L0 47.0855L49.1407 0L50.2053 1.11518L1.06464 48.2007Z" fill="#113343"/>
<path d="M103.057 23.1865L48.5627 1.47142L49.1407 0.0309753L103.62 21.7461L103.057 23.1865Z" fill="#113343"/>
<path d="M0.638776 48.5105L0.0304108 47.0855L55.6654 22.8148L56.2738 24.2397L0.638776 48.5105Z" fill="#113343"/>
</g>
<defs>
<clipPath id="clip0_856_21959">
<rect width="108" height="71" fill="white"/>
</clipPath>
</defs>
</svg>
