<?xml version="1.0" encoding="utf-8"?>
<!-- Generator: Adobe Illustrator 27.7.0, SVG Export Plug-In . SVG Version: 6.00 Build 0)  -->
<svg version="1.1" id="Calque_1" xmlns="http://www.w3.org/2000/svg" xmlns:xlink="http://www.w3.org/1999/xlink" x="0px" y="0px"
	 viewBox="0 0 220 151" style="enable-background:new 0 0 220 151;" xml:space="preserve">
<style type="text/css">
	.st0{fill:#0A0404;stroke:#102437;stroke-width:0.5;stroke-miterlimit:10;}
	.st1{fill:#1C2240;stroke:#103242;stroke-miterlimit:10;}
	.st2{fill:none;stroke:#103242;stroke-width:0.75;stroke-miterlimit:10;}
	.st3{font-family:'Chillax-Medium';}
	.st4{font-size:22.5929px;}
	.st5{fill:#103242;stroke:#103242;stroke-width:0.75;stroke-miterlimit:10;}
	.st6{font-size:21px;}
	.st7{fill:none;}
</style>
<g id="logo">
	<line class="st0" x1="292.2" y1="44.1" x2="332.3" y2="19.5"/>
	<path class="st0" d="M352.3,47.3l10.7-21.6"/>
	<line class="st0" x1="331.5" y1="26.5" x2="332.3" y2="19.3"/>
	<line class="st0" x1="331.2" y1="26.8" x2="362.9" y2="26.2"/>
	<g>
		<g>
			<path class="st0" d="M299.8,50c0-3.2,2.5-5.8,5.8-5.8c3.3,0,5.8,2.5,5.8,5.8v5.6h-2.1v-1.9c-0.8,1.4-2.3,2.2-4,2.2
				C302.1,55.8,299.8,53.2,299.8,50z M309.2,50c0-2-1.6-3.7-3.6-3.7c-2,0-3.6,1.7-3.6,3.7s1.6,3.7,3.6,3.7
				C307.6,53.7,309.2,52,309.2,50z"/>
			<path class="st0" d="M314.5,50V39.4h2.2v6.5c0.9-1,2.2-1.7,3.7-1.7c3.3,0,5.7,2.5,5.7,5.8c0,3.2-2.5,5.8-5.8,5.8
				S314.5,53.3,314.5,50z M323.9,50c0-2-1.5-3.7-3.6-3.7s-3.6,1.7-3.6,3.7s1.5,3.7,3.6,3.7S323.9,52,323.9,50z"/>
			<path class="st0" d="M327.9,50c0-3.2,2.5-5.8,5.8-5.8c3.3,0,5.8,2.5,5.8,5.8v5.6h-2.1v-1.9c-0.8,1.4-2.3,2.2-4,2.2
				C330.2,55.8,327.9,53.2,327.9,50z M337.2,50c0-2-1.6-3.7-3.6-3.7c-2,0-3.6,1.7-3.6,3.7s1.6,3.7,3.6,3.7
				C335.7,53.7,337.2,52,337.2,50z"/>
			<path class="st0" d="M341.9,50c0-3.2,2.5-5.8,5.7-5.8c2,0,3.8,0.9,4.8,2.9l-1.8,1c-0.6-1.2-1.7-1.8-3-1.8c-1.9,0-3.5,1.7-3.5,3.7
				s1.6,3.7,3.5,3.7c1.3,0,2.4-0.6,3-1.8l1.8,1c-1,2-2.8,2.9-4.8,2.9C344.4,55.8,341.9,53.2,341.9,50L341.9,50z"/>
			<path class="st0" d="M353.9,50c0-3.2,2.6-5.8,5.8-5.8s5.8,2.6,5.8,5.8s-2.5,5.8-5.8,5.8S353.9,53.2,353.9,50z M363.3,50
				c0-2-1.6-3.7-3.6-3.7c-2,0-3.6,1.7-3.6,3.7s1.6,3.7,3.6,3.7S363.3,52,363.3,50z"/>
		</g>
	</g>
	<line class="st0" x1="332.1" y1="19.6" x2="362.5" y2="25.9"/>
	<line class="st0" x1="292.2" y1="44.1" x2="327.3" y2="11.3"/>
	<line class="st0" x1="327.3" y1="11.3" x2="362.9" y2="25.9"/>
	<line class="st0" x1="292.3" y1="43.9" x2="331.7" y2="26.6"/>
</g>
<g id="logo_00000026160110043819692630000002760629880419371448_">
	<path class="st1" d="M-50.2,275.6"/>
	<line class="st1" x1="-71.6" y1="296.8" x2="-39" y2="276"/>
	<line class="st1" x1="-20.3" y1="302.7" x2="-10.2" y2="281.7"/>
	<line class="st1" x1="-39.1" y1="282.5" x2="-39" y2="276.3"/>
	<line class="st1" x1="-39.4" y1="282.8" x2="-10.3" y2="282.2"/>
	<text transform="matrix(0.9618 0 0 1 -69.3916 310.6982)" class="st2 st3" style="font-size:21.1509px;">abaco</text>
	<line class="st1" x1="-39.3" y1="276.1" x2="-11.6" y2="281.7"/>
	<line class="st1" x1="-72" y1="297.2" x2="-42.7" y2="268.7"/>
	<line class="st1" x1="-43.2" y1="268.8" x2="-10.7" y2="282"/>
	<line class="st1" x1="-72.1" y1="297.3" x2="-39" y2="282.6"/>
	<rect x="-70" y="314.4" class="st7" width="60.1" height="6.8"/>
	<rect x="-68.5" y="318" class="st7" width="59.5" height="0.8"/>
	
		<text transform="matrix(0.8248 0 0 1 -69.7354 317.1436)" style="fill:#103242; font-family:'Poppins-SemiBold'; font-size:4.6809px;">à bout d’aile comme un oisaeu</text>
</g>
<g id="logo_00000134930820661349489360000014230004960566090653_">
	<path class="st1" d="M53.1,65"/>
	<line class="st1" x1="29.8" y1="87.7" x2="65.3" y2="65.5"/>
	<line class="st1" x1="85.7" y1="94" x2="96.7" y2="71.5"/>
	<line class="st1" x1="65.2" y1="72.4" x2="65.2" y2="65.7"/>
	<line class="st1" x1="64.8" y1="72.7" x2="96.5" y2="72.1"/>
	<text transform="matrix(0.98 0 0 1 32.2128 102.4931)" class="st2 st3 st4">abaco</text>
	<line class="st1" x1="65" y1="65.5" x2="95.1" y2="71.5"/>
	<line class="st1" x1="29.4" y1="88.1" x2="61.3" y2="57.6"/>
	<line class="st1" x1="60.7" y1="57.8" x2="96.1" y2="71.8"/>
	<line class="st1" x1="29.2" y1="88.2" x2="65.3" y2="72.5"/>
</g>
<g id="logo_00000106118625608800958820000012051261159490121114_">
	<path class="st1" d="M46.4-1.2"/>
	<line class="st1" x1="23" y1="21.5" x2="58.6" y2="-0.7"/>
	<line class="st1" x1="78.9" y1="27.8" x2="89.9" y2="5.4"/>
	<line class="st1" x1="58.4" y1="6.2" x2="58.5" y2="-0.5"/>
	<line class="st1" x1="58.1" y1="6.5" x2="89.8" y2="5.9"/>
	<text transform="matrix(0.98 0 0 1 29.231 35.4566)" class="st5 st3 st6">abaco</text>
	<line class="st1" x1="58.2" y1="-0.7" x2="88.3" y2="5.4"/>
	<line class="st1" x1="22.6" y1="21.9" x2="54.5" y2="-8.5"/>
	<line class="st1" x1="54" y1="-8.4" x2="89.3" y2="5.6"/>
	<line class="st1" x1="22.5" y1="22" x2="58.6" y2="6.3"/>
	<rect x="24.8" y="40.2" class="st7" width="65.4" height="7.2"/>
	<rect x="26.4" y="44.1" class="st7" width="64.8" height="0.9"/>
</g>
</svg>
