<?xml version="1.0" encoding="UTF-8"?>
<svg id="Calque_1" data-name="Calque 1" xmlns="http://www.w3.org/2000/svg" viewBox="0 0 486.15 311.47">
  <defs>
    <style>
      .cls-1 {
        font-family: Poppins-SemiBold, Poppins;
        font-size: 5px;
        font-weight: 600;
      }

      .cls-1, .cls-2 {
        fill: #103242;
      }

      .cls-3, .cls-2 {
        font-family: Chillax-Medium, Chillax;
        font-size: 22.59px;
        font-weight: 500;
        stroke-width: .75px;
      }

      .cls-3, .cls-2, .cls-4, .cls-5 {
        stroke-miterlimit: 10;
      }

      .cls-3, .cls-2, .cls-6 {
        isolation: isolate;
      }

      .cls-3, .cls-2, .cls-5 {
        stroke: #103242;
      }

      .cls-3, .cls-6 {
        fill: none;
      }

      .cls-4 {
        fill: #0a0404;
        stroke: #102437;
        stroke-width: .5px;
      }

      .cls-5 {
        fill: #1c2240;
      }
    </style>
  </defs>
  <g id="logo">
    <line class="cls-4" x1="412.59" y1="53.01" x2="452.73" y2="28.4"/>
    <path class="cls-4" d="m472.75,56.16l10.74-21.61"/>
    <line class="cls-4" x1="451.95" y1="35.41" x2="452.7" y2="28.25"/>
    <line class="cls-4" x1="451.64" y1="35.69" x2="483.31" y2="35.11"/>
    <g>
      <path class="cls-4" d="m420.25,58.88c0-3.16,2.48-5.79,5.78-5.79s5.78,2.49,5.78,5.79v5.56h-2.08v-1.94c-.82,1.36-2.26,2.21-4.03,2.21-3.14,0-5.45-2.62-5.45-5.83Zm9.37.02c0-2.03-1.55-3.71-3.59-3.71s-3.59,1.67-3.59,3.71,1.57,3.68,3.59,3.68,3.59-1.67,3.59-3.68Z"/>
      <path class="cls-4" d="m434.95,58.92v-10.64h2.19v6.46c.89-.99,2.21-1.65,3.68-1.65,3.3,0,5.67,2.46,5.67,5.83,0,3.19-2.48,5.79-5.76,5.79s-5.78-2.51-5.78-5.79Zm9.34-.02c0-2.01-1.55-3.68-3.56-3.68s-3.59,1.67-3.59,3.68,1.55,3.71,3.59,3.71,3.56-1.67,3.56-3.71Z"/>
      <path class="cls-4" d="m448.28,58.88c0-3.16,2.48-5.79,5.78-5.79s5.78,2.49,5.78,5.79v5.56h-2.08v-1.94c-.82,1.36-2.26,2.21-4.03,2.21-3.14,0-5.45-2.62-5.45-5.83Zm9.37.02c0-2.03-1.55-3.71-3.59-3.71s-3.59,1.67-3.59,3.71,1.57,3.68,3.59,3.68,3.59-1.67,3.59-3.68Z"/>
      <path class="cls-4" d="m462.3,58.88c0-3.19,2.55-5.81,5.67-5.79,1.99,0,3.83.93,4.83,2.92l-1.82,1.04c-.64-1.2-1.73-1.83-3.01-1.83-1.9,0-3.48,1.65-3.48,3.66s1.57,3.71,3.48,3.71c1.28,0,2.37-.63,3.01-1.83l1.82,1.02c-1,2.01-2.83,2.92-4.83,2.92-3.12.05-5.67-2.6-5.67-5.81h0Z"/>
      <path class="cls-4" d="m474.34,58.88c0-3.19,2.55-5.79,5.8-5.79s5.76,2.62,5.76,5.79-2.5,5.83-5.76,5.83-5.8-2.62-5.8-5.83Zm9.37.02c0-2.03-1.55-3.71-3.56-3.71s-3.61,1.67-3.61,3.71,1.57,3.68,3.61,3.68,3.56-1.67,3.56-3.68Z"/>
    </g>
    <line class="cls-4" x1="452.5" y1="28.46" x2="482.89" y2="34.8"/>
    <line class="cls-4" x1="412.59" y1="53.01" x2="447.7" y2="20.25"/>
    <line class="cls-4" x1="447.7" y1="20.25" x2="483.31" y2="34.84"/>
    <line class="cls-4" x1="412.72" y1="52.76" x2="452.14" y2="35.48"/>
  </g>
  <g id="logo-2" data-name="logo">
    <line class="cls-5" x1="52.27" y1="268.22" x2="87.83" y2="246.02"/>
    <line class="cls-5" x1="108.16" y1="274.56" x2="119.16" y2="252.1"/>
    <line class="cls-5" x1="87.64" y1="252.97" x2="87.73" y2="246.27"/>
    <line class="cls-5" x1="87.32" y1="253.25" x2="118.99" y2="252.67"/>
    <g class="cls-6">
      <text class="cls-3" transform="translate(54.69 283.06) scale(.98 1)"><tspan x="0" y="0">abaco</tspan></text>
    </g>
    <line class="cls-5" x1="87.47" y1="246.09" x2="117.56" y2="252.1"/>
    <line class="cls-5" x1="51.84" y1="268.62" x2="83.74" y2="238.21"/>
    <line class="cls-5" x1="83.21" y1="238.33" x2="118.58" y2="252.36"/>
    <line class="cls-5" x1="51.71" y1="268.72" x2="87.83" y2="253.05"/>
    <text/>
    <text/>
    <text class="cls-1" transform="translate(54.32 289.94) scale(.84 1)"><tspan x="0" y="0">à bout d’aile comme un oisaeu</tspan></text>
  </g>
  <g id="logo-3" data-name="logo">
    <line class="cls-5" x1="150.2" y1="96.56" x2="185.76" y2="74.36"/>
    <line class="cls-5" x1="206.1" y1="102.9" x2="217.1" y2="80.44"/>
    <line class="cls-5" x1="185.57" y1="81.31" x2="185.66" y2="74.62"/>
    <line class="cls-5" x1="185.25" y1="81.59" x2="216.93" y2="81.01"/>
    <g class="cls-6">
      <text class="cls-3" transform="translate(152.63 111.4) scale(.98 1)"><tspan x="0" y="0">abaco</tspan></text>
    </g>
    <line class="cls-5" x1="185.41" y1="74.43" x2="215.49" y2="80.44"/>
    <line class="cls-5" x1="149.78" y1="96.96" x2="181.67" y2="66.55"/>
    <line class="cls-5" x1="181.14" y1="66.67" x2="216.51" y2="80.7"/>
    <line class="cls-5" x1="149.65" y1="97.06" x2="185.76" y2="81.39"/>
    <text/>
  </g>
  <g id="logo-4" data-name="logo">
    <line class="cls-5" x1="143.45" y1="30.37" x2="179.01" y2="8.17"/>
    <line class="cls-5" x1="199.34" y1="36.71" x2="210.35" y2="14.26"/>
    <line class="cls-5" x1="178.82" y1="15.12" x2="178.91" y2="8.43"/>
    <line class="cls-5" x1="178.5" y1="15.41" x2="210.18" y2="14.82"/>
    <g class="cls-6">
      <text class="cls-2" transform="translate(145.88 45.21) scale(.98 1)"><tspan x="0" y="0">abaco</tspan></text>
    </g>
    <line class="cls-5" x1="178.66" y1="8.24" x2="208.74" y2="14.26"/>
    <line class="cls-5" x1="143.03" y1="30.78" x2="174.92" y2=".36"/>
    <line class="cls-5" x1="174.39" y1=".48" x2="209.76" y2="14.52"/>
    <line class="cls-5" x1="142.89" y1="30.87" x2="179.01" y2="15.2"/>
    <text/>
    <text/>
  </g>
</svg>