<svg width="24" height="28" viewBox="0 0 24 28" fill="none" xmlns="http://www.w3.org/2000/svg">
<path fill-rule="evenodd" clip-rule="evenodd" d="M20 4.66675C21.6569 4.66675 23 6.23375 23 8.16675V19.8334C23 21.7664 21.6569 23.3334 20 23.3334H4C2.34315 23.3334 1 21.7664 1 19.8334V8.16675C1 6.23375 2.34315 4.66675 4 4.66675H20ZM19.2529 7.00008H4.74718L11.3804 13.1096C11.7437 13.4442 12.2563 13.4442 12.6197 13.1096L19.2529 7.00008ZM3 8.36368V19.8334C3 20.4777 3.44772 21.0001 4 21.0001H20C20.5523 21.0001 21 20.4777 21 19.8334V8.36371L13.8589 14.941C12.769 15.9449 11.231 15.9449 10.1411 14.941L3 8.36368Z" fill="#103242"/>
</svg>
