<svg width="30" height="28" viewBox="0 0 30 28" fill="none" xmlns="http://www.w3.org/2000/svg">
<path fill-rule="evenodd" clip-rule="evenodd" d="M14.7044 16.3372C17.7489 16.3372 20.2169 13.9866 20.2169 11.0872C20.2169 8.18766 17.7489 5.83715 14.7044 5.83715C11.6599 5.83715 9.19191 8.18766 9.19191 11.0872C9.19191 13.9866 11.6599 16.3372 14.7044 16.3372ZM14.7044 14.008C13.0106 14.008 11.6375 12.7003 11.6375 11.0872C11.6375 9.47401 13.0106 8.1663 14.7044 8.1663C16.3982 8.1663 17.7713 9.47401 17.7713 11.0872C17.7713 12.7003 16.3982 14.008 14.7044 14.008Z" fill="#103242"/>
<path fill-rule="evenodd" clip-rule="evenodd" d="M26.0582 13.5118C27.642 6.75262 22.0564 0.00390625 14.7 0.00390625C7.3457 0.00390625 1.75959 6.76189 3.342 13.5127C4.56341 18.9955 9.50258 24.3207 12.4504 27.0978C13.7129 28.2871 15.6871 28.2871 16.9496 27.0978C19.8976 24.3206 24.8371 18.995 26.0582 13.5118ZM14.7 2.33724C20.4728 2.33724 24.9126 7.68789 23.667 13.0036C23.0688 15.5578 21.7265 17.8516 20.1514 19.9719C18.5053 22.1879 16.6391 24.1083 15.2266 25.4389C14.9187 25.729 14.4813 25.729 14.1734 25.4389C12.761 24.1084 10.8949 22.1881 9.24886 19.9723C7.67364 17.8518 6.33186 15.5585 5.73314 13.0043C4.48887 7.69607 8.9304 2.33724 14.7 2.33724Z" fill="#103242"/>
</svg>
