<?xml version="1.0" encoding="UTF-8"?>
<svg id="OBJECTS" xmlns="http://www.w3.org/2000/svg" viewBox="0 0 904.31 114.26">
  <defs>
    <style>
      .cls-1 {
        fill: #103242;
      }
    </style>
  </defs>
  <path class="cls-1" d="m894.43,95.38l9.61-.05-5.46-55.41c-.28.08-10.28,2.84-12.62,2.73-3.27-.15-14.5-1.69-18.65-.89-4.15.8-41.52,5.84-42.8,5.55-1.28-.29-3.1-.88-6.08-.57-2.98.32-18.4-.94-20.25-.93s-5.53,1.73-7.02,1.73-7.25-1.25-9.39-1.84c-2.14-.59-53.88,4.54-56.02,4.47-2.13-.07-7.9-2.19-10.88-1.83-2.98.36-16.35,8.62-21.76,7.5-5.41-1.11-71.03-19.85-73.17-20.27-2.13-.42-17.62.11-20.32,0-2.7-.1-24.01-9.56-25.85-9.76-1.84-.19-2.66,3-4.42,3.68-1.76.68-13.57,2.6-15.62,3.86-1.86,1.14-18.26,11.61-18.83,12.3-.56.69-10.93,1.5-12.77,2.43-1.84.93-11.44,9.76-12.14,11.09-.7,1.32-5.53,1.41-7.8,2.11-2.27.7-6.49,6.23-10.48,5.46-3.98-.78-17.69-10.79-18.69-10.84s-3.69.71-5.96.78c-2.27.07-11.15-9.46-16.7-9.42s-33.08,21.02-34.08,21.03-2.99-1.13-4.98-1.06c-1.99.07-9.06,4.07-10.06,3.9-1-.17-2.42-1.36-4.42-1.87-1.99-.5-17.91-1.38-20.04-1.54-2.13-.16-5.11,1.09-7.24.93-2.13-.16-7.48-3.05-11.1-2.95-3.62.11-20.63,6.06-21.7,5.38-1.07-.68-26.52-13.26-28.44-13.25s-7.87,2.54-10,2.13c-2.13-.42-32.93-15.38-36.76-15.53-3.84-.15-22.09,9.77-25.93,10.4-3.83.63-6.83-.99-15.79-3.43s-14.28-.09-23.03-2.1c-8.75-2.01-32.89-9.61-36.3-9.68-3.41-.07-8.06,5.81-12.76,4.47-4.7-1.35-6.55-2.03-6.55-2.03-5.97.15-43.92,16.79-44.78,16.79s-7.99-4.77-11.11-4.41c-3.12.36-21.96,11.81-25.93,12.25-7.01.77-33.29,9.98-55.64,29.44l879.36-.71c3.75-.18,7.53-.2,11.29-.05Z"/>
  <path class="cls-1" d="m900.24,39.35c-.7.28-1.44.52-2.24.68v46.23h5v-47h-2.18c-.19.03-.39.06-.58.09Z"/>
  <rect class="cls-1" x="899" y="47.26" width="0" height="1"/>
</svg>