<?xml version="1.0" encoding="UTF-8"?>
<svg id="OBJECTS" xmlns="http://www.w3.org/2000/svg" viewBox="0 0 903 152">
  <defs>
    <style>
      .cls-1 {
        fill: #103242;
      }
    </style>
  </defs>
  <g>
    <path class="cls-1" d="m897.31,105.32c0-.67.06-1.32.15-1.96-.11-.69-.18-1.39-.15-2.11v-.68c0-.47.03-.92.08-1.38-.05-.14-.11-.28-.15-.43-.01-.04-.03-.08-.04-.12-.03-.09-.06-.17-.08-.26,0-.01,0-.03,0-.04-.73-2.33-.88-4.85-.45-7.27-.52-1.88-.69-3.87-.47-5.83-2.5-.13-4.95-.25-6.91-.34-.71.17-1.49.27-2.27.27h-1.27l4.83,38.92c2.49.29,4.97.69,7.43,1.2-.05-6.66-.63-13.31-.68-19.98Z"/>
    <path class="cls-1" d="m886.94,123.76l9.61.02-5.07-88.21c-.28.12-.55.21-.84.27-4.14,1.49-9.46,4.15-11.8,3.95-3.27-.27-14.49-2.83-18.65-1.6-4.16,1.23-41.55,8.9-42.83,8.42-1.28-.48-3.09-1.44-6.07-.96-2.98.48-18.4-1.67-20.24-1.67s-5.54,2.69-7.03,2.69-7.25-2.05-9.38-3.01c-2.13-.96-53.91,6.71-56.05,6.57-2.13-.14-7.88-3.56-10.87-3.01-2.98.55-16.41,13.55-21.81,11.73-5.4-1.83-70.89-32.26-73.02-32.95-2.13-.68-17.62,0-20.32-.18-2.7-.18-27.56-25.74-29.41-25.83-1.85-.09-2.42,3.65-4.12,4.56-1.7.91-13.33,3.97-15.28,5.57-1.77,1.45-15.4,30.02-15.97,31.11-.57,1.1-10.94,2.28-12.79,3.74-1.85,1.46-11.51,15.42-12.22,17.52-.71,2.1-5.54,2.19-7.81,3.29-2.27,1.1-6.54,9.86-10.51,8.58-3.98-1.28-17.62-17.34-18.61-17.43s-3.69,1.1-5.97,1.19c-2.27.09-11.08-15.15-16.64-15.15s-33.23,33.13-34.22,33.13-2.98-1.83-4.97-1.73c-1.99.09-9.09,6.39-10.09,6.11-.99-.27-2.42-2.19-4.4-3.01-1.99-.82-17.9-2.37-20.03-2.65-2.13-.27-5.11,1.69-7.25,1.41-2.13-.27-7.46-4.93-11.08-4.79-3.62.14-20.67,9.45-21.74,8.35-1.07-1.1-26.42-21.36-28.34-21.36s-7.88,3.97-10.02,3.29c-2.13-.68-32.82-24.78-36.65-25.05-3.84-.27-22.16,15.33-26,16.29-3.84.96-6.82-1.64-15.77-5.61s-14.28-.27-23.02-3.56c-8.74-3.29-32.82-15.61-36.23-15.74-3.41-.14-8.1,9.17-12.79,6.98-4.69-2.19-6.54-3.29-6.54-3.29-5.97.18-44.04,26.28-44.89,26.28s-7.96-7.67-11.08-7.12c-3.13.55-22.04,18.58-26.01,19.24-7.02,1.15-31.36,27.77-52.14,51.83l875.64,1.74c3.75-.26,7.53-.25,11.29.02Z"/>
  </g>
  <rect class="cls-1" x="891" y="35" width="12" height="89"/>
</svg>