<svg width="26" height="30" fill="none" xmlns="http://www.w3.org/2000/svg"><path fill-rule="evenodd" clip-rule="evenodd" d="M18.8 27.79c-2.188-.632-6.668-2.416-10.73-7.102C4.01 16 2.463 10.832 1.915 8.307c-.316-1.451.252-2.852 1.214-3.644l2.522-2.08c1.476-1.216 3.53-.803 4.561.918L11.8 6.147c.674 1.124.442 2.663-.522 3.458l-1.266 1.043c.192.846.788 2.583 2.654 4.736 1.867 2.154 3.372 2.842 4.105 3.063l.905-1.46c.688-1.113 2.022-1.381 2.996-.603l2.294 1.832c1.49 1.191 1.848 3.56.794 5.263l-1.801 2.91c-.688 1.11-1.901 1.765-3.159 1.401zm-9.198-8.87c3.694 4.262 7.77 5.88 9.725 6.445.286.083.631-.045.869-.429l1.801-2.91c.352-.568.232-1.357-.265-1.755L19.44 18.44l-.97 1.568c-.398.64-1.131 1.143-1.985.93-1.066-.265-3.037-1.116-5.35-3.785-2.313-2.669-3.05-4.942-3.28-6.172a2.402 2.402 0 0 1 .806-2.29l1.359-1.12L8.43 4.924c-.344-.574-1.028-.711-1.52-.306L4.388 6.697a1.028 1.028 0 0 0-.372 1.002c.49 2.256 1.893 6.96 5.586 11.221z" fill="#103242"/></svg>