<svg width="26" height="30" viewBox="0 0 26 30" fill="none" xmlns="http://www.w3.org/2000/svg">
<path fill-rule="evenodd" clip-rule="evenodd" d="M18.8002 27.7904C16.6118 27.1578 12.1317 25.3742 8.07013 20.6878C4.00859 16.0014 2.46284 10.832 1.91453 8.30692C1.59943 6.85578 2.16684 5.45547 3.12897 4.66251L5.65124 2.58371C7.12704 1.36739 9.18006 1.78013 10.2124 3.50068L11.8003 6.14725C12.4744 7.27067 12.2419 8.81042 11.2783 9.60461L10.0121 10.6482C10.2037 11.4939 10.7997 13.2308 12.6663 15.3845C14.5329 17.5383 16.0382 18.226 16.7712 18.4471L17.6756 16.9861C18.3639 15.8742 19.6983 15.606 20.6719 16.3837L22.9656 18.216C24.4568 19.4071 24.8145 21.776 23.7603 23.4788L21.9587 26.3891C21.2715 27.4993 20.0579 28.154 18.8002 27.7904ZM9.60219 18.92C13.2957 23.1818 17.3717 24.8002 19.3268 25.3654C19.6126 25.448 19.958 25.3198 20.1956 24.936L21.9973 22.0257C22.3486 21.4581 22.2294 20.6685 21.7324 20.2714L19.4387 18.4392L18.4681 20.007C18.0715 20.6477 17.3379 21.1503 16.4838 20.9377C15.4178 20.6723 13.4473 19.8211 11.1343 17.1523C8.82124 14.4834 8.08359 12.2097 7.85358 10.9797C7.6693 9.99417 8.10485 9.14781 8.66014 8.69015L10.0189 7.57028L8.43098 4.9237C8.08687 4.35019 7.40252 4.21261 6.91059 4.61805L4.38832 6.69684C4.0557 6.97098 3.94464 7.36961 4.01624 7.69933C4.5061 9.95527 5.9087 14.6583 9.60219 18.92Z" fill="#103242"/>
</svg>
