<svg width="181" height="178" viewBox="0 0 181 178" fill="none" xmlns="http://www.w3.org/2000/svg">
<path d="M61.5399 115.344C61.3025 115.342 61.0682 115.283 60.8591 115.173C60.3884 114.926 60.0935 114.444 60.0915 113.92V101.104C56.1229 100.748 52.4344 98.9408 49.7538 96.0414C47.0732 93.142 45.5954 89.3585 45.6115 85.4399V42.7199C45.6115 38.5659 47.2902 34.5818 50.2769 31.6435C53.2647 28.7062 57.3159 27.0554 61.54 27.0554H119.46C123.684 27.0554 127.735 28.7063 130.723 31.6435C133.71 34.5818 135.388 38.5659 135.388 42.7199V85.4399C135.388 89.5939 133.71 93.5781 130.723 96.5164C127.735 99.4536 123.684 101.104 119.46 101.104H83.6504L62.3353 115.102C62.1 115.258 61.8232 115.341 61.5394 115.344L61.5399 115.344ZM61.5399 29.9041C58.0835 29.9041 54.7684 31.254 52.3252 33.6578C49.8809 36.0606 48.5081 39.3208 48.5081 42.7198V85.4398C48.5081 88.8388 49.8808 92.099 52.3252 94.5018C54.7685 96.9056 58.0835 98.2556 61.5399 98.2556C61.9247 98.2536 62.2944 98.4026 62.5681 98.6688C62.8327 98.9419 62.9822 99.3025 62.9883 99.68V111.257L82.4065 98.4413H82.4055C82.664 98.2943 82.963 98.2298 83.26 98.2556H119.46C122.916 98.2556 126.231 96.9057 128.675 94.5018C131.119 92.099 132.492 88.8389 132.492 85.4398V42.7199C132.492 39.3208 131.119 36.0606 128.675 33.6579C126.231 31.2541 122.916 29.9041 119.46 29.9041L61.5399 29.9041Z" fill="#FFF6E0"/>
<path d="M90.4997 75.4721C89.6997 75.4721 89.0513 74.8344 89.0513 74.0477V66.9277C89.0513 66.141 89.6997 65.5043 90.4997 65.5043C92.9955 65.5043 95.3903 64.5289 97.1548 62.7926C98.9204 61.0573 99.9112 58.7032 99.9112 56.2478C99.9112 53.7934 98.9204 51.4393 97.1548 49.703C95.3903 47.9677 92.9954 46.9923 90.4997 46.9923C88.004 46.9923 85.6091 47.9677 83.8446 49.703C82.0791 51.4393 81.0882 53.7934 81.0882 56.2478C81.0882 57.0345 80.4398 57.6722 79.6398 57.6722C78.8398 57.6722 78.1914 57.0345 78.1914 56.2478C78.1914 53.1198 79.4226 50.1132 81.6265 47.8584C83.8304 45.6036 86.8373 44.2755 90.0148 44.1525C93.1935 44.0293 96.2963 45.1209 98.6739 47.198C101.052 49.276 102.52 52.1775 102.77 55.2955C103.019 58.4146 102.032 61.5067 100.014 63.9244C97.9973 66.3431 95.1066 67.8987 91.9482 68.2671V74.0481C91.9482 74.4255 91.7957 74.7881 91.524 75.0553C91.2523 75.3225 90.8836 75.4725 90.4998 75.4725L90.4997 75.4721Z" fill="#FFF6E0"/>
<path d="M90.4997 84.0162C89.3281 84.0162 88.2726 83.3229 87.824 82.258C87.3756 81.1942 87.624 79.9695 88.4523 79.155C89.2805 78.3405 90.5259 78.0961 91.6076 78.5372C92.6904 78.9782 93.3954 80.0172 93.3954 81.1685C93.3954 81.9244 93.0904 82.6485 92.547 83.1829C92.0046 83.7163 91.2674 84.0162 90.4997 84.0162Z" fill="#FFF6E0"/>
<path d="M104.817 167.11V168.123C104.647 168.007 104.475 167.92 104.3 167.865C104.127 167.809 103.948 167.781 103.763 167.781C103.409 167.781 103.133 167.883 102.934 168.087C102.737 168.289 102.639 168.572 102.639 168.937C102.639 169.301 102.737 169.584 102.934 169.788C103.133 169.989 103.409 170.09 103.763 170.09C103.958 170.09 104.146 170.062 104.324 170.006C104.502 169.948 104.666 169.862 104.817 169.748V170.765C104.62 170.837 104.419 170.889 104.215 170.924C104.013 170.961 103.808 170.98 103.601 170.98C102.887 170.98 102.328 170.8 101.924 170.439C101.522 170.08 101.322 169.579 101.322 168.937C101.322 168.294 101.522 167.792 101.924 167.431C102.328 167.072 102.887 166.891 103.601 166.891C103.808 166.891 104.013 166.91 104.215 166.947C104.417 166.982 104.617 167.036 104.817 167.11Z" fill="#FFF6E0"/>
<path d="M107.293 165.882V166.986H108.598V167.876H107.293V169.529C107.293 169.71 107.33 169.831 107.402 169.895C107.475 169.958 107.619 169.99 107.835 169.99H108.485V170.88H107.402C106.901 170.88 106.546 170.779 106.336 170.574C106.128 170.368 106.025 170.02 106.025 169.529V167.876H105.398V166.986H106.025V165.882H107.293Z" fill="#FFF6E0"/>
</svg>
