<svg width="28" height="27" viewBox="0 0 28 27" fill="none" xmlns="http://www.w3.org/2000/svg">
<path d="M0.75 3.99992C0.75 1.8368 2.50355 0.083252 4.66667 0.083252H18C20.1631 0.083252 21.9167 1.8368 21.9167 3.99992V5.41659H23.3333C25.4964 5.41659 27.25 7.17014 27.25 9.33325V17.3333C27.25 19.4964 25.4964 21.2499 23.3333 21.2499H21.9167V25.3333C21.9167 25.8388 21.6121 26.2946 21.145 26.4881C20.6779 26.6816 20.1403 26.5746 19.7828 26.2171L14.8156 21.2499H10C9.37491 21.2499 8.78336 21.1029 8.2588 20.8422L8.21722 20.8838C7.85972 21.2413 7.32207 21.3482 6.85498 21.1548C6.38789 20.9613 6.08333 20.5055 6.08333 19.9999V15.9166H4.66667C2.50355 15.9166 0.75 14.163 0.75 11.9999V3.99992ZM10.3511 18.7499H15.3333C15.6649 18.7499 15.9828 18.8816 16.2172 19.116L19.4167 22.3155V19.9999C19.4167 19.3096 19.9763 18.7499 20.6667 18.7499H23.3333C24.1157 18.7499 24.75 18.1157 24.75 17.3333V9.33325C24.75 8.55085 24.1157 7.91659 23.3333 7.91659H21.9167V11.9999C21.9167 14.163 20.1631 15.9166 18 15.9166H13.1844L10.3511 18.7499ZM19.4167 3.99992C19.4167 3.21752 18.7824 2.58325 18 2.58325H4.66667C3.88426 2.58325 3.25 3.21752 3.25 3.99992V11.9999C3.25 12.7823 3.88426 13.4166 4.66667 13.4166H7.33333C8.02369 13.4166 8.58333 13.9762 8.58333 14.6666V16.9822L11.7828 13.7827C12.0172 13.5483 12.3351 13.4166 12.6667 13.4166H18C18.7824 13.4166 19.4167 12.7823 19.4167 11.9999V3.99992Z" fill="#13151A"/>
</svg>
