<svg width="51" height="52" viewBox="0 0 51 52" fill="none" xmlns="http://www.w3.org/2000/svg">
<path fill-rule="evenodd" clip-rule="evenodd" d="M12.4438 8.23524C15.2792 6.34586 18.6126 5.3374 22.0226 5.3374V6.93475L22.0227 5.3374C26.5953 5.33769 30.9805 7.14936 34.2139 10.3739C37.4472 13.5985 39.2637 17.9718 39.264 22.5321V22.5322C39.264 25.933 38.2528 29.2574 36.3583 32.0851C34.4638 34.9127 31.7711 37.1166 28.6206 38.418C25.4702 39.7195 22.0035 40.06 18.659 39.3965C15.3145 38.7331 12.2424 37.0954 9.83114 34.6907C7.41989 32.286 5.77781 29.2221 5.11255 25.8867C4.44728 22.5512 4.78872 19.0939 6.09368 15.952C7.39864 12.8101 9.60851 10.1246 12.4438 8.23524ZM22.0226 8.51628C25.7499 8.51654 29.3244 9.9933 31.9599 12.6217C34.5955 15.2502 36.0763 18.815 36.0765 22.5322M22.0225 8.51628C19.243 8.5163 16.5258 9.33832 14.2147 10.8784C11.9036 12.4185 10.1023 14.6074 9.03855 17.1685C7.97484 19.7296 7.69653 22.5477 8.2388 25.2665C8.78107 27.9853 10.1196 30.4827 12.085 32.4429C14.0505 34.403 16.5547 35.7379 19.2809 36.2787C22.0071 36.8195 24.8328 36.542 27.4008 35.4811C29.9688 34.4203 32.1638 32.6239 33.708 30.319C35.2523 28.0141 36.0765 25.3043 36.0765 22.5323" fill="#37616A"/>
<path fill-rule="evenodd" clip-rule="evenodd" d="M32.5703 33.0505C33.1927 32.4298 34.2018 32.4298 34.8242 33.0505L45.7524 43.9491C46.3748 44.5698 46.3748 45.5762 45.7524 46.1969C45.13 46.8176 44.1209 46.8176 43.4985 46.1969L32.5703 35.2983C31.9479 34.6776 31.9479 33.6712 32.5703 33.0505Z" fill="#37616A"/>
</svg>
