<svg width="51" height="52" fill="none" xmlns="http://www.w3.org/2000/svg"><path fill-rule="evenodd" clip-rule="evenodd" d="M12.444 8.235a17.275 17.275 0 0 1 9.579-2.898v1.598-1.598c4.572 0 8.957 1.812 12.19 5.037a17.162 17.162 0 0 1 2.144 21.711 17.231 17.231 0 0 1-7.736 6.333 17.284 17.284 0 0 1-9.962.979 17.256 17.256 0 0 1-8.828-4.706 17.18 17.18 0 0 1-4.718-8.804 17.152 17.152 0 0 1 .98-9.935 17.205 17.205 0 0 1 6.35-7.717zm9.579.281c3.727 0 7.301 1.477 9.937 4.106a13.997 13.997 0 0 1 4.117 9.91M22.023 8.516c-2.78 0-5.497.822-7.808 2.362a14.025 14.025 0 0 0-5.176 6.29 13.98 13.98 0 0 0-.8 8.099 14.005 14.005 0 0 0 3.846 7.176 14.089 14.089 0 0 0 15.316 3.038 14.045 14.045 0 0 0 6.307-5.162 13.988 13.988 0 0 0 2.369-7.787" fill="#37616A"/><path fill-rule="evenodd" clip-rule="evenodd" d="M32.57 33.05a1.597 1.597 0 0 1 2.254 0l10.928 10.9c.623.62.623 1.626 0 2.247-.622.62-1.631.62-2.254 0L32.57 35.298a1.586 1.586 0 0 1 0-2.248z" fill="#37616A"/></svg>