<svg width="44" height="45" viewBox="0 0 44 45" fill="none" xmlns="http://www.w3.org/2000/svg">
<path fill-rule="evenodd" clip-rule="evenodd" d="M2.83366 0.958496C1.77511 0.958496 0.916992 1.83527 0.916992 2.91683C0.916992 3.99839 1.77511 4.87516 2.83366 4.87516H5.1705L12.0019 32.795C9.98811 33.7089 8.58366 35.7703 8.58366 38.1668C8.58366 41.4115 11.158 44.0418 14.3337 44.0418C17.5093 44.0418 20.0837 41.4115 20.0837 38.1668C20.0837 37.4802 19.9684 36.821 19.7565 36.2085H28.0775C27.8656 36.821 27.7503 37.4802 27.7503 38.1668C27.7503 41.4115 30.3247 44.0418 33.5003 44.0418C36.676 44.0418 39.2503 41.4115 39.2503 38.1668C39.2503 34.9222 36.676 32.2918 33.5003 32.2918H15.8301L14.8718 28.3752H33.5003C37.4566 28.3752 39.829 25.8213 41.1454 23.0012C42.4317 20.2456 42.8796 16.952 43.0357 14.5565C43.2532 11.2204 40.5542 8.79183 37.5658 8.79183H10.0801L8.88938 3.92523C8.46277 2.18166 6.9295 0.958496 5.1705 0.958496H2.83366ZM33.5003 24.4585H13.9135L11.0385 12.7085H37.5658C38.6258 12.7085 39.2624 13.505 39.2109 14.2963C39.0652 16.5316 38.6573 19.2332 37.6855 21.3151C36.7437 23.3326 35.4555 24.4585 33.5003 24.4585ZM33.5003 40.1131C32.4483 40.1131 31.5955 39.2417 31.5955 38.1668C31.5955 37.0919 32.4483 36.2206 33.5003 36.2206C34.5523 36.2206 35.4052 37.0919 35.4052 38.1668C35.4052 39.2417 34.5523 40.1131 33.5003 40.1131ZM12.4288 38.1668C12.4288 39.2417 13.2816 40.1131 14.3337 40.1131C15.3857 40.1131 16.2385 39.2417 16.2385 38.1668C16.2385 37.0919 15.3857 36.2206 14.3337 36.2206C13.2816 36.2206 12.4288 37.0919 12.4288 38.1668Z" fill="#37616A"/>
</svg>
