<svg width="44" height="45" fill="none" xmlns="http://www.w3.org/2000/svg"><path fill-rule="evenodd" clip-rule="evenodd" d="M2.834.958C1.775.958.917 1.835.917 2.917c0 1.081.858 1.958 1.917 1.958H5.17l6.832 27.92c-2.014.914-3.418 2.975-3.418 5.372 0 3.244 2.574 5.875 5.75 5.875 3.175 0 5.75-2.63 5.75-5.875a5.98 5.98 0 0 0-.328-1.959h8.322a5.98 5.98 0 0 0-.328 1.959c0 3.244 2.575 5.875 5.75 5.875 3.176 0 5.75-2.63 5.75-5.875s-2.574-5.875-5.75-5.875H15.83l-.958-3.917H33.5c3.957 0 6.329-2.554 7.645-5.374 1.287-2.755 1.735-6.049 1.89-8.445.218-3.336-2.48-5.764-5.47-5.764H10.08L8.89 3.925C8.462 2.182 6.93.958 5.17.958H2.834zm30.666 23.5H13.913l-2.874-11.75h26.527c1.06 0 1.696.797 1.645 1.588-.146 2.236-.554 4.937-1.526 7.02-.941 2.017-2.23 3.143-4.185 3.143zm0 15.655c-1.052 0-1.904-.871-1.904-1.946s.852-1.946 1.904-1.946 1.905.87 1.905 1.946c0 1.075-.853 1.946-1.905 1.946zM12.43 38.167c0 1.075.853 1.946 1.905 1.946s1.904-.871 1.904-1.946-.852-1.946-1.904-1.946-1.905.87-1.905 1.946z" fill="#37616A"/></svg>