<svg width="47" height="47" fill="none" xmlns="http://www.w3.org/2000/svg"><g clip-path="url(#a)"><path d="M13.28 25.25v.032c0 .52-.216.989-.56 1.326-.334.346-.8.56-1.317.56h-.021.002-.002a1.917 1.917 0 0 1-1.917-1.915v-.024c0-.517.215-.983.56-1.316a1.844 1.844 0 0 1 1.325-.562h.034-.002a1.917 1.917 0 0 1 1.898 1.896v.004zm23.537-.025a1.916 1.916 0 1 1-3.835 0v-.033c0-.515.216-.981.56-1.312.35-.34.829-.55 1.358-.55.528 0 1.006.21 1.357.552.346.33.562.797.562 1.314v.033-.002l-.002-.002zm-21.213.02a3.934 3.934 0 0 0-7.869.004 3.933 3.933 0 1 0 7.869-.002v-.002zm23.518-.02a3.934 3.934 0 1 0-1.154 2.785 3.79 3.79 0 0 0 1.154-2.724v-.06zm-21.787.02a5.682 5.682 0 0 1-11.362 0v-.08c0-1.544.642-2.936 1.672-3.927l.002-.002a5.483 5.483 0 0 1 3.93-1.653h.095-.004.08c1.537 0 2.926.635 3.919 1.657l.002.002a5.451 5.451 0 0 1 1.664 3.926v.087-.004l.002-.006zm23.54-.02v.008a5.682 5.682 0 1 1-1.663-4.017 5.448 5.448 0 0 1 1.662 3.925v.088-.004zm-19.664.06.002-.136c0-2.56-1.06-4.87-2.762-6.521l-.002-.002a9.054 9.054 0 0 0-6.523-2.766c-.049 0-.096 0-.145.002h.008-.063c-1.713 0-3.317.47-4.688 1.289l.041-.023c-2.825 1.664-4.694 4.694-4.694 8.158a9.433 9.433 0 0 0 4.65 8.135l.042.023a9.065 9.065 0 0 0 4.648 1.265h.07-.004l.137.002c2.56 0 4.87-1.06 6.521-2.76l.002-.003a9.054 9.054 0 0 0 2.766-6.523c0-.047 0-.096-.002-.143v.008l-.004-.004zm13.63-11.688c-3.251-1.428-7.039-2.26-11.022-2.26-.111 0-.225 0-.337.002h.018a29.056 29.056 0 0 0-11.877 2.315l.19-.073h.033c1.63 0 3.18.343 4.582.958l-.072-.03a11.727 11.727 0 0 1 3.723 2.499 11.894 11.894 0 0 1 2.457 3.656l.03.077c.587 1.33.928 2.88.928 4.51v.035c0-3.17 1.255-6.05 3.294-8.164l-.004.003a11.958 11.958 0 0 1 3.547-2.475l.074-.031a11.067 11.067 0 0 1 4.41-1.02h.014l.012-.002zm9.772 11.687a9.414 9.414 0 0 0-9.414-9.404 9.413 9.413 0 0 0-9.414 9.414c0 5.2 4.215 9.413 9.414 9.413a9.39 9.39 0 0 0 6.662-2.76 9.06 9.06 0 0 0 2.754-6.516c0-.051 0-.104-.002-.155v.008zM39.188 13.74H47a10.828 10.828 0 0 0-1.5 2.271l-.028.063a8.758 8.758 0 0 0-.806 2.277l-.01.06a11.6 11.6 0 0 1 2.24 6.883c0 6.456-5.234 11.691-11.691 11.691a11.67 11.67 0 0 1-9.055-4.297l-.016-.021a43.697 43.697 0 0 0-2.528 3.488l-.106.17c-.374-.652-.736-1.2-1.128-1.727l.031.045a25.113 25.113 0 0 0-1.52-1.988c-2.16 2.593-5.39 4.232-9.004 4.232-6.458 0-11.693-5.235-11.693-11.693 0-2.542.81-4.894 2.188-6.811l-.024.035a8.95 8.95 0 0 0-.84-2.385l.023.049a10.852 10.852 0 0 0-1.545-2.35l.012.013h7.446a24.235 24.235 0 0 1 7.07-3.154l.171-.04c2.6-.73 5.584-1.151 8.666-1.151h.155-.008.21c2.982 0 5.865.417 8.597 1.196l-.222-.052c2.699.75 5.06 1.844 7.191 3.26l-.092-.057.004-.007z" fill="#37616A"/></g><defs><clipPath id="a"><path fill="#fff" d="M0 0h47v47H0z"/></clipPath></defs></svg>