<svg width="47" height="47" viewBox="0 0 47 47" fill="none" xmlns="http://www.w3.org/2000/svg">
<g clip-path="url(#clip0_979_20963)">
<path d="M13.2795 25.2507V25.282C13.2795 25.8029 13.0641 26.2709 12.7194 26.6078C12.3865 26.9544 11.9204 27.1679 11.4034 27.1679C11.3956 27.1679 11.3897 27.1679 11.3819 27.1679H11.3838C11.3838 27.1679 11.3838 27.1679 11.3819 27.1679C10.3244 27.1679 9.46466 26.3101 9.46466 25.2526C9.46466 25.2507 9.46466 25.2507 9.46466 25.2487C9.46466 25.2428 9.46466 25.235 9.46466 25.2291C9.46466 24.7121 9.68007 24.246 10.0247 23.9131C10.3616 23.5665 10.8316 23.3511 11.3505 23.3511H11.3838H11.3819C12.4257 23.3609 13.2677 24.2049 13.2795 25.2467V25.2507ZM36.8167 25.2252C36.8167 26.2847 35.9589 27.1424 34.8995 27.1424C33.84 27.1424 32.9823 26.2847 32.9823 25.2252C32.9823 25.2154 32.9823 25.2037 32.9823 25.1919C32.9823 24.6769 33.1977 24.2108 33.5424 23.8798C33.8929 23.5391 34.3707 23.3295 34.8995 23.3295C35.4282 23.3295 35.9061 23.5391 36.2566 23.8818C36.6032 24.2127 36.8187 24.6788 36.8187 25.1958V25.2291V25.2272L36.8167 25.2252ZM15.604 25.2448C15.6021 23.073 13.8415 21.3144 11.6697 21.3144C9.49795 21.3144 7.73545 23.0749 7.73545 25.2487C7.73545 27.4224 9.49599 29.183 11.6697 29.183C12.7566 29.183 13.7397 28.7424 14.4525 28.0295C15.1634 27.3167 15.6021 26.3317 15.604 25.2467V25.2448ZM39.1217 25.2252C39.1217 23.0534 37.3592 21.2929 35.1874 21.2929C33.0156 21.2929 31.2531 23.0534 31.2531 25.2272C31.2531 27.4009 33.0136 29.1614 35.1874 29.1614C36.2742 29.1614 37.2573 28.7208 37.9682 28.0099C38.6791 27.3187 39.1217 26.3532 39.1217 25.2859C39.1217 25.2644 39.1217 25.2467 39.1217 25.2252ZM17.3352 25.2448C17.3352 28.382 14.7913 30.9259 11.6541 30.9259C8.51682 30.9259 5.97295 28.382 5.97295 25.2448C5.97295 25.2213 5.97295 25.1939 5.97295 25.1645C5.97295 23.6213 6.61528 22.2289 7.64536 21.238L7.64732 21.2361C8.64607 20.2158 10.0384 19.5832 11.5777 19.5832H11.6717H11.6678H11.7481C13.2854 19.5832 14.6738 20.2177 15.6667 21.24L15.6687 21.2419C16.6948 22.2368 17.3332 23.6272 17.3332 25.1684V25.2546V25.2507L17.3352 25.2448ZM40.8744 25.2252V25.233C40.8744 28.3703 38.3305 30.9142 35.1932 30.9142C32.056 30.9142 29.5121 28.3703 29.5121 25.233C29.5121 22.0958 32.056 19.5519 35.1932 19.5519C36.7619 19.5519 38.1836 20.1884 39.2117 21.2165C40.2379 22.2113 40.8744 23.6017 40.8744 25.141V25.2291V25.2252ZM21.2107 25.2859C21.2107 25.2448 21.2127 25.1978 21.2127 25.1488C21.2127 22.5893 20.1532 20.2784 18.4514 18.6276L18.4495 18.6256C16.7967 16.9199 14.4858 15.8604 11.9263 15.8604C11.8773 15.8604 11.8303 15.8604 11.7814 15.8624H11.7892C11.7696 15.8624 11.7481 15.8624 11.7265 15.8624C10.013 15.8624 8.40911 16.3324 7.03828 17.151L7.07941 17.1275C4.25353 18.7921 2.38528 21.8216 2.38528 25.2859C2.38528 28.7502 4.25157 31.7797 7.03436 33.4208L7.07745 33.4443C8.40716 34.2394 10.011 34.7094 11.7246 34.7094H11.7951H11.7912C11.8323 34.7094 11.8793 34.7114 11.9282 34.7114C14.4878 34.7114 16.7986 33.6519 18.4495 31.9501L18.4514 31.9482C20.1572 30.2953 21.2166 27.9845 21.2166 25.4249C21.2166 25.3779 21.2166 25.329 21.2147 25.282V25.2898L21.2107 25.2859ZM34.8407 13.5966C31.5899 12.169 27.8025 11.3367 23.8192 11.3367C23.7076 11.3367 23.594 11.3367 23.4824 11.3387H23.5C23.361 11.3367 23.1984 11.3347 23.0339 11.3347C18.9841 11.3347 15.1262 12.1612 11.6227 13.6534L11.8127 13.5809H11.846C13.4753 13.5809 15.0263 13.9237 16.4285 14.5386L16.356 14.5092C17.8032 15.1261 19.0389 15.9701 20.0788 17.008C21.1089 18.0538 21.949 19.2934 22.5365 20.6642L22.5659 20.7406C23.1534 22.0703 23.4942 23.6213 23.4942 25.2507V25.2859C23.4942 22.1154 24.7494 19.2366 26.7881 17.1216L26.7842 17.1255C27.8005 16.0994 28.999 15.2553 30.3307 14.6502L30.4051 14.6189C31.7015 14.0098 33.2173 13.6377 34.8153 13.5986H34.829L34.8407 13.5966ZM44.6128 25.2839C44.6069 20.0885 40.3946 15.88 35.1991 15.88C29.9997 15.88 25.7854 20.0944 25.7854 25.2937C25.7854 30.4931 29.9997 34.7074 35.1991 34.7074C37.8017 34.7074 40.1557 33.6519 41.8614 31.9462C43.5612 30.2934 44.6148 27.9845 44.6148 25.4308C44.6148 25.3799 44.6148 25.327 44.6128 25.2761V25.2839ZM39.1882 13.7396H47C46.4164 14.4172 45.9073 15.1848 45.4999 16.0112L45.4725 16.0739C45.1181 16.7476 44.8361 17.5289 44.6657 18.3514L44.6559 18.4102C46.0561 20.3137 46.8962 22.7048 46.8962 25.2937C46.8962 31.7504 41.6616 36.985 35.205 36.985C31.5547 36.985 28.294 35.3106 26.1497 32.6884L26.134 32.6669C25.2802 33.7263 24.4126 34.9189 23.6058 36.1547L23.5 36.325C23.126 35.6729 22.7637 35.1246 22.372 34.5978L22.4034 34.6428C21.8263 33.8203 21.3198 33.1577 20.8837 32.6551C18.7237 35.2479 15.4924 36.8871 11.8793 36.8871C5.4207 36.8871 0.186073 31.6524 0.186073 25.1939C0.186073 22.6519 0.996823 20.3 2.37353 18.3828L2.35003 18.418C2.16986 17.5368 1.88786 16.7554 1.50991 16.0328L1.53341 16.0817C1.0967 15.1907 0.585573 14.423 -0.0117188 13.7317L3.12496e-05 13.7454H7.44561C9.52536 12.3727 11.9361 11.2779 14.5152 10.5906L14.6875 10.5514C17.2862 9.82094 20.2707 9.3999 23.3532 9.3999H23.5079H23.5H23.7096C26.6921 9.3999 29.5748 9.81703 32.3067 10.5964L32.0854 10.5436C34.7839 11.2936 37.1457 12.3883 39.2764 13.8042L39.1843 13.7474L39.1882 13.7396Z" fill="#37616A"/>
</g>
<defs>
<clipPath id="clip0_979_20963">
<rect width="47" height="47" fill="white"/>
</clipPath>
</defs>
</svg>
