<svg width="25" height="25" fill="none" xmlns="http://www.w3.org/2000/svg"><path d="M23.55 20.402a11.737 11.737 0 0 0-2.572-3.753 12 12 0 0 0-3.814-2.532c-.012-.006-.025-.009-.038-.015 1.988-1.414 3.281-3.716 3.281-6.313C20.407 3.486 16.864 0 12.492 0S4.577 3.486 4.577 7.789c0 2.597 1.293 4.9 3.281 6.316l-.038.016a11.897 11.897 0 0 0-3.814 2.531 11.788 11.788 0 0 0-2.572 3.753 11.515 11.515 0 0 0-.942 4.337.247.247 0 0 0 .073.182.255.255 0 0 0 .183.076h1.914c.14 0 .253-.11.256-.245a9.292 9.292 0 0 1 2.802-6.416 9.59 9.59 0 0 1 6.772-2.761c2.56 0 4.963.98 6.773 2.76a9.292 9.292 0 0 1 2.802 6.417.25.25 0 0 0 .255.245h1.915a.26.26 0 0 0 .183-.076.25.25 0 0 0 .072-.181 11.545 11.545 0 0 0-.941-4.341zm-11.058-7.211a5.498 5.498 0 0 1-3.88-1.583 5.324 5.324 0 0 1-1.61-3.82c0-1.44.572-2.797 1.61-3.818a5.499 5.499 0 0 1 3.88-1.583c1.465 0 2.844.562 3.881 1.583a5.324 5.324 0 0 1 1.608 3.819 5.324 5.324 0 0 1-1.608 3.819 5.498 5.498 0 0 1-3.88 1.583z" fill="#37616A"/></svg>