<svg width="42" height="42" fill="none" xmlns="http://www.w3.org/2000/svg"><path fill-rule="evenodd" clip-rule="evenodd" d="M21 21.214c4.832 0 8.75-4.212 8.75-9.407S25.832 2.4 21 2.4s-8.75 4.212-8.75 9.407 3.918 9.407 8.75 9.407zm0-3.763c-2.9 0-5.25-2.527-5.25-5.644S18.1 6.163 21 6.163s5.25 2.527 5.25 5.644S23.9 17.45 21 17.45zM33.43 24.82a4.643 4.643 0 0 0-5.577-.7c-.333.192-.626.37-.897.532-.717.433-1.274.769-1.992 1.057-.901.362-2.068.636-3.964.636-1.878 0-3.064-.258-3.98-.608-.809-.309-1.448-.697-2.29-1.209l-.52-.314c-1.827-1.096-4.174-.841-5.698.663-.664.657-1.441 1.505-2.063 2.43-.593.882-1.199 2.055-1.199 3.314v4.276c0 2.834 2.35 5.13 5.25 5.13h21c2.9 0 5.25-2.296 5.25-5.13v-4.276c0-1.276-.622-2.464-1.226-3.354-.634-.934-1.425-1.79-2.094-2.447zm-3.79 2.241a1.082 1.082 0 0 1 1.311.174c.587.575 1.2 1.252 1.657 1.924.487.716.642 1.209.642 1.462v4.276c0 .945-.783 1.71-1.75 1.71h-21c-.967 0-1.75-.765-1.75-1.71v-4.276c0-.248.15-.73.623-1.435.445-.66 1.046-1.328 1.627-1.903.365-.36.92-.43 1.38-.153l.442.268c.844.515 1.79 1.092 2.925 1.526 1.39.53 3.02.842 5.253.842 2.275 0 3.905-.335 5.294-.893 1.007-.404 1.895-.94 2.679-1.414.23-.14.453-.274.666-.398z" fill="#37616A"/></svg>