<svg width="25" height="25" viewBox="0 0 25 25" fill="none" xmlns="http://www.w3.org/2000/svg">
<path d="M23.5506 20.402C22.9486 18.9987 22.0749 17.7239 20.9783 16.6489C19.885 15.5707 18.5899 14.7111 17.1645 14.1175C17.1517 14.1112 17.139 14.108 17.1262 14.1018C19.1145 12.6884 20.407 10.3863 20.407 7.78894C20.407 3.48618 16.8645 2.7358e-09 12.4922 2.00519e-09C8.11988 1.27458e-09 4.57735 3.48618 4.57735 7.78894C4.57735 10.3863 5.86989 12.6884 7.85817 14.1049C7.84541 14.1112 7.83264 14.1143 7.81988 14.1206C6.3901 14.7142 5.10713 15.5653 4.00607 16.652C2.91047 17.7279 2.03695 19.0024 1.43375 20.4052C0.841165 21.7784 0.521571 23.2508 0.492267 24.7425C0.491415 24.776 0.49739 24.8093 0.509839 24.8405C0.522288 24.8718 0.540959 24.9002 0.564753 24.9242C0.588547 24.9482 0.616982 24.9673 0.648382 24.9803C0.679782 24.9933 0.713512 25 0.747585 25L2.66247 25C2.80289 25 2.91459 24.8901 2.91778 24.755C2.98161 22.3304 3.97097 20.0597 5.71989 18.3386C7.52945 16.5578 9.93263 15.5779 12.4922 15.5779C15.0517 15.5779 17.4549 16.5578 19.2645 18.3386C21.0134 20.0597 22.0028 22.3304 22.0666 24.755C22.0698 24.8932 22.1815 25 22.3219 25L24.2368 25C24.2709 25 24.3046 24.9933 24.336 24.9803C24.3674 24.9673 24.3958 24.9482 24.4196 24.9242C24.4434 24.9002 24.4621 24.8718 24.4745 24.8405C24.487 24.8093 24.493 24.776 24.4921 24.7425C24.4602 23.2412 24.1442 21.7808 23.5506 20.402ZM12.4922 13.191C11.0273 13.191 9.64859 12.6288 8.61136 11.608C7.57413 10.5873 7.00286 9.23053 7.00286 7.78894C7.00286 6.34736 7.57413 4.99058 8.61136 3.96985C9.64859 2.94912 11.0273 2.38693 12.4922 2.38693C13.9571 2.38693 15.3358 2.94912 16.373 3.96985C17.4102 4.99058 17.9815 6.34736 17.9815 7.78894C17.9815 9.23053 17.4102 10.5873 16.373 11.608C15.3358 12.6288 13.9571 13.191 12.4922 13.191Z" fill="#37616A"/>
</svg>
