<svg width="42" height="42" viewBox="0 0 42 42" fill="none" xmlns="http://www.w3.org/2000/svg">
<path fill-rule="evenodd" clip-rule="evenodd" d="M21 21.2139C25.8325 21.2139 29.75 17.0022 29.75 11.8069C29.75 6.61155 25.8325 2.3999 21 2.3999C16.1675 2.3999 12.25 6.61155 12.25 11.8069C12.25 17.0022 16.1675 21.2139 21 21.2139ZM21 17.4511C18.1005 17.4511 15.75 14.9241 15.75 11.8069C15.75 8.68969 18.1005 6.1627 21 6.1627C23.8995 6.1627 26.25 8.68969 26.25 11.8069C26.25 14.9241 23.8995 17.4511 21 17.4511Z" fill="#37616A"/>
<path fill-rule="evenodd" clip-rule="evenodd" d="M33.43 24.8205C31.9558 23.3748 29.6747 23.0629 27.8532 24.1192C27.5199 24.3125 27.2267 24.4894 26.9563 24.6525C26.2389 25.0852 25.6822 25.421 24.9644 25.7093C24.0625 26.0714 22.8961 26.345 21 26.345C19.1219 26.345 17.9362 26.0869 17.0207 25.7373C16.2112 25.4283 15.5719 25.04 14.7295 24.5283C14.5652 24.4285 14.3928 24.3238 14.2103 24.2143C12.3828 23.1179 10.0356 23.3727 8.51225 24.8773C7.84776 25.5336 7.07063 26.3824 6.44857 27.3073C5.85556 28.1889 5.25 29.3617 5.25 30.6209V34.8973C5.25 37.7314 7.60084 40.0279 10.5 40.0279H31.5C34.3992 40.0279 36.75 37.7314 36.75 34.8973V30.6209C36.75 29.3451 36.1283 28.1566 35.5242 27.267C34.8897 26.3326 34.0991 25.4766 33.43 24.8205ZM29.6393 27.0611C30.0578 26.8183 30.5865 26.8778 30.951 27.2352C31.5375 27.8104 32.1517 28.4866 32.608 29.1586C33.0948 29.8754 33.25 30.3677 33.25 30.6209V34.8973C33.25 35.8416 32.4668 36.6071 31.5 36.6071H10.5C9.53316 36.6071 8.75 35.8416 8.75 34.8973V30.6209C8.75 30.3727 8.89961 29.8905 9.37322 29.1863C9.8178 28.5254 10.4188 27.8576 11.0001 27.2834C11.3647 26.9233 11.9193 26.8537 12.3793 27.1296C12.5241 27.2165 12.6715 27.3064 12.8221 27.3983C13.6664 27.9135 14.6111 28.4898 15.7471 28.9235C17.1378 29.4545 18.7673 29.7657 21 29.7657C23.2753 29.7657 24.9048 29.4314 26.2945 28.8733C27.301 28.4692 28.1889 27.9325 28.9727 27.4587C29.2038 27.319 29.4259 27.1848 29.6393 27.0611Z" fill="#37616A"/>
</svg>
