<svg width="172" height="164" viewBox="0 0 172 164" fill="none" xmlns="http://www.w3.org/2000/svg">
<path d="M170.396 82C170.396 126.399 132.808 162.5 86.3036 162.5C39.7992 162.5 2.21094 126.399 2.21094 82C2.21094 37.601 39.7992 1.5 86.3036 1.5C132.808 1.5 170.396 37.601 170.396 82Z" stroke="#FFF6E0" stroke-width="3"/>
<path d="M113.727 126.085V88.76H117.937V72.8595H97.8355C100.142 71.1172 101.629 68.4145 101.629 65.3718C101.629 60.1144 97.2024 55.8516 91.7437 55.8516C87.6923 55.8516 84.2147 58.2017 82.6885 61.5607C81.1623 58.2006 77.6847 55.8516 73.6333 55.8516C68.1746 55.8516 63.7485 60.1144 63.7485 65.3718C63.7485 68.4136 65.2354 71.1172 67.5415 72.8595H47.4404V88.76H51.6501V126.085H113.727ZM110.998 123.456H84.0536V88.7597H110.998V123.456ZM115.207 75.4899V86.1312H84.0534V75.4899H115.207ZM84.5903 65.3736C84.5903 61.5744 87.8001 58.4829 91.7449 58.4829C95.6897 58.4829 98.8995 61.5744 98.8995 65.3736C98.8995 69.1729 95.6897 72.2643 91.7449 72.2643H84.5903V65.3736ZM66.4797 65.3736C66.4797 61.5744 69.6895 58.4829 73.6343 58.4829C77.579 58.4829 80.7889 61.5744 80.7889 65.3736V72.2643H73.6343C69.6895 72.2634 66.4797 69.172 66.4797 65.3736ZM50.1716 86.1312V75.4899H81.3232V86.1312H50.1716ZM81.3232 88.7609V123.457L54.3807 123.456V88.76L81.3232 88.7609Z" fill="#FFF6E0"/>
<path d="M131.047 117.177C134.419 117.177 137.161 114.534 137.161 111.287C137.161 108.04 134.418 105.398 131.047 105.398C127.673 105.398 124.932 108.04 124.932 111.287C124.931 114.534 127.673 117.177 131.047 117.177ZM131.047 107.831C133.025 107.831 134.634 109.382 134.634 111.286C134.634 113.192 133.024 114.742 131.047 114.742C129.068 114.742 127.459 113.191 127.459 111.286C127.459 109.38 129.067 107.831 131.047 107.831Z" fill="#FFF6E0"/>
<path d="M62.6593 27.4608C62.6593 24.2135 59.9159 21.572 56.544 21.572C53.1724 21.572 50.4297 24.2142 50.4297 27.4608C50.4297 30.7099 53.1731 33.3505 56.544 33.3505C59.9156 33.3505 62.6593 30.7083 62.6593 27.4608ZM52.9552 27.4608C52.9552 25.5553 54.5647 24.006 56.5423 24.006C58.5199 24.006 60.1304 25.5562 60.1304 27.4608C60.1304 29.3654 58.5199 30.9165 56.5423 30.9165C54.5647 30.9165 52.9552 29.3664 52.9552 27.4608Z" fill="#FFF6E0"/>
<path d="M32.0432 117.786C31.693 117.801 31.3662 117.944 31.1293 118.194C30.8915 118.444 30.7679 118.766 30.7828 119.104C30.8109 119.785 31.3886 120.319 32.0956 120.319C33.5132 120.263 34.7745 119.702 35.7024 118.734C36.6312 117.765 37.1116 116.51 37.0572 115.198C37.002 113.884 36.4187 112.669 35.414 111.775C34.4074 110.88 33.0741 110.421 31.737 110.472H31.736C30.3708 110.525 29.1106 111.086 28.1846 112.053C27.2595 113.021 26.7801 114.279 26.8353 115.596C26.8662 116.297 27.4795 116.857 28.2043 116.809C28.5516 116.796 28.8765 116.651 29.1144 116.403C29.3531 116.153 29.4767 115.83 29.4618 115.493C29.4337 114.852 29.6668 114.24 30.1181 113.77C30.5666 113.301 31.179 113.028 31.8419 113.001C31.8728 113.001 31.9028 113.001 31.9327 113.001C33.2661 113.001 34.3748 114.015 34.428 115.3C34.4561 115.936 34.223 116.545 33.7707 117.017C33.3232 117.49 32.7079 117.761 32.0432 117.786Z" fill="#FFF6E0"/>
<path d="M136.459 73.2532C135.734 73.2532 135.146 73.8222 135.146 74.5202V77.4357C135.146 78.1337 135.734 78.7028 136.459 78.7028C137.184 78.7028 137.775 78.1337 137.775 77.4357V74.5202C137.775 73.8222 137.184 73.2532 136.459 73.2532Z" fill="#FFF6E0"/>
<path d="M136.459 82.3794C135.734 82.3794 135.146 82.9466 135.146 83.6446V86.5611C135.146 87.2591 135.734 87.8263 136.459 87.8263C137.184 87.8263 137.775 87.2591 137.775 86.5611V83.6446C137.775 82.9466 137.184 82.3794 136.459 82.3794Z" fill="#FFF6E0"/>
<path d="M142.711 79.2742H139.684C138.959 79.2742 138.368 79.8432 138.368 80.5412C138.368 81.2392 138.959 81.8064 139.684 81.8064H142.711C143.436 81.8064 144.026 81.2392 144.026 80.5412C144.026 79.8432 143.436 79.2742 142.711 79.2742Z" fill="#FFF6E0"/>
<path d="M130.209 79.2742C129.484 79.2742 128.894 79.8432 128.894 80.5412C128.894 81.2392 129.484 81.8064 130.209 81.8064H133.236C133.961 81.8064 134.552 81.2392 134.552 80.5412C134.552 79.8432 133.961 79.2742 133.236 79.2742H130.209Z" fill="#FFF6E0"/>
<path d="M38.786 32.4557L36.6446 34.5181C36.1315 35.0123 36.1315 35.8149 36.6446 36.3091C37.139 36.787 38.007 36.7897 38.5041 36.3091L40.6455 34.2466C41.1587 33.7525 41.1587 32.9499 40.6455 32.4557C40.389 32.2086 40.0519 32.0859 39.7158 32.0859C39.3787 32.0859 39.0407 32.2095 38.786 32.4557Z" fill="#FFF6E0"/>
<path d="M31.8069 42.7613L33.9483 40.6989C34.1983 40.4599 34.335 40.1416 34.335 39.8034C34.335 39.4661 34.1983 39.1478 33.9483 38.9088C33.6918 38.6617 33.3547 38.5391 33.0195 38.5391C32.6824 38.5391 32.3444 38.6617 32.0897 38.9088L29.9483 40.9712C29.4352 41.4654 29.4352 42.268 29.9483 42.7622C30.4446 43.2401 31.3107 43.2392 31.8069 42.7613Z" fill="#FFF6E0"/>
<path d="M38.789 42.7615C39.2833 43.2412 40.1513 43.2412 40.6485 42.7615C41.1616 42.2673 41.1616 41.4647 40.6485 40.9705L38.5071 38.9081C38.2506 38.661 37.9135 38.5383 37.5773 38.5383C37.2421 38.5383 36.9032 38.661 36.6485 38.9081C36.1354 39.4023 36.1354 40.2049 36.6485 40.699L38.789 42.7615Z" fill="#FFF6E0"/>
<path d="M32.0878 36.3085C32.6009 36.8027 33.4371 36.8 33.9474 36.3085C34.4605 35.8143 34.4605 35.0108 33.9474 34.5166L31.8069 32.4542C31.5504 32.2071 31.2133 32.0845 30.8781 32.0845C30.541 32.0845 30.203 32.2071 29.9483 32.4542C29.4352 32.9484 29.4352 33.751 29.9483 34.2452L32.0878 36.3085Z" fill="#FFF6E0"/>
<path d="M130.908 23.9256L133.05 21.8632C133.3 21.6242 133.437 21.3059 133.437 20.9677C133.437 20.6304 133.3 20.3121 133.05 20.0731C132.793 19.826 132.456 19.7034 132.12 19.7034C131.785 19.7034 131.446 19.826 131.191 20.0731L129.05 22.1355C128.537 22.6297 128.537 23.4323 129.05 23.9265C129.546 24.4053 130.413 24.4044 130.908 23.9256Z" fill="#FFF6E0"/>
<path d="M124.208 30.377L126.35 28.3146C126.6 28.0756 126.736 27.7573 126.736 27.4191C126.736 27.0819 126.6 26.7635 126.35 26.5245C126.102 26.2838 125.771 26.1521 125.42 26.1521C125.07 26.1521 124.739 26.2838 124.491 26.5245L122.349 28.587C121.836 29.0811 121.836 29.8837 122.349 30.3779C122.844 30.8577 123.713 30.8568 124.208 30.377Z" fill="#FFF6E0"/>
<path d="M131.188 30.3765C131.685 30.8563 132.554 30.8545 133.048 30.3765C133.298 30.1375 133.435 29.8192 133.435 29.481C133.435 29.1438 133.298 28.8254 133.048 28.5865L130.907 26.524C130.65 26.277 130.313 26.1543 129.978 26.1543C129.641 26.1543 129.303 26.2769 129.048 26.524C128.535 27.0182 128.535 27.8208 129.048 28.315L131.188 30.3765Z" fill="#FFF6E0"/>
<path d="M124.489 23.9256C124.984 24.4053 125.853 24.4035 126.349 23.9256C126.599 23.6866 126.735 23.3683 126.735 23.0301C126.735 22.6928 126.599 22.3745 126.349 22.1355L124.207 20.0731C123.951 19.826 123.614 19.7034 123.278 19.7034C122.941 19.7034 122.603 19.826 122.349 20.0731C121.836 20.5673 121.836 21.3699 122.349 21.8641L124.489 23.9256Z" fill="#FFF6E0"/>
<path d="M122.312 49.7103C123.164 49.7698 123.994 49.6859 124.743 49.6002C126.467 49.4055 127.484 49.3405 128.448 50.2685C129.41 51.1955 129.342 52.1767 129.139 53.8325C129.05 54.5548 128.963 55.3538 129.025 56.1753C129.109 57.3052 129.486 58.4776 130.613 59.5624L132.543 57.7029C131.581 56.7759 131.649 55.7947 131.852 54.1389C132.063 52.421 132.325 50.2829 130.38 48.409C128.432 46.5332 126.21 46.7848 124.427 46.9877C122.705 47.1852 121.687 47.2493 120.722 46.3195C119.757 45.3898 119.825 44.4059 120.026 42.7483C120.234 41.0286 120.495 38.8904 118.549 37.0147C116.602 35.139 114.382 35.3897 112.596 35.5926C110.877 35.7855 109.856 35.8523 108.89 34.9216L106.959 36.7811C108.085 37.866 109.304 38.2294 110.479 38.3115C111.333 38.371 112.162 38.288 112.912 38.2042C114.631 38.0103 115.655 37.9454 116.618 38.8742C117.584 39.8039 117.515 40.7878 117.314 42.4454C117.227 43.1677 117.14 43.9667 117.202 44.7881C117.289 45.919 117.666 47.0931 118.793 48.179C119.919 49.2657 121.139 49.6291 122.312 49.7103Z" fill="#FFF6E0"/>
<path d="M82.105 37.1006C80.4739 37.8302 78.4457 38.7374 77.8052 41.3157C77.1666 43.8948 78.5515 45.5875 79.6648 46.9475C80.7369 48.2587 81.3277 49.0622 81.0122 50.34L83.6676 50.9514C84.0384 49.4571 83.72 48.2658 83.1779 47.2595C82.7846 46.529 82.2762 45.8915 81.807 45.3206C80.7349 44.0094 80.1441 43.2059 80.4597 41.9281C80.7761 40.6494 81.6816 40.1895 83.2527 39.487C83.939 39.1804 84.6899 38.8332 85.3847 38.3535C86.3407 37.6915 87.1806 36.7672 87.5514 35.2729C87.9222 33.7795 87.6038 32.5891 87.0617 31.5837C86.6684 30.8533 86.16 30.2157 85.6909 29.6449C84.6187 28.3355 84.0279 27.5311 84.3435 26.2549C84.659 24.9798 85.5635 24.5199 87.1338 23.821C87.8202 23.5144 88.5711 23.1681 89.2659 22.6883C90.2219 22.0264 91.0618 21.103 91.4326 19.6114L88.7771 19C88.4616 20.2751 87.5571 20.7333 85.9868 21.434C84.3557 22.1617 82.3275 23.068 81.6889 25.6435C81.0503 28.2217 82.4352 29.9134 83.5485 31.2725C84.6206 32.5819 85.2114 33.3863 84.8959 34.6625C84.5794 35.9385 83.6749 36.3993 82.1045 37.1008L82.105 37.1006Z" fill="#FFF6E0"/>
<path d="M25.7578 85.6252C26.256 84.406 27.2166 84.0723 28.873 83.5916C30.594 83.0911 32.7334 82.4671 33.7401 80.0015C34.7486 77.5334 33.6222 75.6729 32.7158 74.1776C31.845 72.7365 31.375 71.8609 31.8731 70.6408C32.3722 69.418 33.3347 69.0834 34.9931 68.601C36.714 68.0978 38.8544 67.4737 39.8619 65.0056C40.8684 62.5374 39.7439 60.676 38.8394 59.18C37.9686 57.7372 37.4986 56.8624 37.9976 55.6386L36.7261 55.1562L35.4564 54.6755C34.8722 56.1058 35.0135 57.3267 35.404 58.3963C35.6868 59.1737 36.0978 59.8725 36.4789 60.5011C37.3497 61.9422 37.8188 62.8187 37.3207 64.0407C36.8225 65.2635 35.86 65.5981 34.2007 66.0823C33.4769 66.2934 32.6829 66.5359 31.9254 66.9192C30.8842 67.4468 29.9161 68.2484 29.3319 69.6777C28.7494 71.1062 28.8899 72.3264 29.2813 73.3957C29.5641 74.1713 29.9751 74.8711 30.3562 75.5005C31.227 76.9407 31.697 77.8172 31.1989 79.0392C30.7026 80.2584 29.7401 80.5921 28.0837 81.0727C27.36 81.2837 26.5641 81.5254 25.8084 81.9078C24.7654 82.4335 23.7991 83.2343 23.2168 84.662L24.4883 85.1426L25.7578 85.6252Z" fill="#FFF6E0"/>
</svg>
