<svg width="172" height="164" fill="none" xmlns="http://www.w3.org/2000/svg"><path d="M129.177 71.226 117.432 63.1a1.325 1.325 0 0 0-1.491-.013l-11.713 7.788-7.831-22.085-17.318-38.702a1.328 1.328 0 0 0-2.54.543v19.538l-14.492-13.49a1.328 1.328 0 0 0-2.203 1.255l13.06 60.087c.05.217.15.42.297.588l15.777 18.167-36.266 18.509a1.33 1.33 0 0 0 .49 2.508l39.275 3.335.111.003c.09 0 .177-.021.262-.039l4.168 4.661a.673.673 0 0 0 .625.208.663.663 0 0 0 .499-.43l3.623-10.262 22.218-14.851a1.33 1.33 0 0 0 .582-1.252l-2.852-25.355 6.741-.165a1.329 1.329 0 0 0 1.24-.947 1.333 1.333 0 0 0-.518-1.472l.001-.001zm-10.204 1.986 1.369 12.175-14.946-11.844 13.577-.331zm-7.991 22.67-18.794.605c-.037-.054-.047-.12-.09-.171l-16.641-19.16 19.04-25.78 7.798 21.99c.135.387.443.69.83.818.054.018.111.004.168.016l7.689 21.681zM79.193 16.848l12.81 28.616-12.85-11.96c.02-.093.04-.187.04-.285V16.85zM76.96 34.193c.35.324.839.42 1.286.285l15.148 14.097.539 1.201.03.09-18.899 25.586-11.726-53.94 13.622 12.68zM91.697 98.37c.239-.123.407-.327.533-.557l16.886-.543-36.17 19.533-14.891-1.263 33.642-17.17zm.542 20.069-16.876-1.43L112 97.222l8.751 2.16-28.513 19.058zm20.18-22.482-7.475-21.078 15.609 12.37 1.241 11.022-9.375-2.314zm7.781-24.77c-.374.01-.724.175-.97.457-.061.07-.088.156-.133.236l-12.025.293 9.59-6.377 7.65 5.293-4.112.099zM97.263 124.03l-3.222-3.6 5.88-3.928-2.658 7.528z" fill="#FFF6E0"/><path d="M170.5 82c0 44.392-37.764 80.5-84.5 80.5S1.5 126.392 1.5 82 39.264 1.5 86 1.5s84.5 36.108 84.5 80.5z" stroke="#FFF6E0" stroke-width="3"/></svg>