<svg width="172" height="185" viewBox="0 0 172 185" fill="none" xmlns="http://www.w3.org/2000/svg">
<path d="M170.5 82C170.5 126.392 132.736 162.5 86 162.5C39.2638 162.5 1.5 126.392 1.5 82C1.5 37.6076 39.2638 1.5 86 1.5C132.736 1.5 170.5 37.6076 170.5 82Z" stroke="#37616A" stroke-width="3"/>
<path d="M93.6444 32.1876C61.3884 27.215 32.2236 41.9985 27.7884 58.53C27.3853 59.8743 27.3853 61.2177 27.6544 62.6961L28.0575 64.9808C28.3266 66.5933 29.5359 67.8037 31.0143 68.2066C32.6268 68.6098 34.2401 68.2066 35.3156 66.9972C44.1862 57.4544 65.9588 49.9282 90.1508 53.5572C114.343 57.3204 132.756 71.1634 138.4 82.8565C139.073 84.3349 140.551 85.2752 142.164 85.2752H142.298C143.91 85.2752 145.254 84.4689 146.061 82.9905L147.136 80.9749C147.808 79.7655 148.211 78.421 148.346 77.0778C149.286 60.1429 126.035 37.161 93.6447 32.1882L93.6444 32.1876ZM143.641 79.2276L142.566 81.2432H142.432C136.384 68.8784 117.837 53.6912 90.9566 49.5248C64.211 45.3586 41.7662 54.2292 32.2238 64.1741L31.8207 61.8894C31.6867 61.0832 31.6867 60.411 31.8207 59.7388C35.7178 45.2236 63.2703 31.7836 92.9727 36.353C122.675 40.9224 144.851 62.0234 144.179 77.0762C144.178 77.7493 144.044 78.5556 143.641 79.2277L143.641 79.2276Z" fill="#37616A"/>
<path d="M129.126 73.9856C128.992 73.9856 128.992 73.9856 129.126 73.9856C128.992 73.8515 128.857 73.8515 128.857 73.7165C124.556 69.8194 119.314 66.4594 113.535 63.6365C113.401 63.5025 113.401 63.5025 113.266 63.3675H112.997C108.293 61.0828 103.186 59.2013 97.9448 57.8568C95.3909 57.1847 92.7032 56.6475 90.1496 56.2443C87.5957 55.8412 84.908 55.5721 82.2202 55.4381C76.7096 55.169 71.334 55.4381 66.0924 56.1103H65.8234C65.6893 56.1103 65.6893 56.1103 65.5543 56.2443C59.1034 57.1856 53.0556 58.9321 47.813 61.3518C47.679 61.3518 47.679 61.3518 47.544 61.4858C43.6469 63.2333 40.0178 65.383 37.1949 67.8026C36.7918 68.2058 36.5227 68.7439 36.3887 69.2811C36.3887 69.8183 36.6577 70.4905 37.0609 70.8936L69.5857 102.074L72.8115 124.788L72.2743 127.207C71.7371 127.207 71.199 127.341 70.7959 127.744C70.2587 128.147 70.1237 128.819 70.1237 129.492L70.5268 132.045C70.7959 134.33 72.5424 135.943 74.8281 136.347L80.4729 137.288H81.2791C83.1607 137.288 85.0423 136.213 85.8485 134.465L86.9238 132.18C87.1929 131.643 87.1929 130.836 86.9238 130.299C86.6548 129.762 86.2516 129.493 85.7144 129.358L85.9835 126.804L95.9293 106.107L136.384 86.2157C136.921 85.9467 137.325 85.4095 137.459 84.8713C137.593 84.3341 137.593 83.662 137.19 83.1238C135.04 79.898 132.217 76.807 129.126 73.9851L129.126 73.9856ZM124.154 75.3291L100.23 96.2952L113.267 68.2056C117.298 70.3562 120.927 72.775 124.153 75.3288L124.154 75.3291ZM99.2896 62.4271C102.784 63.5025 106.279 64.7118 109.504 66.1903L97.1389 93.0703L99.2896 62.4271ZM83.4308 59.6043C85.4465 59.7383 87.328 60.0074 89.2096 60.2765C91.0911 60.5455 93.1067 60.9486 94.9883 61.3518L92.0324 103.957L84.2372 119.95C83.1619 118.741 81.8185 117.935 80.3401 117.666C78.7276 117.397 77.2492 117.8 75.9049 118.607L73.3511 101.001L83.4308 59.6043ZM76.3076 127.745L76.8448 125.326L77.248 123.714C77.517 122.504 78.5923 121.698 79.9357 121.832C80.742 121.966 81.1451 122.369 81.4142 122.774C81.8173 123.177 81.9514 123.849 81.9514 124.386L81.5482 128.418L76.3076 127.745ZM67.9741 91.3227L51.5773 64.0395C55.4744 62.561 59.6418 61.3517 64.2112 60.5453L67.9741 91.3227ZM79.2644 59.3355L72.0073 89.1723L68.2432 60.0075C71.8722 59.4703 75.5012 59.3355 79.2644 59.3355ZM47.6804 65.7874L61.3895 88.3661L41.4976 69.4155C43.3791 68.072 45.3956 66.8626 47.6804 65.7874ZM107.488 95.6242L127.379 78.2871C129.127 80.0345 130.874 81.7812 132.084 83.5287L107.488 95.6242Z" fill="#37616A"/>
</svg>
