<svg width="172" height="164" fill="none" xmlns="http://www.w3.org/2000/svg"><path d="M170.5 78.643c0 42.482-37.703 77.144-84.5 77.144S1.5 121.125 1.5 78.643C1.5 36.162 39.203 1.5 86 1.5s84.5 34.662 84.5 77.143z" stroke="#FFF6E0" stroke-width="3"/><path d="M72.395 83.119c.196.396.606.627 1.034.627.165 0 .33-.034.49-.107.57-.26.815-.913.544-1.461-.585-1.182-1.169-2.16-1.783-2.989a1.176 1.176 0 0 0-1.596-.258 1.07 1.07 0 0 0-.27 1.53c.538.724 1.054 1.593 1.581 2.658zM90.313 105.294a11.703 11.703 0 0 1-2.983-.696c-.585-.225-1.252.05-1.486.613-.234.562.053 1.201.64 1.425 1.12.428 2.328.71 3.588.84.042.003.082.005.121.005.578 0 1.074-.418 1.137-.982.066-.602-.39-1.142-1.017-1.205zM80.01 96.456a57.861 57.861 0 0 1-1.206-2.981c-.215-.57-.871-.864-1.464-.659-.595.207-.902.835-.688 1.406a60.827 60.827 0 0 0 1.251 3.09c.185.417.61.668 1.054.668.15 0 .3-.028.447-.088.581-.234.854-.879.607-1.436zM82.43 100.809a13.257 13.257 0 0 1-.454-.648c-.338-.51-1.042-.665-1.579-.342a1.071 1.071 0 0 0-.356 1.513c.17.259.346.509.525.751.54.727 1.136 1.394 1.773 1.982.222.205.507.306.792.306.301 0 .6-.114.825-.337a1.066 1.066 0 0 0-.03-1.551 12.151 12.151 0 0 1-1.497-1.674z" fill="#FFF6E0"/><path d="M36.955 125.599c.045 0 .09-.002.134-.008l29.563-3.34 29.562 3.34a.986.986 0 0 0 .267 0l29.697-3.356c.575-.065 1.01-.533 1.01-1.089V38.922c0-.313-.14-.612-.385-.82a1.193 1.193 0 0 0-.894-.27l-29.562 3.34-29.562-3.34c-.045-.005-.088.012-.134.012-.046 0-.09-.017-.135-.012l-29.697 3.356c-.576.066-1.01.533-1.01 1.09V124.5c0 .314.14.612.385.82.212.179.483.277.761.277v.001zm1.145-6.287a9.628 9.628 0 0 0 5.197-.449c3.36-1.263 6.077-4.329 8.076-9.112 3.406-8.146 11.118-10.268 14.136-10.795v21.213L38.1 123.266v-3.954zm29.697-20.69c2.576-.572 9.184-3.03 13.28-13.426 3.704-9.396 11.346-10.486 14.13-10.56v30.301c-.212.051-.449.107-.734.162-.62.117-1.023.694-.9 1.288.108.522.586.884 1.12.884.073 0 .148-.006.223-.02.107-.02.19-.041.288-.061v16.078l-27.408-3.097V98.623zm29.695 24.646v-16.08c.098.021.182.041.288.061.074.015.15.021.223.021.536 0 1.014-.362 1.121-.884.122-.595-.28-1.172-.9-1.289a11.733 11.733 0 0 1-.733-.161V74.642c2.778.099 10.461 1.245 14.128 10.552 4.098 10.397 10.704 12.855 13.281 13.427v21.548l-27.408 3.099zM124.9 75.793c-.316.062-.628.141-.929.246-.594.208-.897.84-.68 1.407.169.445.607.72 1.073.72.13 0 .264-.022.395-.068.046-.017.094-.023.14-.038l-.001 18.3c-1.688-.472-4.833-1.838-7.765-5.75.174-.127.317-.3.392-.514.365-1.035.733-2.06 1.108-3.055.215-.57-.093-1.199-.688-1.405-.594-.204-1.249.089-1.464.658-.264.7-.522 1.428-.781 2.151a28.891 28.891 0 0 1-1.942-4.026c-4.143-10.513-12.989-11.843-16.269-11.963V43.254l27.409-3.097v35.636h.002zm-29.697-3.336c-3.28.12-12.124 1.448-16.27 11.963a28.835 28.835 0 0 1-1.941 4.026c-.259-.723-.517-1.45-.78-2.151-.216-.57-.872-.865-1.465-.659-.595.207-.902.836-.688 1.406.375.994.741 2.02 1.108 3.054.075.214.218.387.392.516-2.933 3.914-6.082 5.28-7.767 5.75V78.064c.046.014.095.02.14.037.13.046.263.068.395.068.465 0 .904-.275 1.073-.72.217-.569-.086-1.198-.68-1.407a6.502 6.502 0 0 0-.928-.245v-35.64L95.2 43.253v29.204h.003zM65.509 40.156V75.23l-.08-.028c-.59-.206-1.25.08-1.468.648-.22.57.082 1.2.675 1.41.343.122.624.216.873.298V96.73c-3.134.485-12.285 2.691-16.26 12.201-1.745 4.177-4.014 6.825-6.743 7.869-1.9.727-3.541.488-4.407.26V60.404l.544.013h.028c.619 0 1.128-.473 1.144-1.07.015-.606-.485-1.11-1.116-1.124l-.6-.014V43.253l27.41-3.097z" fill="#FFF6E0"/><path d="M57.786 74.083a31.802 31.802 0 0 0 2.863 1.536c.164.078.336.114.507.114.422 0 .826-.223 1.026-.61.281-.543.05-1.202-.517-1.47a29.605 29.605 0 0 1-2.653-1.423c-.533-.324-1.24-.174-1.578.338a1.073 1.073 0 0 0 .352 1.515zM50.522 65.092c.215.347.596.539.986.539.198 0 .399-.05.58-.152.545-.309.725-.982.405-1.504-.644-1.045-1.33-1.903-2.1-2.623a1.18 1.18 0 0 0-1.617.018 1.065 1.065 0 0 0 .018 1.55c.622.584 1.187 1.294 1.728 2.172zM42.798 60.617c1.144.111 2.055.278 2.867.525.116.035.231.05.346.05a1.14 1.14 0 0 0 1.09-.765c.19-.579-.143-1.195-.745-1.377-.965-.294-2.023-.49-3.327-.617-.628-.06-1.189.379-1.253.981-.065.603.392 1.142 1.022 1.203zM52.244 68.65c.454.946 1.14 1.877 2.04 2.767.223.223.522.334.82.334.288 0 .575-.103.797-.309a1.065 1.065 0 0 0 .024-1.551c-.718-.711-1.258-1.437-1.601-2.156-.264-.55-.944-.792-1.517-.54-.574.252-.827.904-.563 1.455zM105.367 104.596a11.73 11.73 0 0 1-2.982.696c-.628.065-1.084.604-1.017 1.207.063.562.558.982 1.136.982.04 0 .08-.003.122-.006a14.037 14.037 0 0 0 3.588-.839c.587-.225.874-.863.639-1.425-.234-.564-.901-.84-1.486-.615zM115.358 92.817c-.593-.205-1.249.089-1.464.658a57.02 57.02 0 0 1-1.207 2.981c-.245.557.026 1.202.607 1.438.147.06.297.088.447.088.446 0 .869-.25 1.054-.668a61.28 61.28 0 0 0 1.251-3.09c.214-.572-.094-1.2-.688-1.407zM112.296 99.817c-.538-.32-1.24-.167-1.578.344a14.88 14.88 0 0 1-.453.648 12.06 12.06 0 0 1-1.497 1.672 1.066 1.066 0 0 0-.031 1.551c.224.224.524.337.825.337.285 0 .571-.102.793-.306a14.337 14.337 0 0 0 1.772-1.979c.181-.242.357-.493.528-.753a1.074 1.074 0 0 0-.359-1.514zM118.778 83.64c.159.073.325.106.49.106.428 0 .839-.23 1.034-.626.528-1.065 1.043-1.934 1.581-2.657a1.07 1.07 0 0 0-.27-1.531 1.175 1.175 0 0 0-1.596.258c-.614.83-1.198 1.806-1.783 2.989-.27.547-.027 1.202.544 1.461zM106.29 62.82a1.066 1.066 0 0 0 .005 1.552 1.178 1.178 0 0 0 1.617-.003l3.418-3.294v11.443c0 .605.511 1.097 1.144 1.097.633 0 1.144-.491 1.144-1.097l-.001-11.444 3.417 3.294c.224.215.518.322.811.322.292 0 .584-.107.807-.32a1.067 1.067 0 0 0 .005-1.552l-5.04-4.858v-2.065l3.418 3.293c.223.216.517.323.81.323.292 0 .585-.107.807-.32a1.066 1.066 0 0 0 .005-1.552l-5.039-4.858v-1.607l3.417 3.294c.223.215.517.322.81.322.292 0 .585-.106.807-.319a1.066 1.066 0 0 0 .005-1.553l-5.372-5.177-.001-.001a1.168 1.168 0 0 0-.81-.322c-.317 0-.603.123-.81.322h-.001l-5.373 5.181a1.067 1.067 0 0 0 .005 1.553 1.18 1.18 0 0 0 1.618-.003l3.417-3.294v1.607l-5.039 4.858a1.066 1.066 0 0 0 .004 1.552 1.18 1.18 0 0 0 1.618-.003l3.417-3.293v2.067l-5.04 4.854zM54.559 81.305c.223.215.517.322.81.322.293 0 .586-.106.807-.32.449-.427.451-1.122.005-1.552l-5.372-5.177v-.001a1.168 1.168 0 0 0-.81-.323c-.317 0-.604.124-.81.323h-.001l-5.373 5.178a1.066 1.066 0 0 0 .005 1.553 1.179 1.179 0 0 0 1.618-.003l3.417-3.294v1.609l-5.04 4.857a1.066 1.066 0 0 0 .005 1.553 1.179 1.179 0 0 0 1.618-.003l3.417-3.294V84.8l-5.04 4.858a1.066 1.066 0 0 0 .006 1.553 1.179 1.179 0 0 0 1.617-.004l3.417-3.293v11.442c0 .605.512 1.097 1.144 1.097.633 0 1.145-.49 1.145-1.097l-.002-11.449 3.417 3.294c.224.215.517.322.811.322.292 0 .585-.106.807-.319.448-.427.45-1.122.005-1.552l-5.04-4.858v-2.067l3.417 3.294c.224.215.517.322.811.322.292 0 .585-.107.807-.32.448-.427.45-1.122.005-1.552l-5.04-4.858v-1.608l3.417 3.3z" fill="#FFF6E0"/></svg>