<svg width="181" height="194" fill="none" xmlns="http://www.w3.org/2000/svg"><path d="M175.5 82c0 44.392-37.764 80.5-84.5 80.5S6.5 126.392 6.5 82 44.264 1.5 91 1.5s84.5 36.108 84.5 80.5z" stroke="#FFF6E0" stroke-width="3"/><path d="M61.54 131.344a1.492 1.492 0 0 1-.68-.171 1.424 1.424 0 0 1-.768-1.253v-12.816a16.025 16.025 0 0 1-10.338-5.063 15.52 15.52 0 0 1-4.142-10.601V58.72c0-4.154 1.678-8.138 4.665-11.076a16.069 16.069 0 0 1 11.263-4.589h57.92a16.07 16.07 0 0 1 11.263 4.589 15.536 15.536 0 0 1 4.665 11.076v42.72c0 4.154-1.678 8.138-4.665 11.076a16.066 16.066 0 0 1-11.263 4.588H83.65l-21.315 13.998a1.467 1.467 0 0 1-.796.242zm0-85.44a13.14 13.14 0 0 0-9.215 3.754 12.706 12.706 0 0 0-3.817 9.062v42.72c0 3.399 1.373 6.659 3.817 9.062a13.14 13.14 0 0 0 9.215 3.754c.385-.002.754.147 1.028.413.265.273.414.634.42 1.011v11.577l19.418-12.816a1.47 1.47 0 0 1 .854-.185h36.2c3.456 0 6.771-1.35 9.215-3.754a12.708 12.708 0 0 0 3.817-9.062V58.72c0-3.4-1.373-6.66-3.817-9.062a13.143 13.143 0 0 0-9.215-3.754H61.54z" fill="#FFF6E0"/><path d="M90.5 91.472c-.8 0-1.449-.638-1.449-1.424v-7.12c0-.787.649-1.424 1.449-1.424a9.49 9.49 0 0 0 6.655-2.711 9.174 9.174 0 0 0 2.756-6.545c0-2.455-.99-4.809-2.756-6.545a9.494 9.494 0 0 0-6.655-2.71c-2.496 0-4.89.975-6.655 2.71a9.178 9.178 0 0 0-2.757 6.545c0 .786-.648 1.424-1.448 1.424-.8 0-1.449-.638-1.449-1.424 0-3.128 1.232-6.135 3.435-8.39a12.402 12.402 0 0 1 8.389-3.705 12.434 12.434 0 0 1 8.659 3.045 12.034 12.034 0 0 1 4.096 8.098 11.971 11.971 0 0 1-2.756 8.628 12.36 12.36 0 0 1-8.066 4.343v5.781c0 .377-.152.74-.424 1.007-.272.267-.64.417-1.024.417zM90.5 100.016a2.896 2.896 0 0 1-2.676-1.758 2.812 2.812 0 0 1 .628-3.103 2.93 2.93 0 0 1 3.156-.618 2.848 2.848 0 0 1 1.787 2.631c0 .756-.305 1.48-.848 2.015a2.921 2.921 0 0 1-2.047.833z" fill="#FFF6E0"/></svg>