<svg width="196" height="187" viewBox="0 0 196 187" fill="none" xmlns="http://www.w3.org/2000/svg">
<path d="M194.5 93.5C194.5 144.245 151.363 185.5 98 185.5C44.6373 185.5 1.5 144.245 1.5 93.5C1.5 42.7555 44.6373 1.5 98 1.5C151.363 1.5 194.5 42.7555 194.5 93.5Z" stroke="#FFF6E0" stroke-width="3"/>
<path d="M151.46 105.371L142.594 87.6388H145.581C148.574 87.6355 151.443 86.4455 153.559 84.3291C155.675 82.2137 156.865 79.344 156.868 76.352C156.862 70.6994 154.613 65.281 150.617 61.2844C146.619 57.2869 141.201 55.0388 135.548 55.0322H116.61C116.308 52.281 115.004 49.7372 112.944 47.8864C110.886 46.0363 108.218 45.0084 105.45 45H55.2872C52.295 45.0034 49.4254 46.1934 47.3101 48.3097C45.1938 50.4252 44.0038 53.294 44.0004 56.2868V61.3029C44.0004 61.9957 44.5622 62.5567 45.2542 62.5567C45.9471 62.5567 46.5089 61.9957 46.5089 61.3029V57.5406H135.548C140.535 57.5457 145.317 59.5301 148.844 63.0563C152.371 66.5826 154.354 71.3645 154.359 76.352C154.357 78.679 153.431 80.9104 151.785 82.5563C150.139 84.2015 147.908 85.1278 145.581 85.1304H130.532C128.869 85.132 127.275 85.793 126.099 86.9687C124.924 88.1444 124.263 89.7384 124.261 91.4011V95.1633H119.639H119.64C117.309 95.1701 115.073 94.2438 113.43 92.591L109.276 88.4366V88.4375C107.164 86.3128 104.289 85.1219 101.294 85.1303H46.5084V66.3189C46.5084 65.6269 45.9466 65.0651 45.2538 65.0651C44.5618 65.0651 44 65.6269 44 66.3189V116.484C44.0034 119.476 45.1934 122.345 47.3097 124.461C49.4252 126.577 52.2948 127.767 55.2868 127.771H59.1759C59.5706 131.477 61.7801 134.745 65.0722 136.493C68.3634 138.241 72.3086 138.241 75.5999 136.493C78.8918 134.745 81.1014 131.477 81.4961 127.771H119.373C119.767 131.477 121.977 134.745 125.269 136.493C128.56 138.241 132.505 138.241 135.797 136.493C139.088 134.745 141.298 131.477 141.693 127.771H145.582C146.275 127.771 146.836 127.209 146.836 126.516C146.836 125.824 146.275 125.262 145.582 125.262H141.693C141.363 122.302 139.869 119.595 137.539 117.738H154.36V121.5C154.359 122.498 153.963 123.454 153.258 124.159C152.552 124.864 151.596 125.262 150.598 125.262C149.906 125.262 149.344 125.824 149.344 126.516C149.344 127.209 149.906 127.771 150.598 127.771C152.261 127.769 153.855 127.108 155.03 125.933C156.206 124.757 156.867 123.163 156.869 121.5V111.467C156.855 109.97 156.301 108.527 155.307 107.407C154.312 106.286 152.946 105.562 151.46 105.372L151.46 105.371ZM55.2874 47.5072H105.45C107.556 47.5139 109.589 48.2773 111.178 49.6588C112.766 51.0402 113.805 52.9483 114.103 55.0317H46.6355C46.9336 52.9482 47.9716 51.0403 49.5604 49.6588C51.1485 48.2773 53.1816 47.5139 55.287 47.5072H55.2874ZM126.771 91.4011C126.772 90.4034 127.169 89.4469 127.874 88.7424C128.579 88.037 129.535 87.6397 130.533 87.6389H139.791L148.569 105.196H130.533C129.535 105.195 128.579 104.798 127.874 104.093C127.169 103.388 126.771 102.431 126.77 101.434L126.771 91.4011ZM46.6364 117.737H63.3306C61.0009 119.594 59.507 122.301 59.177 125.262H55.2879C53.1825 125.256 51.1494 124.492 49.5613 123.11C47.9724 121.729 46.9343 119.821 46.6364 117.737ZM70.3366 135.295C68.0087 135.295 65.7756 134.369 64.1288 132.723C62.4828 131.077 61.5582 128.844 61.5582 126.515C61.5582 124.188 62.4828 121.954 64.1288 120.309C65.7756 118.662 68.0087 117.737 70.3366 117.737C72.6644 117.737 74.8975 118.662 76.5443 120.309C78.1903 121.954 79.1149 124.188 79.1149 126.515C79.1124 128.843 78.1861 131.074 76.5409 132.72C74.8949 134.366 72.6636 135.291 70.3366 135.295ZM77.343 117.737H123.527C121.197 119.594 119.703 122.301 119.373 125.262H81.4965C81.1665 122.301 79.6725 119.594 77.343 117.737ZM139.311 126.515C139.311 128.844 138.386 131.077 136.74 132.723C135.093 134.369 132.86 135.295 130.533 135.295C128.205 135.295 125.972 134.369 124.325 132.723C122.679 131.077 121.754 128.844 121.754 126.515C121.754 124.188 122.679 121.954 124.325 120.309C125.972 118.662 128.205 117.737 130.533 117.737C132.86 117.74 135.091 118.666 136.737 120.312C138.382 121.957 139.308 124.188 139.311 126.515ZM46.5095 115.229V87.6393H101.295C103.625 87.6326 105.861 88.5588 107.504 90.2116L111.659 94.366L111.658 94.3652C113.77 96.4898 116.644 97.6807 119.641 97.6723H124.262V101.435C124.264 103.097 124.925 104.691 126.101 105.866C127.276 107.042 128.87 107.704 130.533 107.704H150.598C151.596 107.706 152.552 108.103 153.258 108.808C153.963 109.513 154.36 110.47 154.36 111.467V115.229L46.5095 115.229Z" fill="#FFF6E0"/>
<path d="M130.532 132.786C132.195 132.786 133.79 132.125 134.967 130.95C136.142 129.774 136.803 128.179 136.803 126.515C136.803 124.853 136.142 123.258 134.967 122.082C133.79 120.906 132.195 120.246 130.532 120.246C128.87 120.246 127.275 120.906 126.098 122.082C124.923 123.258 124.262 124.853 124.262 126.515C124.263 128.178 124.924 129.772 126.1 130.948C127.276 132.124 128.87 132.785 130.532 132.786ZM130.532 122.753C131.53 122.753 132.488 123.15 133.193 123.855C133.898 124.561 134.295 125.518 134.295 126.515C134.295 127.514 133.898 128.471 133.193 129.176C132.488 129.881 131.53 130.278 130.532 130.278C129.535 130.278 128.577 129.881 127.872 129.176C127.167 128.471 126.77 127.514 126.77 126.515C126.771 125.519 127.168 124.562 127.874 123.857C128.578 123.151 129.535 122.755 130.532 122.753Z" fill="#FFF6E0"/>
<path d="M70.3362 120.246C68.6734 120.246 67.0787 120.906 65.9021 122.083C64.7263 123.258 64.0654 124.853 64.0654 126.516C64.0654 128.18 64.7263 129.774 65.9021 130.95C67.0786 132.126 68.6735 132.787 70.3362 132.787C71.9989 132.787 73.5937 132.126 74.7703 130.95C75.946 129.774 76.6069 128.18 76.6069 126.516C76.6052 124.854 75.9443 123.259 74.7686 122.084C73.5929 120.909 71.9989 120.247 70.3362 120.246ZM70.3362 130.278C69.3385 130.278 68.3811 129.882 67.6757 129.176C66.9703 128.471 66.5739 127.515 66.5739 126.516C66.5739 125.518 66.9703 124.562 67.6757 123.856C68.3811 123.15 69.3385 122.754 70.3362 122.754C71.3338 122.754 72.2912 123.15 72.9966 123.856C73.7021 124.562 74.0985 125.518 74.0985 126.516C74.0976 127.514 73.7004 128.47 72.995 129.176C72.2904 129.881 71.3338 130.277 70.3362 130.278Z" fill="#FFF6E0"/>
<path d="M125.517 77.6056C127.757 77.6056 129.827 76.4105 130.947 74.4706C132.067 72.5307 132.067 70.1406 130.947 68.1999C129.827 66.26 127.757 65.0649 125.517 65.0649H55.287C53.0464 65.0649 50.9762 66.26 49.8568 68.1999C48.7365 70.1406 48.7365 72.5308 49.8568 74.4706C50.9762 76.4105 53.0464 77.6056 55.287 77.6056H125.517ZM89.1474 75.0971L71.5899 75.0979V67.5734H89.1474V75.0971ZM91.6559 67.5726H109.213V75.0971H91.6559V67.5726ZM129.279 71.3357C129.277 72.3325 128.881 73.289 128.175 73.9944C127.47 74.6998 126.513 75.0962 125.516 75.0979H111.721V67.5733H125.516C126.513 67.5742 127.47 67.9706 128.175 68.676C128.881 69.3814 129.277 70.338 129.279 71.3357ZM51.5243 71.3357C51.5251 70.338 51.9223 69.3815 52.6277 68.6761C53.3323 67.9706 54.2889 67.5743 55.2865 67.5734H69.0818V75.098H55.2865C54.2888 75.0963 53.3323 74.6999 52.6277 73.9945C51.9223 73.2891 51.5251 72.3325 51.5243 71.3357Z" fill="#FFF6E0"/>
<path d="M105.451 95.1636H100.435C99.7419 95.1636 99.1809 95.7254 99.1809 96.4174C99.1809 97.1102 99.7419 97.672 100.435 97.672H105.451C106.795 97.672 108.037 98.3892 108.709 99.5532C109.381 100.717 109.381 102.151 108.709 103.315C108.037 104.479 106.795 105.197 105.451 105.197H91.6563V97.672H95.4186C96.1106 97.672 96.6724 97.1102 96.6724 96.4174C96.6724 95.7254 96.1106 95.1636 95.4186 95.1636H55.287C53.0464 95.1636 50.9762 96.3586 49.8568 98.2985C48.7365 100.239 48.7365 102.629 49.8568 104.569C50.9762 106.509 53.0464 107.704 55.287 107.704H105.45C107.691 107.704 109.761 106.509 110.881 104.569C112 102.629 112 100.239 110.881 98.2985C109.761 96.3586 107.691 95.1636 105.45 95.1636H105.451ZM89.1479 105.197H71.5903V97.672H89.1479V105.197ZM51.5251 101.434C51.5259 100.437 51.9232 99.4801 52.6286 98.7747C53.3332 98.0693 54.2897 97.6729 55.2873 97.6721H69.0826V105.197H55.2873C54.2897 105.195 53.3332 104.799 52.6286 104.093C51.9232 103.388 51.5259 102.431 51.5251 101.434Z" fill="#FFF6E0"/>
</svg>
