<svg width="172" height="164" viewBox="0 0 172 164" fill="none" xmlns="http://www.w3.org/2000/svg">
<path d="M129.177 71.2259L117.432 63.0999C116.981 62.7896 116.392 62.785 115.941 63.087L104.228 70.8747L96.3967 48.7898L79.0789 10.0881C78.8223 9.51752 78.2128 9.20347 77.5894 9.33224C76.9771 9.46378 76.5389 10.0038 76.5389 10.631V30.1685L62.0473 16.6781C61.6212 16.2807 60.9885 16.2094 60.4846 16.4966C59.9798 16.7837 59.7213 17.3655 59.8445 17.9333L72.9049 78.0206C72.9531 78.2383 73.0541 78.4402 73.2013 78.6088L88.9778 96.7761L52.7115 115.285C52.1826 115.555 51.8972 116.142 52.0112 116.725C52.1251 117.307 52.6105 117.742 53.2015 117.793L92.4771 121.128C92.516 121.13 92.5531 121.131 92.5883 121.131C92.6781 121.131 92.7652 121.11 92.8495 121.092L97.018 125.753C97.1477 125.894 97.3265 125.973 97.5136 125.973C97.5571 125.973 97.5988 125.97 97.6433 125.961C97.874 125.916 98.0629 125.753 98.1417 125.531L101.765 115.269L123.983 100.418C124.396 100.142 124.619 99.6588 124.565 99.166L121.713 73.8107L128.454 73.6458C129.027 73.6328 129.528 73.2502 129.694 72.6991C129.856 72.1488 129.648 71.5532 129.176 71.2271L129.177 71.2259ZM118.973 73.2119L120.342 85.3868L105.396 73.5427L118.973 73.2119ZM110.982 95.8814L92.1875 96.4872C92.1514 96.4325 92.1412 96.3668 92.0976 96.3158L75.4568 77.1563L94.4977 51.3765L102.295 73.3668C102.43 73.7531 102.738 74.0551 103.125 74.1838C103.179 74.2024 103.236 74.1875 103.293 74.1996L110.982 95.8814ZM79.193 16.8488L92.0035 45.4648L79.1524 33.5047C79.1738 33.4121 79.1932 33.3176 79.1932 33.2204L79.193 16.8488ZM76.9596 34.1927C77.3098 34.5169 77.7989 34.6132 78.2463 34.478L93.3938 48.575L93.9329 49.7764L93.9635 49.8663L75.0644 75.4516L63.3379 21.5111L76.9596 34.1927ZM91.6968 98.3707C91.9358 98.2484 92.1044 98.0437 92.2304 97.8139L109.116 97.2711L72.9467 116.804L58.0548 115.541L91.6968 98.3707ZM92.2388 118.44L75.3627 117.01L112.001 97.2221L120.752 99.3824L92.2388 118.44ZM112.419 95.9584L104.944 74.8805L120.553 87.2498L121.794 98.2722L112.419 95.9584ZM120.2 71.1889C119.826 71.1981 119.476 71.363 119.23 71.6446C119.169 71.7141 119.142 71.8012 119.097 71.8809L107.072 72.1745L116.662 65.7975L124.312 71.0896L120.2 71.1889ZM97.2633 124.029L94.0415 120.429L99.9219 116.501L97.2633 124.029Z" fill="#FFF6E0"/>
<path d="M170.5 82C170.5 126.392 132.736 162.5 86 162.5C39.2638 162.5 1.5 126.392 1.5 82C1.5 37.6076 39.2638 1.5 86 1.5C132.736 1.5 170.5 37.6076 170.5 82Z" stroke="#FFF6E0" stroke-width="3"/>
</svg>
