<svg width="172" height="164" fill="none" xmlns="http://www.w3.org/2000/svg"><path d="M170.5 82c0 44.392-37.764 80.5-84.5 80.5S1.5 126.392 1.5 82 39.264 1.5 86 1.5s84.5 36.108 84.5 80.5z" stroke="#37616A" stroke-width="3"/><path d="m144.866 57.187-5.226-5.653a1.443 1.443 0 0 0-.902-.457l-13.085-1.462a1.447 1.447 0 0 0-1.185.415l-8.165 8.17-9.591-11.94 11.389-2.882a1.447 1.447 0 0 0-.011-2.811l-20.362-5.003a1.44 1.44 0 0 0-1.312.33L84.91 46.254l-4.483-2.856a1.435 1.435 0 0 0-1.075-.196L28.214 53.935a1.447 1.447 0 0 0-.176 2.786l27.618 9.525 20.384 31.14-30.706 23.856a1.451 1.451 0 0 0-.556 1.036c-.03.408.114.811.397 1.108l4.12 4.308-2.512 2.819a1.445 1.445 0 0 0-.11 1.787l13.744 19.833a1.448 1.448 0 0 0 2.575-.403l3.51-11.494 52.982-43.893c.151-.124.273-.276.362-.45l10.091-19.5 7.101-16.607h6.949a1.447 1.447 0 0 0 .879-2.598zM69.495 106.14l-17.763 19.913-3.353-3.509 21.116-16.404zm-17.15 22.483c.35-.394.436-.928.283-1.403l23.187-25.991.438-.339L65 137.724l-.678.562c-.218.179-.38.421-.461.691l-2.764 9.054-11.394-16.441 2.642-2.967zm83.562-71.707a1.44 1.44 0 0 0-1.157.853l-5.94 13.896-2.392-19.052 10.813 1.21-1.324 3.093zm-19.8 4.896c.413.03.812-.131 1.101-.423l7.865-7.867 2.614 20.782-.026.058-14.932-9.517 3.108-3.108c.088.023.174.069.27.075zm-13.066-15.495 11.658 14.51-3.222 3.222-24.594-15.675 10.87-9.785 5.07 6.308c-.009.02-.02.033-.026.052-.158.468-.064.982.244 1.368zm.9-2.343-3.905-4.859 11.726 2.88-7.821 1.979zm23.105 31.714-.014.027L78.93 96.514l-.177-.271 1.552-49.488 3.975 2.534c.444.281.986.287 1.433.057l41.333 26.342zM77.369 94.132 58.09 64.683l20.78-18.407-1.501 47.856zM76.027 46.86 57.052 63.666l-23.114-7.972 42.089-8.834zm-9.001 89.179L78.24 99.345l.63-.488c.174-.136.297-.31.393-.497l35.9-2.2-48.137 39.879zm15.035-39.3 43.915-18.992-8.569 16.554-.353.294-34.993 2.143zm55.432-39.85.998-2.332 2.158 2.333h-3.156z" fill="#37616A"/></svg>