<svg width="172" height="164" viewBox="0 0 172 164" fill="none" xmlns="http://www.w3.org/2000/svg">
<path d="M170.5 78.6433C170.5 121.125 132.797 155.787 86 155.787C39.2029 155.787 1.5 121.125 1.5 78.6433C1.5 36.1617 39.2029 1.5 86 1.5C132.797 1.5 170.5 36.1617 170.5 78.6433Z" stroke="#FFF6E0" stroke-width="3"/>
<path d="M72.395 83.119C72.5905 83.5154 73.0015 83.7458 73.4292 83.7458C73.5936 83.7458 73.7596 83.7121 73.9192 83.6394C74.4897 83.3792 74.7339 82.7256 74.4626 82.1776C73.8777 80.996 73.2943 80.0186 72.6799 79.189C72.3136 78.6954 71.601 78.5798 71.0839 78.9311C70.5692 79.2824 70.4479 79.9666 70.8142 80.4618C71.352 81.185 71.8675 82.0538 72.395 83.119Z" fill="#FFF6E0"/>
<path d="M90.3125 105.294C89.26 105.186 88.257 104.952 87.3304 104.598C86.7446 104.373 86.0775 104.648 85.8445 105.211C85.6099 105.773 85.8972 106.412 86.4837 106.636C87.6033 107.064 88.8116 107.346 90.0722 107.476C90.1137 107.479 90.1536 107.481 90.1935 107.481C90.7712 107.481 91.2668 107.063 91.3298 106.499C91.3961 105.897 90.9406 105.357 90.3125 105.294Z" fill="#FFF6E0"/>
<path d="M80.0107 96.4555C79.6333 95.6006 79.2375 94.6256 78.8042 93.4745C78.5887 92.9051 77.9328 92.6112 77.3399 92.8163C76.7454 93.023 76.4381 93.6513 76.652 94.2215C77.1005 95.41 77.5098 96.4203 77.9032 97.3112C78.0884 97.729 78.5121 97.9801 78.9566 97.9801C79.1066 97.9801 79.2574 97.9517 79.4043 97.8921C79.9852 97.6579 80.2581 97.0134 80.0107 96.4555Z" fill="#FFF6E0"/>
<path d="M82.4291 100.809C82.2735 100.601 82.1227 100.384 81.9758 100.161C81.6383 99.6502 80.9337 99.4963 80.3974 99.8193C79.8635 100.143 79.704 100.821 80.0407 101.332C80.2115 101.591 80.387 101.841 80.5658 102.083C81.106 102.81 81.7021 103.477 82.3389 104.065C82.5607 104.27 82.8456 104.371 83.1313 104.371C83.4322 104.371 83.7306 104.257 83.9564 104.034C84.3945 103.597 84.3794 102.903 83.9253 102.483C83.3907 101.989 82.8887 101.427 82.4291 100.809Z" fill="#FFF6E0"/>
<path d="M36.9553 125.599C37 125.599 37.0447 125.597 37.0894 125.591L66.6516 122.251L96.2137 125.591C96.2576 125.597 96.3023 125.599 96.347 125.599C96.3917 125.599 96.4364 125.597 96.4811 125.591L126.178 122.235C126.753 122.17 127.188 121.702 127.188 121.146L127.188 38.9225C127.188 38.6087 127.048 38.3103 126.803 38.1021C126.56 37.8939 126.232 37.799 125.909 37.8319L96.347 41.1726L66.7848 37.8319C66.7401 37.8274 66.697 37.8442 66.6507 37.8442C66.6052 37.8442 66.5614 37.8266 66.5159 37.8319L36.8188 41.1879C36.2435 41.2537 35.8086 41.7214 35.8086 42.2777L35.8094 124.501C35.8094 124.815 35.949 125.113 36.194 125.321C36.4055 125.5 36.6768 125.598 36.9553 125.598L36.9553 125.599ZM38.0996 119.312C38.6096 119.408 39.2136 119.482 39.8983 119.482C40.903 119.482 42.0648 119.326 43.297 118.863C46.6565 117.6 49.3737 114.534 51.3726 109.751C54.7785 101.605 62.4911 99.4831 65.509 98.9564V120.169L38.1 123.266L38.0996 119.312ZM67.7966 98.6224C70.3725 98.0499 76.9807 95.5917 81.0777 85.1956C84.7812 75.7997 92.4227 74.7098 95.2061 74.6357V104.937C94.9954 104.988 94.7584 105.044 94.4727 105.099C93.8527 105.216 93.4497 105.793 93.5734 106.387C93.6811 106.909 94.1591 107.271 94.693 107.271C94.7664 107.271 94.8414 107.265 94.9164 107.251C95.0226 107.231 95.1064 107.21 95.2045 107.19V123.268L67.7955 120.171V98.6232L67.7966 98.6224ZM97.4916 123.268V107.188C97.5898 107.209 97.6736 107.229 97.7797 107.249C97.8539 107.264 97.9297 107.27 98.0032 107.27C98.5386 107.27 99.0166 106.908 99.1243 106.386C99.2456 105.791 98.8442 105.214 98.2242 105.097C97.9385 105.044 97.7023 104.989 97.4909 104.936V74.6422C100.269 74.7409 107.952 75.8874 111.619 85.1944C115.717 95.5913 122.323 98.0487 124.9 98.6212V120.169L97.4916 123.268ZM124.901 75.7934C124.585 75.8547 124.273 75.9342 123.972 76.0391C123.378 76.2473 123.075 76.8787 123.292 77.4465C123.461 77.8912 123.899 78.1659 124.365 78.1659C124.495 78.1659 124.629 78.1437 124.76 78.0978C124.806 78.081 124.854 78.0749 124.9 78.0603L124.899 96.3592C123.211 95.8885 120.066 94.5216 117.134 90.61C117.308 90.4829 117.451 90.3092 117.526 90.0957C117.891 89.061 118.259 88.0354 118.634 87.0412C118.849 86.4711 118.541 85.842 117.946 85.6361C117.352 85.4318 116.697 85.7249 116.482 86.2943C116.218 86.9946 115.96 87.7216 115.701 88.4455C115.016 87.2769 114.361 85.9459 113.759 84.4191C109.616 73.9059 100.77 72.5765 97.4903 72.4562V43.2539L124.899 40.1565L124.899 75.793L124.901 75.7934ZM95.2036 72.4574C91.9238 72.5768 83.0797 73.9047 78.9349 84.4203C78.3332 85.9479 77.6773 87.2773 76.9926 88.4459C76.7341 87.7227 76.4763 86.9957 76.2122 86.2947C75.9967 85.7245 75.3408 85.4299 74.7479 85.6365C74.1533 85.8432 73.8461 86.4715 74.06 87.0417C74.435 88.0358 74.8013 89.0614 75.1676 90.0961C75.2434 90.3104 75.3863 90.4834 75.5602 90.6119C72.6269 94.5259 69.478 95.8911 67.7933 96.3619V78.0636C67.8388 78.0782 67.8882 78.0843 67.9329 78.1011C68.063 78.1471 68.1963 78.1693 68.3279 78.1693C68.7932 78.1693 69.2321 77.8938 69.4012 77.4499C69.6183 76.8805 69.315 76.2506 68.7213 76.0424C68.4197 75.936 68.1085 75.858 67.7925 75.7968V40.1564L95.2015 43.2537L95.2007 72.458L95.2036 72.4574ZM65.5086 40.1556V75.2298C65.4799 75.2198 65.4584 75.2122 65.4296 75.2022C64.8383 74.9956 64.1784 75.2826 63.9606 75.8504C63.7411 76.4191 64.0427 77.0497 64.6364 77.2602C64.9788 77.3818 65.2597 77.476 65.5094 77.5579V96.7307C62.3749 97.2159 53.2243 99.4223 49.2487 108.932C47.5043 113.109 45.2355 115.757 42.5056 116.801C40.6056 117.528 38.965 117.289 38.0992 117.061V60.4044L38.6434 60.4174H38.6706C39.2898 60.4174 39.7989 59.9437 39.8149 59.3468C39.8301 58.7414 39.3297 58.2378 38.6985 58.2232L38.0992 58.2087V43.2535L65.5086 40.1556Z" fill="#FFF6E0"/>
<path d="M57.7862 74.083C58.652 74.6095 59.6152 75.1277 60.6494 75.619C60.813 75.6971 60.9854 75.733 61.1562 75.733C61.5775 75.733 61.9821 75.5096 62.1816 75.1231C62.4633 74.5797 62.2318 73.9215 61.6653 73.6529C60.7029 73.1945 59.81 72.7161 59.012 72.2301C58.479 71.9057 57.7719 72.0564 57.4336 72.5684C57.0952 73.0804 57.2547 73.7585 57.7862 74.083Z" fill="#FFF6E0"/>
<path d="M50.5215 65.0921C50.737 65.4388 51.1176 65.6309 51.5078 65.6309C51.7057 65.6309 51.9068 65.5811 52.0888 65.4786C52.633 65.1702 52.8126 64.4974 52.4926 63.9755C51.8486 62.9301 51.1623 62.0721 50.3931 61.3519C49.9423 60.9286 49.2169 60.9371 48.7756 61.3695C48.3327 61.8026 48.3423 62.4976 48.7939 62.9208C49.4164 63.504 49.9813 64.2143 50.5215 65.0921Z" fill="#FFF6E0"/>
<path d="M42.7978 60.6172C43.9422 60.7282 44.8528 60.895 45.665 61.1415C45.7807 61.1767 45.8964 61.1927 46.0105 61.1927C46.4965 61.1927 46.9466 60.8943 47.1006 60.4266C47.2913 59.8481 46.9577 59.232 46.3561 59.0498C45.3905 58.756 44.3332 58.5608 43.0293 58.433C42.4012 58.3725 41.8403 58.8118 41.7756 59.4141C41.711 60.0172 42.1682 60.556 42.7978 60.6172Z" fill="#FFF6E0"/>
<path d="M52.2444 68.6501C52.6976 69.596 53.3839 70.5274 54.2833 71.4175C54.5067 71.6402 54.8059 71.7512 55.1044 71.7512C55.3916 71.7512 55.6789 71.6478 55.9008 71.442C56.354 71.0203 56.3652 70.3254 55.9247 69.8906C55.2073 69.1797 54.6671 68.4541 54.3239 67.7347C54.0598 67.1852 53.3799 66.9434 52.807 67.1959C52.2332 67.4469 51.9802 68.099 52.2444 68.6501Z" fill="#FFF6E0"/>
<path d="M105.367 104.596C104.439 104.95 103.436 105.184 102.385 105.292C101.757 105.357 101.301 105.896 101.368 106.499C101.431 107.061 101.926 107.481 102.504 107.481C102.544 107.481 102.584 107.478 102.626 107.475C103.886 107.347 105.093 107.064 106.214 106.636C106.801 106.411 107.088 105.773 106.853 105.211C106.619 104.647 105.952 104.371 105.367 104.596Z" fill="#FFF6E0"/>
<path d="M115.358 92.8172C114.765 92.6121 114.109 92.906 113.894 93.4754C113.461 94.6264 113.065 95.6015 112.687 96.4563C112.442 97.0135 112.713 97.6579 113.294 97.8944C113.441 97.9533 113.591 97.9824 113.741 97.9824C114.187 97.9824 114.61 97.7314 114.795 97.3135C115.188 96.4226 115.598 95.4109 116.046 94.2238C116.26 93.6521 115.952 93.0238 115.358 92.8172Z" fill="#FFF6E0"/>
<path d="M112.296 99.8175C111.758 99.4961 111.056 99.6499 110.718 100.161C110.571 100.384 110.42 100.599 110.265 100.809C109.807 101.425 109.304 101.987 108.768 102.481C108.314 102.901 108.299 103.596 108.737 104.032C108.961 104.256 109.261 104.369 109.562 104.369C109.847 104.369 110.133 104.267 110.355 104.063C110.992 103.476 111.588 102.808 112.127 102.084C112.308 101.842 112.484 101.591 112.655 101.331C112.99 100.819 112.83 100.141 112.296 99.8175Z" fill="#FFF6E0"/>
<path d="M118.778 83.6402C118.937 83.7129 119.103 83.7465 119.268 83.7465C119.696 83.7465 120.107 83.5154 120.302 83.1197C120.83 82.0552 121.345 81.1858 121.883 80.4626C122.248 79.969 122.128 79.2833 121.613 78.932C121.097 78.5799 120.383 78.6963 120.017 79.1899C119.403 80.0195 118.819 80.9961 118.234 82.1785C117.964 82.7265 118.207 83.3807 118.778 83.6402Z" fill="#FFF6E0"/>
<path d="M106.29 62.8194C105.844 63.2495 105.846 63.9437 106.295 64.3722C106.744 64.8001 107.467 64.7978 107.912 64.3692L111.33 61.0753V72.5176C111.33 73.123 111.841 73.6151 112.474 73.6151C113.107 73.6151 113.618 73.1238 113.618 72.5176L113.617 61.0738L117.034 64.3676C117.258 64.5827 117.552 64.6898 117.845 64.6898C118.137 64.6898 118.429 64.5834 118.652 64.3707C119.1 63.9429 119.103 63.2479 118.657 62.8178L113.617 57.9603V55.8947L117.035 59.1885C117.258 59.4036 117.552 59.5107 117.845 59.5107C118.137 59.5107 118.43 59.4044 118.652 59.1916C119.101 58.7638 119.103 58.0689 118.657 57.6388L113.618 52.7812V51.1741L117.035 54.4679C117.258 54.683 117.552 54.7901 117.845 54.7901C118.137 54.7901 118.43 54.6837 118.652 54.471C119.101 54.0431 119.103 53.3482 118.657 52.9181L113.285 47.7407C113.285 47.7407 113.284 47.7407 113.284 47.7399C113.077 47.5417 112.791 47.4177 112.474 47.4177C112.157 47.4177 111.871 47.5409 111.664 47.7399C111.664 47.7399 111.663 47.7399 111.663 47.7407L106.29 52.9211C105.844 53.3512 105.847 54.0453 106.295 54.4739C106.743 54.9017 107.467 54.8994 107.913 54.4708L111.33 51.177V52.7842L106.291 57.6417C105.844 58.0718 105.847 58.7659 106.295 59.1945C106.743 59.6223 107.468 59.6201 107.913 59.1915L111.33 55.8976V57.9648L106.29 62.8194Z" fill="#FFF6E0"/>
<path d="M54.5589 81.3047C54.7823 81.5198 55.076 81.6269 55.3696 81.6269C55.6617 81.6269 55.9546 81.5206 56.1764 81.3078C56.6249 80.88 56.6273 80.1851 56.1812 79.7549L50.8091 74.5775C50.8091 74.5775 50.8083 74.5775 50.8083 74.5767C50.6016 74.3785 50.3151 74.2545 49.9983 74.2545C49.6816 74.2545 49.3951 74.3777 49.1884 74.5767C49.1884 74.5767 49.1876 74.5767 49.1876 74.5775L43.8155 79.7549C43.3694 80.1851 43.3718 80.8792 43.8203 81.3078C44.268 81.7356 44.9925 81.7333 45.4378 81.3047L48.8549 78.0109V79.6196L43.8156 84.4771C43.3695 84.9072 43.3719 85.6014 43.8204 86.0299C44.268 86.4578 44.9926 86.4555 45.4379 86.0269L48.855 82.733V84.8002L43.8157 89.6577C43.3696 90.0878 43.372 90.782 43.8205 91.2106C44.2681 91.6384 44.9927 91.6361 45.438 91.2075L48.8551 87.9137V99.356C48.8551 99.9613 49.3666 100.453 49.9994 100.453C50.6322 100.453 51.1437 99.9621 51.1437 99.356L51.1421 87.9074L54.5592 91.2012C54.7827 91.4163 55.0763 91.5234 55.37 91.5234C55.6621 91.5234 55.9549 91.4171 56.1768 91.2043C56.6252 90.7765 56.6276 90.0816 56.1815 89.6515L51.1422 84.7939V82.7268L54.5593 86.0206C54.7828 86.2357 55.0764 86.3428 55.3701 86.3428C55.6621 86.3428 55.955 86.2364 56.1768 86.0237C56.6253 85.5958 56.6277 84.9009 56.1816 84.4708L51.1423 79.6133V78.0046L54.5589 81.3047Z" fill="#FFF6E0"/>
</svg>
