<svg width="196" height="187" viewBox="0 0 196 187" fill="none" xmlns="http://www.w3.org/2000/svg">
<path d="M194.5 93.5C194.5 144.245 151.363 185.5 98 185.5C44.6373 185.5 1.5 144.245 1.5 93.5C1.5 42.7555 44.6373 1.5 98 1.5C151.363 1.5 194.5 42.7555 194.5 93.5Z" stroke="#FFF6E0" stroke-width="3"/>
<path fill-rule="evenodd" clip-rule="evenodd" d="M128.049 71.5768C126.478 70.4949 125.446 68.6836 125.446 66.6339C125.446 63.3252 128.132 60.639 131.441 60.639C133.638 60.639 135.561 61.8255 136.606 63.5903C136.851 64.0065 137.256 64.3024 137.726 64.4102C138.196 64.5196 138.69 64.4299 139.093 64.1655C139.539 63.8704 140.074 63.7005 140.648 63.7005C142.187 63.7005 143.441 64.9264 143.486 66.4536C143.502 67.0296 143.798 67.5607 144.28 67.8762C144.761 68.1925 145.366 68.2531 145.901 68.0399C146.225 67.9092 146.58 67.8392 146.951 67.8392C148.518 67.8392 149.79 69.1107 149.79 70.6781C149.79 71.2069 149.645 71.7018 149.392 72.1259C148.894 72.9615 149.168 74.045 150.004 74.5431C150.839 75.0411 151.923 74.7673 152.421 73.9309C152.988 72.9788 153.315 71.8663 153.315 70.6782C153.315 67.1657 150.463 64.3143 146.951 64.3143C146.838 64.3143 146.725 64.3174 146.613 64.3237C145.713 61.902 143.381 60.1763 140.648 60.1763C139.968 60.1763 139.315 60.2833 138.701 60.4808C136.955 58.4224 134.349 57.1147 131.441 57.1147C126.186 57.1147 121.921 61.381 121.921 66.6347C121.921 69.8898 123.557 72.7649 126.051 74.4809C126.852 75.0317 127.951 74.8303 128.502 74.0285C129.054 73.2275 128.851 72.1283 128.05 71.5775L128.049 71.5768Z" fill="#FFF6E0"/>
<path fill-rule="evenodd" clip-rule="evenodd" d="M47.8159 54.2117C46.2438 53.1298 45.2123 51.3186 45.2123 49.2689C45.2123 45.961 47.8985 43.2756 51.2072 43.2756C53.4048 43.2756 55.3278 44.4613 56.3712 46.2269C56.6167 46.6415 57.0219 46.9374 57.4924 47.0468C57.9614 47.1546 58.4563 47.0664 58.8576 46.8013C59.3053 46.5062 59.8395 46.3362 60.4147 46.3362C61.953 46.3362 63.2079 47.5629 63.2521 49.0902C63.2686 49.6646 63.5644 50.1957 64.046 50.512C64.5267 50.8283 65.1318 50.8889 65.666 50.6756C65.9918 50.5466 66.3467 50.475 66.7165 50.475C68.283 50.475 69.5554 51.7473 69.5554 53.3139C69.5554 53.8427 69.4106 54.3384 69.158 54.7625C68.66 55.5981 68.9338 56.68 69.7694 57.178C70.605 57.6761 71.6885 57.4023 72.1849 56.5666C72.7538 55.6138 73.0804 54.5012 73.0804 53.3132C73.0804 49.8007 70.2289 46.9492 66.7164 46.9492C66.6039 46.9492 66.4906 46.9524 66.3789 46.9587C65.4787 44.5383 63.1465 42.8113 60.4132 42.8113C59.7341 42.8113 59.0795 42.9183 58.4665 43.1158C56.7205 41.0574 54.1147 39.7505 51.2064 39.7505C45.952 39.7505 41.6865 44.0159 41.6865 49.2688C41.6865 52.5239 43.3223 55.3991 45.8166 57.115C46.6176 57.6674 47.7168 57.4644 48.2676 56.6626C48.82 55.8616 48.617 54.7624 47.8152 54.2116L47.8159 54.2117Z" fill="#FFF6E0"/>
<path fill-rule="evenodd" clip-rule="evenodd" d="M145.299 119.18L95.1837 46.8958C94.1954 45.4709 92.5714 44.6211 90.8389 44.6211C89.1047 44.6211 87.4807 45.4709 86.4941 46.8958L54.6522 92.8215C54.0991 93.6202 54.2974 94.7202 55.096 95.2741C55.8962 95.8289 56.9946 95.6298 57.5494 94.8304L89.3912 48.9047C89.7201 48.4302 90.2623 48.1469 90.8398 48.1469C91.4181 48.1469 91.9587 48.4302 92.2883 48.9047L142.404 121.189C142.958 121.988 144.057 122.188 144.857 121.633C145.656 121.078 145.855 119.98 145.301 119.18H145.299Z" fill="#FFF6E0"/>
<path fill-rule="evenodd" clip-rule="evenodd" d="M79.7142 72.2075C80.1123 72.0572 80.5529 72.0572 80.9511 72.2075C82.9732 72.9652 86.9609 74.4611 88.9822 75.2187C90.1798 75.6687 91.4993 75.6687 92.6962 75.2187C94.7183 74.461 98.706 72.9651 100.727 72.2075C101.127 72.0572 101.566 72.0572 101.966 72.2075C104.745 73.2501 111.236 75.6846 111.236 75.6846C112.146 76.0253 113.162 75.5634 113.505 74.653C113.847 73.7427 113.384 72.7245 112.473 72.3838C112.473 72.3838 105.983 69.9493 103.204 68.9067C102.008 68.4582 100.688 68.4582 99.4904 68.9067C97.4683 69.6644 93.4806 71.1603 91.4593 71.9195C91.0595 72.069 90.6205 72.069 90.2208 71.9195C88.1986 71.1602 84.2118 69.6645 82.1896 68.9067C80.9921 68.4582 79.6726 68.4582 78.4757 68.9067C77.5653 69.249 77.1035 70.2648 77.4442 71.176C77.7864 72.0863 78.8037 72.5482 79.7142 72.2075Z" fill="#FFF6E0"/>
<path fill-rule="evenodd" clip-rule="evenodd" d="M81.8915 99.2429C69.9845 93.6408 57.9094 91.2236 46.5871 91.9262C46.5769 91.927 46.5675 91.927 46.5564 91.9286C43.8166 92.1473 41.704 94.4339 41.704 97.183C41.6875 104.128 41.6875 120.535 41.6875 127.762C41.6875 130.683 44.0551 133.049 46.975 133.049H148.026C149.428 133.049 150.773 132.492 151.765 131.501C152.756 130.509 153.313 129.165 153.313 127.762V125.58C153.314 123.837 152.456 122.207 151.019 121.221C151.005 121.211 150.991 121.201 150.977 121.192C144.429 116.972 135.211 117.469 126.121 117.886C117.894 118.263 109.767 118.623 104.372 113.988C98.9636 109.339 93.3804 105.429 87.7239 102.251C86.8757 101.774 85.8001 102.075 85.3233 102.924C84.8473 103.772 85.1478 104.848 85.9968 105.323C91.4598 108.393 96.8512 112.172 102.076 116.662C108.097 121.837 117.098 121.83 126.281 121.408C134.582 121.027 143.035 120.296 149.025 124.128C149.51 124.469 149.789 125.006 149.789 125.579V127.763C149.789 128.23 149.603 128.679 149.272 129.009C148.941 129.339 148.494 129.525 148.026 129.525H46.9755C46.003 129.525 45.213 128.737 45.213 127.763C45.213 120.536 45.213 104.135 45.2295 97.1858V97.1827C45.2295 96.2817 45.9132 95.5303 46.8063 95.4446C57.5914 94.7781 69.0682 97.104 80.3905 102.431C81.271 102.846 82.3214 102.466 82.7361 101.586C83.15 100.705 82.7715 99.655 81.8911 99.2418L81.8915 99.2429Z" fill="#FFF6E0"/>
</svg>
