<svg width="196" height="187" viewBox="0 0 196 187" fill="none" xmlns="http://www.w3.org/2000/svg">
<path d="M194.5 93.5C194.5 144.245 151.363 185.5 98 185.5C44.6373 185.5 1.5 144.245 1.5 93.5C1.5 42.7555 44.6373 1.5 98 1.5C151.363 1.5 194.5 42.7555 194.5 93.5Z" stroke="#FFF6E0" stroke-width="3"/>
<path d="M144.059 43H72.1167C69.0515 43.0043 66.1136 44.2233 63.9457 46.3911C61.7787 48.5581 60.5588 51.4969 60.5546 54.5621V73.8323H51.5621C48.4969 73.8366 45.5582 75.0556 43.3911 77.2234C41.2232 79.3904 40.0042 82.3292 40 85.3944C40 86.1033 40.5755 86.6788 41.2844 86.6788C41.9941 86.6788 42.5696 86.1033 42.5696 85.3944C42.5722 83.0098 43.5211 80.7249 45.2065 79.0388C46.8926 77.3526 49.1783 76.4046 51.5621 76.4011H123.505C125.889 76.4045 128.174 77.3525 129.86 79.0388C131.546 80.7249 132.495 83.0098 132.497 85.3944V126.505V126.504C132.495 128.889 131.546 131.174 129.86 132.86C128.174 134.546 125.889 135.494 123.505 135.497H51.5621C49.1783 135.494 46.8925 134.546 45.2065 132.86C43.5212 131.174 42.5723 128.889 42.5696 126.504V90.5337C42.5696 89.824 41.9941 89.2494 41.2844 89.2494C40.5755 89.2494 40 89.824 40 90.5337V126.504C40.0043 129.569 41.2233 132.508 43.3911 134.675C45.5581 136.843 48.4969 138.062 51.5621 138.066H123.505C126.57 138.062 129.508 136.843 131.676 134.675C133.843 132.508 135.063 129.569 135.067 126.504V107.234H144.059C147.125 107.23 150.063 106.011 152.23 103.843C154.398 101.676 155.617 98.7369 155.622 95.6717V80.2556C155.622 79.5467 155.046 78.9712 154.337 78.9712C153.627 78.9712 153.052 79.5467 153.052 80.2556V95.6717C153.049 98.0564 152.1 100.341 150.415 102.027C148.729 103.713 146.443 104.662 144.059 104.665H135.067V102.095H138.921C140.624 102.094 142.257 101.417 143.461 100.212C144.665 99.0079 145.343 97.375 145.344 95.6718V90.5333C145.343 88.83 144.665 87.1973 143.461 85.9928C142.257 84.7884 140.623 84.1114 138.921 84.1097H134.937C134.627 81.2914 133.29 78.6865 131.181 76.7905C129.072 74.8954 126.339 73.8423 123.505 73.8328H63.1242V71.2632H153.051V75.1172C153.051 75.827 153.627 76.4016 154.336 76.4016C155.045 76.4016 155.621 75.8269 155.621 75.1172V54.5627C155.616 51.4975 154.397 48.5587 152.23 46.3917C150.063 44.2238 147.124 43.0047 144.059 43.0005L144.059 43ZM142.775 90.5324V95.6708C142.772 96.6928 142.366 97.6718 141.644 98.3944C140.921 99.1162 139.942 99.5231 138.921 99.5248H135.067V86.6783H138.921C139.942 86.68 140.921 87.0869 141.644 87.8096C142.366 88.5313 142.772 89.5113 142.775 90.5324ZM63.1242 68.6926V60.9845H87.5324C88.2421 60.9845 88.8176 60.4098 88.8176 59.7001C88.8176 58.9904 88.2421 58.4157 87.5324 58.4157H63.1242V54.5617C63.1268 52.177 64.0757 49.8921 65.7619 48.206C67.4472 46.5199 69.7329 45.5719 72.1167 45.5683H144.059C146.443 45.5718 148.729 46.5198 150.415 48.206C152.1 49.8922 153.049 52.177 153.052 54.5617V58.4157H92.6735C91.9637 58.4157 91.3882 58.9904 91.3882 59.7001C91.3882 60.4098 91.9637 60.9845 92.6735 60.9845H153.052V68.6926H63.1242Z" fill="#FFF6E0"/>
<path d="M69.5494 89.249H54.1333C53.1113 89.2507 52.1323 89.6577 51.4097 90.3794C50.6879 91.102 50.281 92.0811 50.2793 93.103V98.2414C50.281 99.2626 50.6879 100.242 51.4097 100.964C52.1323 101.687 53.1113 102.094 54.1333 102.095H69.5494C70.5706 102.094 71.5496 101.687 72.2722 100.964C72.9948 100.242 73.4008 99.2625 73.4034 98.2414V93.103C73.4008 92.081 72.9948 91.102 72.2722 90.3794C71.5495 89.6577 70.5705 89.2507 69.5494 89.249ZM70.8338 93.1031V94.3874H63.1257V91.8178H69.5494C69.8901 91.8178 70.217 91.9537 70.4579 92.1946C70.6988 92.4355 70.8338 92.7624 70.8338 93.1031ZM52.848 98.2415V93.1031C52.848 92.3933 53.4236 91.8178 54.1333 91.8178H60.5561V99.5259H54.1333C53.4235 99.5259 52.848 98.9512 52.848 98.2415ZM69.5486 99.5259H63.1257V96.9562H70.8338V98.2415C70.8338 98.5821 70.6988 98.909 70.4579 99.1499C70.217 99.3908 69.8901 99.5258 69.5494 99.5258L69.5486 99.5259Z" fill="#FFF6E0"/>
<path d="M51.5617 117.511H61.8395C62.5483 117.511 63.1238 116.936 63.1238 116.227C63.1238 115.517 62.5483 114.941 61.8395 114.941H51.5617C50.852 114.941 50.2773 115.517 50.2773 116.227C50.2773 116.936 50.852 117.511 51.5617 117.511Z" fill="#FFF6E0"/>
<path d="M70.833 116.227C70.833 116.568 70.9681 116.895 71.2089 117.136C71.4498 117.376 71.7767 117.512 72.1174 117.512H82.3951C83.1049 117.512 83.6795 116.936 83.6795 116.227C83.6795 115.517 83.1048 114.942 82.3951 114.942H72.1174C71.4085 114.942 70.833 115.517 70.833 116.227Z" fill="#FFF6E0"/>
<path d="M102.95 114.941H92.6729C91.9632 114.941 91.3877 115.516 91.3877 116.226C91.3877 116.935 91.9632 117.511 92.6729 117.511H102.951H102.95C103.66 117.511 104.235 116.935 104.235 116.226C104.235 115.516 103.659 114.941 102.95 114.941Z" fill="#FFF6E0"/>
<path d="M123.505 117.511C124.214 117.511 124.79 116.936 124.79 116.227C124.79 115.517 124.214 114.941 123.505 114.941H113.228C112.518 114.941 111.943 115.517 111.943 116.227C111.943 116.936 112.518 117.511 113.228 117.511H123.505Z" fill="#FFF6E0"/>
<path d="M101.666 126.503C101.666 126.844 101.801 127.171 102.042 127.412C102.283 127.652 102.61 127.788 102.95 127.788H123.506C124.215 127.788 124.79 127.213 124.79 126.503C124.79 125.794 124.215 125.219 123.506 125.219H102.95C102.242 125.219 101.666 125.794 101.666 126.503Z" fill="#FFF6E0"/>
</svg>
