<svg width="172" height="164" fill="none" xmlns="http://www.w3.org/2000/svg"><path d="M170.396 82c0 44.399-37.588 80.5-84.092 80.5C39.799 162.5 2.21 126.399 2.21 82S39.799 1.5 86.304 1.5c46.504 0 84.092 36.101 84.092 80.5z" stroke="#FFF6E0" stroke-width="3"/><path d="M113.727 126.085V88.76h4.21v-15.9H97.835c2.307-1.743 3.794-4.445 3.794-7.488 0-5.258-4.427-9.52-9.885-9.52-4.052 0-7.53 2.35-9.055 5.709-1.527-3.36-5.004-5.71-9.056-5.71-5.458 0-9.884 4.263-9.884 9.52 0 3.043 1.486 5.746 3.792 7.489h-20.1v15.9h4.21v37.325h62.076zm-2.729-2.629H84.054V88.76h26.944v34.696zm4.209-47.966V86.13H84.053V75.49h31.154zM84.59 65.374c0-3.8 3.21-6.891 7.155-6.891 3.945 0 7.154 3.091 7.154 6.89 0 3.8-3.21 6.891-7.154 6.891H84.59v-6.89zm-18.11 0c0-3.8 3.21-6.891 7.154-6.891 3.945 0 7.155 3.091 7.155 6.89v6.891h-7.155c-3.945 0-7.154-3.092-7.154-6.89zM50.172 86.13V75.49h31.151V86.13H50.172zm31.151 2.63v34.696l-26.942-.001V88.76h26.942zM131.047 117.177c3.372 0 6.114-2.643 6.114-5.89s-2.743-5.889-6.114-5.889c-3.374 0-6.115 2.642-6.115 5.889-.001 3.247 2.741 5.89 6.115 5.89zm0-9.346c1.978 0 3.587 1.551 3.587 3.455 0 1.906-1.61 3.456-3.587 3.456-1.979 0-3.588-1.551-3.588-3.456 0-1.906 1.608-3.455 3.588-3.455zM62.66 27.46c0-3.247-2.744-5.888-6.116-5.888-3.372 0-6.114 2.642-6.114 5.889 0 3.249 2.743 5.89 6.114 5.89 3.372 0 6.115-2.643 6.115-5.89zm-9.705 0c0-1.905 1.61-3.454 3.587-3.454 1.978 0 3.588 1.55 3.588 3.455 0 1.904-1.61 3.456-3.588 3.456-1.977 0-3.587-1.55-3.587-3.456zM32.043 117.786a1.33 1.33 0 0 0-.914.408c-.238.25-.361.572-.346.91.028.681.606 1.215 1.313 1.215 1.417-.056 2.679-.617 3.606-1.585a4.787 4.787 0 0 0 1.355-3.536 4.825 4.825 0 0 0-1.643-3.423 5.25 5.25 0 0 0-3.677-1.303h-.001a5.16 5.16 0 0 0-3.551 1.581 4.8 4.8 0 0 0-1.35 3.543c.031.701.645 1.261 1.37 1.213.347-.013.672-.158.91-.406a1.23 1.23 0 0 0 .347-.91 2.322 2.322 0 0 1 .656-1.723 2.51 2.51 0 0 1 1.724-.769h.09c1.334 0 2.443 1.014 2.496 2.299a2.316 2.316 0 0 1-.657 1.717 2.488 2.488 0 0 1-1.728.769zM136.459 73.253c-.725 0-1.313.57-1.313 1.267v2.916c0 .698.588 1.267 1.313 1.267s1.316-.57 1.316-1.267V74.52c0-.698-.591-1.267-1.316-1.267zM136.459 82.38c-.725 0-1.313.567-1.313 1.265v2.916c0 .698.588 1.265 1.313 1.265s1.316-.567 1.316-1.265v-2.916c0-.698-.591-1.266-1.316-1.266zM142.711 79.274h-3.027c-.725 0-1.316.57-1.316 1.267 0 .698.591 1.265 1.316 1.265h3.027c.725 0 1.315-.567 1.315-1.265s-.59-1.267-1.315-1.267zM130.209 79.274c-.725 0-1.315.57-1.315 1.267 0 .698.59 1.265 1.315 1.265h3.027c.725 0 1.316-.567 1.316-1.265s-.591-1.267-1.316-1.267h-3.027zM38.786 32.456l-2.141 2.062a1.234 1.234 0 0 0 0 1.791c.494.478 1.362.48 1.86 0l2.14-2.062a1.234 1.234 0 0 0 0-1.791 1.337 1.337 0 0 0-.93-.37c-.336 0-.674.123-.929.37zM31.807 42.761l2.141-2.062a1.23 1.23 0 0 0 0-1.79 1.336 1.336 0 0 0-.928-.37c-.338 0-.676.123-.93.37l-2.142 2.062a1.234 1.234 0 0 0 0 1.791c.497.478 1.363.477 1.859 0zM38.789 42.761c.494.48 1.362.48 1.86 0a1.234 1.234 0 0 0 0-1.79l-2.142-2.063a1.337 1.337 0 0 0-.93-.37c-.335 0-.674.123-.928.37a1.234 1.234 0 0 0 0 1.791l2.14 2.063zM32.088 36.309c.513.494 1.35.491 1.86 0a1.235 1.235 0 0 0 0-1.792l-2.141-2.063a1.336 1.336 0 0 0-.929-.37c-.337 0-.675.123-.93.37a1.234 1.234 0 0 0 0 1.791l2.14 2.064zM130.908 23.926l2.142-2.063a1.23 1.23 0 0 0 0-1.79 1.338 1.338 0 0 0-.93-.37c-.335 0-.674.123-.929.37l-2.141 2.063a1.235 1.235 0 0 0 0 1.79c.496.48 1.363.478 1.858 0zM124.208 30.377l2.142-2.062a1.23 1.23 0 0 0 0-1.79 1.327 1.327 0 0 0-.93-.373c-.35 0-.681.132-.929.372l-2.142 2.063a1.234 1.234 0 0 0 0 1.79c.495.48 1.364.48 1.859 0zM131.188 30.377c.497.48 1.366.478 1.86 0a1.23 1.23 0 0 0 0-1.79l-2.141-2.063a1.338 1.338 0 0 0-.929-.37c-.337 0-.675.123-.93.37a1.235 1.235 0 0 0 0 1.791l2.14 2.061zM124.489 23.926c.495.48 1.364.478 1.86 0a1.23 1.23 0 0 0 0-1.79l-2.142-2.063a1.334 1.334 0 0 0-.929-.37c-.337 0-.675.123-.929.37a1.235 1.235 0 0 0 0 1.791l2.14 2.062zM122.312 49.71c.852.06 1.682-.024 2.431-.11 1.724-.194 2.741-.26 3.705.669.962.927.894 1.908.691 3.564-.089.722-.176 1.52-.114 2.342.084 1.13.461 2.303 1.588 3.387l1.93-1.86c-.962-.926-.894-1.907-.691-3.563.211-1.718.473-3.856-1.472-5.73-1.948-1.876-4.17-1.624-5.953-1.421-1.722.197-2.74.261-3.705-.669-.965-.93-.897-1.913-.696-3.57.208-1.72.469-3.859-1.477-5.734-1.947-1.876-4.167-1.625-5.953-1.422-1.719.192-2.74.26-3.706-.671l-1.931 1.86c1.126 1.084 2.345 1.447 3.52 1.53.854.059 1.683-.024 2.433-.108 1.719-.194 2.743-.259 3.706.67.966.93.897 1.914.696 3.571-.087.723-.174 1.522-.112 2.343.087 1.131.464 2.305 1.591 3.391 1.126 1.087 2.346 1.45 3.519 1.531zM82.105 37.1c-1.631.73-3.66 1.637-4.3 4.216-.638 2.579.746 4.271 1.86 5.631 1.072 1.312 1.663 2.115 1.347 3.393l2.656.611c.37-1.494.052-2.685-.49-3.691-.393-.731-.902-1.368-1.371-1.94-1.072-1.31-1.663-2.114-1.347-3.392.316-1.279 1.222-1.738 2.793-2.441.686-.307 1.437-.654 2.132-1.134.956-.662 1.796-1.586 2.166-3.08.371-1.494.053-2.684-.49-3.69-.393-.73-.901-1.367-1.37-1.938-1.072-1.31-1.663-2.114-1.347-3.39.315-1.275 1.22-1.735 2.79-2.434.686-.307 1.437-.653 2.132-1.133.956-.662 1.796-1.585 2.167-3.077L88.777 19c-.315 1.275-1.22 1.733-2.79 2.434-1.631.728-3.66 1.634-4.298 4.21-.639 2.578.746 4.27 1.86 5.629 1.072 1.309 1.662 2.113 1.347 3.39-.317 1.276-1.221 1.736-2.791 2.438zM25.758 85.625c.498-1.219 1.459-1.553 3.115-2.033 1.721-.5 3.86-1.125 4.867-3.59 1.009-2.469-.118-4.33-1.024-5.824-.871-1.441-1.341-2.317-.843-3.537.5-1.223 1.462-1.558 3.12-2.04 1.721-.503 3.861-1.127 4.869-3.595 1.006-2.469-.118-4.33-1.023-5.826-.87-1.443-1.34-2.318-.841-3.541l-1.272-.483-1.27-.48c-.584 1.43-.443 2.65-.052 3.72.283.778.694 1.477 1.075 2.105.87 1.441 1.34 2.318.842 3.54-.498 1.222-1.461 1.557-3.12 2.041-.724.211-1.518.454-2.276.837-1.04.528-2.009 1.33-2.593 2.759-.583 1.428-.442 2.648-.05 3.718.282.775.693 1.475 1.074 2.105.871 1.44 1.341 2.316.843 3.538-.496 1.22-1.459 1.553-3.115 2.034-.724.21-1.52.452-2.276.835-1.043.525-2.009 1.326-2.591 2.754l1.271.48 1.27.483z" fill="#FFF6E0"/></svg>