<svg width="181" height="194" fill="none" xmlns="http://www.w3.org/2000/svg"><path d="M176 82c0 44.691-38.01 81-85 81S6 126.691 6 82C6 37.31 44.01 1 91 1s85 36.31 85 81z" stroke="#37616A" stroke-width="2"/><path d="M61.54 130.992a1.48 1.48 0 0 1-.68-.172 1.434 1.434 0 0 1-.768-1.26v-12.888a16.002 16.002 0 0 1-10.338-5.091 15.658 15.658 0 0 1-4.142-10.661V57.96c0-4.178 1.678-8.184 4.665-11.139a16.023 16.023 0 0 1 11.263-4.614h57.92c4.224 0 8.275 1.66 11.263 4.614a15.667 15.667 0 0 1 4.665 11.139v42.96c0 4.177-1.678 8.184-4.665 11.138a16.022 16.022 0 0 1-11.263 4.614H83.65l-21.315 14.077c-.235.156-.512.24-.796.243zm0-85.92a13.102 13.102 0 0 0-9.215 3.775 12.813 12.813 0 0 0-3.817 9.113v42.96c0 3.418 1.373 6.696 3.817 9.113a13.103 13.103 0 0 0 9.215 3.774 1.46 1.46 0 0 1 1.028.416c.265.275.414.637.42 1.017v11.642l19.418-12.888c.258-.148.557-.213.854-.187h36.2c3.456 0 6.771-1.357 9.215-3.774a12.816 12.816 0 0 0 3.817-9.113V57.96c0-3.418-1.373-6.697-3.817-9.113a13.105 13.105 0 0 0-9.215-3.775H61.54z" fill="#37616A"/><path d="M90.5 90.896a1.44 1.44 0 0 1-1.449-1.433v-7.16a1.44 1.44 0 0 1 1.449-1.43c2.496 0 4.89-.982 6.655-2.728a9.251 9.251 0 0 0 2.756-6.581c0-2.469-.99-4.836-2.756-6.582a9.467 9.467 0 0 0-6.655-2.726c-2.496 0-4.89.981-6.655 2.726a9.256 9.256 0 0 0-2.757 6.582 1.44 1.44 0 0 1-1.448 1.432 1.44 1.44 0 0 1-1.449-1.432c0-3.146 1.232-6.17 3.435-8.437a12.37 12.37 0 0 1 8.389-3.727 12.391 12.391 0 0 1 8.659 3.063 12.125 12.125 0 0 1 4.096 8.143 12.084 12.084 0 0 1-2.756 8.677 12.342 12.342 0 0 1-8.066 4.367v5.814c0 .38-.152.744-.424 1.013-.272.268-.64.42-1.024.42v-.001zM90.5 99.488a2.896 2.896 0 0 1-2.676-1.768 2.84 2.84 0 0 1 .628-3.12 2.918 2.918 0 0 1 3.156-.622 2.864 2.864 0 0 1 1.787 2.646c0 .76-.305 1.489-.848 2.026a2.913 2.913 0 0 1-2.047.838zM104.817 183.048v1.019a1.976 1.976 0 0 0-.517-.26 1.733 1.733 0 0 0-.537-.084c-.354 0-.63.103-.829.308-.197.203-.295.488-.295.855 0 .366.098.65.295.855.199.203.475.304.829.304.195 0 .383-.028.561-.084.178-.058.342-.145.493-.26v1.023a3.45 3.45 0 0 1-.602.16 3.404 3.404 0 0 1-.614.056c-.714 0-1.273-.181-1.677-.544-.402-.361-.602-.865-.602-1.51 0-.647.2-1.152.602-1.514.404-.362.963-.544 1.677-.544.207 0 .412.019.614.056.202.035.402.09.602.164zM107.293 181.814v1.11h1.305v.895h-1.305v1.663c0 .181.037.303.109.367.073.064.217.096.433.096h.65v.895h-1.083c-.501 0-.856-.102-1.066-.308-.208-.207-.311-.557-.311-1.05v-1.663h-.627v-.895h.627v-1.11h1.268z" fill="#37616A"/></svg>