<svg width="172" height="166" fill="none" xmlns="http://www.w3.org/2000/svg"><path d="M170.5 82c0 44.392-37.764 80.5-84.5 80.5S1.5 126.392 1.5 82 39.264 1.5 86 1.5s84.5 36.108 84.5 80.5z" stroke="#37616A" stroke-width="3"/><path d="M35.625 32.874c-2.92 0-5.325 2.406-5.325 5.325v49.7c0 2.92 2.405 5.325 5.325 5.325h5.325V109.2a1.776 1.776 0 0 0 3.03 1.255l7.617-7.616v2.808c0 2.919 2.413 5.332 5.332 5.332h41.865l17.23 17.23a1.777 1.777 0 0 0 3.027-1.255v-15.975h5.318c2.919 0 5.335-2.413 5.335-5.332v-49.7c0-2.92-2.416-5.318-5.335-5.318h-15.968V38.2c0-2.92-2.406-5.325-5.325-5.325H35.625zm0 3.55h67.45c1.014 0 1.775.76 1.775 1.775v12.428l-47.921.001c-2.92 0-5.332 2.399-5.332 5.318v41.872l-7.097 7.097V91.45c0-.981-.794-1.775-1.774-1.776h-7.1c-1.014 0-1.775-.76-1.775-1.775V38.2c0-1.014.76-1.775 1.775-1.775h-.001zm21.304 17.754h67.44c1.014 0 1.782.755 1.782 1.768v49.7c0 1.014-.768 1.782-1.782 1.782h-7.086a1.778 1.778 0 0 0-1.786 1.768v13.472l-14.714-14.73h.001a1.773 1.773 0 0 0-1.258-.511H56.93c-1.014 0-1.782-.767-1.782-1.782v-49.7c0-1.014.768-1.767 1.782-1.767h-.001zm25.487 7.079c-3.346 0-6.69 1.274-9.239 3.824-5.1 5.098-5.1 13.38 0 18.478l15.92 15.92a1.776 1.776 0 0 0 2.818.302l16.208-16.222c5.098-5.099 5.098-13.379 0-18.478a13.019 13.019 0 0 0-9.236-3.824c-2.921 0-5.84.971-8.23 2.915a13.057 13.057 0 0 0-8.24-2.915h-.001zm-.003 3.532c2.428 0 4.86.943 6.736 2.819l.25.246h-.001c.692.689 1.81.689 2.503 0l.246-.246c3.749-3.753 9.721-3.751 13.472 0a9.467 9.467 0 0 1 0 13.469L90.653 96.053 75.676 81.077a9.466 9.466 0 0 1 0-13.469c1.876-1.876 4.308-2.819 6.737-2.819z" fill="#37616A"/></svg>