<svg width="181" height="194" viewBox="0 0 181 194" fill="none" xmlns="http://www.w3.org/2000/svg">
<path d="M175.5 82C175.5 126.392 137.736 162.5 91 162.5C44.2638 162.5 6.5 126.392 6.5 82C6.5 37.6076 44.2638 1.5 91 1.5C137.736 1.5 175.5 37.6076 175.5 82Z" stroke="#FFF6E0" stroke-width="3"/>
<path d="M61.5399 131.344C61.3025 131.342 61.0682 131.283 60.8591 131.173C60.3884 130.926 60.0935 130.444 60.0915 129.92V117.104C56.1229 116.748 52.4344 114.941 49.7538 112.041C47.0732 109.142 45.5954 105.358 45.6115 101.44V58.7199C45.6115 54.5659 47.2902 50.5818 50.2769 47.6435C53.2647 44.7062 57.3159 43.0554 61.54 43.0554H119.46C123.684 43.0554 127.735 44.7063 130.723 47.6435C133.71 50.5818 135.388 54.5659 135.388 58.7199V101.44C135.388 105.594 133.71 109.578 130.723 112.516C127.735 115.454 123.684 117.104 119.46 117.104H83.6504L62.3353 131.102C62.1 131.258 61.8232 131.341 61.5394 131.344L61.5399 131.344ZM61.5399 45.9041C58.0835 45.9041 54.7684 47.254 52.3252 49.6578C49.8809 52.0606 48.5081 55.3208 48.5081 58.7198V101.44C48.5081 104.839 49.8808 108.099 52.3252 110.502C54.7685 112.906 58.0835 114.256 61.5399 114.256C61.9247 114.254 62.2944 114.403 62.5681 114.669C62.8327 114.942 62.9822 115.303 62.9883 115.68V127.257L82.4065 114.441H82.4055C82.664 114.294 82.963 114.23 83.26 114.256H119.46C122.916 114.256 126.231 112.906 128.675 110.502C131.119 108.099 132.492 104.839 132.492 101.44V58.7199C132.492 55.3208 131.119 52.0606 128.675 49.6579C126.231 47.2541 122.916 45.9041 119.46 45.9041L61.5399 45.9041Z" fill="#FFF6E0"/>
<path d="M90.4997 91.4721C89.6997 91.4721 89.0513 90.8344 89.0513 90.0477V82.9277C89.0513 82.141 89.6997 81.5043 90.4997 81.5043C92.9955 81.5043 95.3903 80.5289 97.1548 78.7926C98.9204 77.0573 99.9112 74.7032 99.9112 72.2478C99.9112 69.7934 98.9204 67.4393 97.1548 65.703C95.3903 63.9677 92.9954 62.9923 90.4997 62.9923C88.004 62.9923 85.6091 63.9677 83.8446 65.703C82.0791 67.4393 81.0882 69.7934 81.0882 72.2478C81.0882 73.0345 80.4398 73.6722 79.6398 73.6722C78.8398 73.6722 78.1914 73.0345 78.1914 72.2478C78.1914 69.1198 79.4226 66.1132 81.6265 63.8584C83.8304 61.6036 86.8373 60.2755 90.0148 60.1525C93.1935 60.0293 96.2963 61.1209 98.6739 63.198C101.052 65.276 102.52 68.1775 102.77 71.2955C103.019 74.4146 102.032 77.5067 100.014 79.9244C97.9973 82.3431 95.1066 83.8987 91.9482 84.2671V90.0481C91.9482 90.4255 91.7957 90.7881 91.524 91.0553C91.2523 91.3225 90.8836 91.4725 90.4998 91.4725L90.4997 91.4721Z" fill="#FFF6E0"/>
<path d="M90.4997 100.016C89.3281 100.016 88.2726 99.3229 87.824 98.258C87.3756 97.1942 87.624 95.9695 88.4523 95.155C89.2805 94.3405 90.5259 94.0961 91.6076 94.5372C92.6904 94.9782 93.3954 96.0172 93.3954 97.1685C93.3954 97.9244 93.0904 98.6485 92.547 99.1829C92.0046 99.7163 91.2674 100.016 90.4997 100.016Z" fill="#FFF6E0"/>
</svg>
