<svg width="196" height="187" viewBox="0 0 196 187" fill="none" xmlns="http://www.w3.org/2000/svg">
<path d="M194.5 93.5C194.5 144.245 151.363 185.5 98 185.5C44.6373 185.5 1.5 144.245 1.5 93.5C1.5 42.7555 44.6373 1.5 98 1.5C151.363 1.5 194.5 42.7555 194.5 93.5Z" stroke="#FFF6E0" stroke-width="3"/>
<path d="M74.7051 132.23C74.7051 132.606 74.8543 132.967 75.1203 133.233C75.3863 133.499 75.7474 133.649 76.1237 133.649H98.8264C99.6103 133.649 100.246 133.014 100.246 132.23C100.246 131.447 99.6103 130.811 98.8264 130.811H76.1237C75.3398 130.811 74.7051 131.447 74.7051 132.23Z" fill="#FFF6E0"/>
<path d="M155.584 62.7027H122.948V52.7705C122.944 49.384 121.598 46.1381 119.203 43.7448C116.81 41.3503 113.563 40.0039 110.177 40H64.7705C61.385 40.0038 58.1391 41.3502 55.7448 43.7448C53.3513 46.1383 52.0039 49.3842 52 52.7705V64.1213C52 64.9053 52.6357 65.5409 53.4196 65.5409C54.2025 65.5409 54.8382 64.9052 54.8382 64.1213V52.7705C54.841 50.1366 55.8891 47.6129 57.7515 45.7506C59.6129 43.8883 62.1375 42.8411 64.7704 42.8372H110.177C112.81 42.841 115.335 43.8881 117.197 45.7506C119.059 47.6129 120.107 50.1366 120.11 52.7705V62.7027H117.271L117.272 52.7705C117.27 50.8891 116.523 49.0858 115.192 47.7554C113.862 46.4251 112.059 45.6774 110.177 45.6755H107.182C105.199 45.6783 103.242 46.1401 101.467 47.0248L100.588 47.4656C99.2076 48.1526 97.6873 48.5108 96.1461 48.5137H78.8033C77.2621 48.5108 75.7438 48.1536 74.3631 47.4685L73.4794 47.0219C71.7045 46.1392 69.75 45.6784 67.767 45.6755H64.7712C62.8908 45.6774 61.0865 46.4252 59.7571 47.7554C58.4269 49.0857 57.6781 50.8892 57.6772 52.7705V132.23C57.6781 134.111 58.4269 135.914 59.7571 137.245C61.0864 138.575 62.8909 139.323 64.7712 139.325H110.178C112.059 139.323 113.863 138.575 115.193 137.245C116.523 135.914 117.271 134.111 117.273 132.23V116.622H120.111L120.11 132.23C120.107 134.863 119.059 137.387 117.198 139.249C115.336 141.112 112.811 142.159 110.178 142.163H64.7711C62.1382 142.159 59.6136 141.112 57.7523 139.249C55.8899 137.387 54.8418 134.863 54.8389 132.23V69.7978C54.8389 69.0138 54.2032 68.3782 53.4203 68.3782C52.6364 68.3782 52.0007 69.0139 52.0007 69.7978V132.23C52.0045 135.616 53.3519 138.862 55.7455 141.255C58.14 143.65 61.3859 144.996 64.7712 145H110.178C113.564 144.996 116.81 143.65 119.204 141.255C121.598 138.862 122.945 135.616 122.949 132.23V116.622H155.585C158.971 116.618 162.216 115.271 164.611 112.877C167.004 110.483 168.352 107.237 168.355 103.851V75.4717C168.352 72.0862 167.004 68.8394 164.611 66.4461C162.216 64.0516 158.97 62.7052 155.585 62.7013L155.584 62.7027ZM155.584 113.785H110.177C107.544 113.782 105.02 112.734 103.158 110.871C101.296 109.01 100.248 106.485 100.245 103.852C100.245 103.068 99.6094 102.433 98.8256 102.433C98.0426 102.433 97.4069 103.068 97.4069 103.852C97.4107 107.238 98.7572 110.484 101.152 112.878C103.545 115.272 106.792 116.619 110.177 116.623H114.434V132.231C114.433 133.359 113.984 134.442 113.186 135.24C112.388 136.038 111.306 136.486 110.177 136.487H64.7705C63.6427 136.486 62.5604 136.038 61.7623 135.24C60.9642 134.442 60.5157 133.359 60.5138 132.231V52.7714C60.5157 51.6426 60.9642 50.5604 61.7623 49.7622C62.5604 48.9641 63.6427 48.5156 64.7705 48.5146H67.7664C69.3076 48.5165 70.8269 48.8748 72.2066 49.5589L73.0903 50.0055C74.8652 50.8891 76.8197 51.35 78.8027 51.3519H96.1455C98.1285 51.35 100.085 50.8882 101.86 50.0026L102.739 49.5617C104.119 48.8757 105.64 48.5165 107.181 48.5146H110.177C111.306 48.5156 112.388 48.9641 113.185 49.7622C113.983 50.5604 114.433 51.6427 114.434 52.7714V62.7037H110.177C106.791 62.7075 103.544 64.0539 101.151 66.4485C98.7565 68.842 97.4101 72.0889 97.4062 75.4742V98.1769C97.4062 98.9608 98.0419 99.5965 98.8248 99.5965C99.6088 99.5965 100.244 98.9608 100.244 98.1769V76.8928H149.906C150.69 76.8928 151.325 76.2581 151.325 75.4742C151.325 74.6903 150.69 74.0556 149.906 74.0556H100.388C100.725 71.6972 101.9 69.5394 103.697 67.9754C105.494 66.4123 107.795 65.5486 110.177 65.5419H155.584C157.966 65.5486 160.265 66.4123 162.063 67.9754C163.861 69.5394 165.035 71.6973 165.372 74.0556H155.584C154.8 74.0556 154.164 74.6903 154.164 75.4742C154.164 76.2581 154.8 76.8928 155.584 76.8928H165.516V103.854C165.513 106.487 164.465 109.012 162.602 110.873C160.741 112.736 158.216 113.784 155.584 113.787L155.584 113.785Z" fill="#FFF6E0"/>
<path d="M118.691 79.73H113.016C111.887 79.7309 110.805 80.1804 110.006 80.9785C109.208 81.7757 108.76 82.858 108.759 83.9868V89.6622C108.76 90.791 109.208 91.8733 110.006 92.6714C110.805 93.4695 111.887 93.918 113.016 93.919H118.691C119.82 93.918 120.902 93.4695 121.699 92.6714C122.497 91.8733 122.947 90.791 122.948 89.6622V83.9868C122.947 82.8579 122.497 81.7757 121.699 80.9785C120.902 80.1804 119.82 79.7309 118.691 79.73ZM120.11 89.6622C120.11 90.0385 119.96 90.3996 119.694 90.6656C119.428 90.9317 119.067 91.0818 118.691 91.0818H113.016C112.232 91.0818 111.596 90.4461 111.596 89.6622V83.9868C111.596 83.2029 112.232 82.5682 113.016 82.5682H118.691C119.067 82.5682 119.428 82.7174 119.694 82.9834C119.96 83.2495 120.11 83.6105 120.11 83.9868V89.6622Z" fill="#FFF6E0"/>
<path d="M135.718 79.73H130.043C128.914 79.7309 127.832 80.1804 127.034 80.9785C126.236 81.7757 125.787 82.858 125.786 83.9868V89.6622C125.787 90.791 126.236 91.8733 127.034 92.6714C127.832 93.4695 128.914 93.918 130.043 93.919H135.718C136.847 93.918 137.929 93.4695 138.727 92.6714C139.525 91.8733 139.974 90.791 139.975 89.6622V83.9868C139.974 82.8579 139.525 81.7757 138.727 80.9785C137.929 80.1804 136.847 79.7309 135.718 79.73ZM137.137 89.6622C137.137 90.0385 136.988 90.3996 136.722 90.6656C136.456 90.9317 136.095 91.0818 135.718 91.0818H130.043C129.259 91.0818 128.623 90.4461 128.623 89.6622V83.9868C128.623 83.2029 129.259 82.5682 130.043 82.5682H135.718C136.095 82.5682 136.456 82.7174 136.722 82.9834C136.988 83.2495 137.137 83.6105 137.137 83.9868V89.6622Z" fill="#FFF6E0"/>
<path d="M118.691 96.7573H113.016C111.887 96.7583 110.805 97.2077 110.006 98.0059C109.208 98.8031 108.76 99.8853 108.759 101.014V106.69C108.76 107.818 109.208 108.901 110.006 109.699C110.805 110.497 111.887 110.945 113.016 110.946H118.691C119.82 110.945 120.902 110.497 121.699 109.699C122.497 108.901 122.947 107.818 122.948 106.69V101.014C122.947 99.8853 122.497 98.803 121.699 98.0059C120.902 97.2077 119.82 96.7583 118.691 96.7573ZM120.11 106.69C120.11 107.066 119.96 107.427 119.694 107.693C119.428 107.959 119.067 108.109 118.691 108.109H113.016C112.232 108.109 111.596 107.473 111.596 106.69V101.014C111.596 100.23 112.232 99.5955 113.016 99.5955H118.691C119.067 99.5955 119.428 99.7447 119.694 100.011C119.96 100.277 120.11 100.638 120.11 101.014V106.69Z" fill="#FFF6E0"/>
<path d="M135.718 96.7573H130.043C128.914 96.7583 127.832 97.2077 127.034 98.0059C126.236 98.8031 125.787 99.8853 125.786 101.014V106.69C125.787 107.818 126.236 108.901 127.034 109.699C127.832 110.497 128.914 110.945 130.043 110.946H135.718C136.847 110.945 137.929 110.497 138.727 109.699C139.525 108.901 139.974 107.818 139.975 106.69V101.014C139.974 99.8853 139.525 98.803 138.727 98.0059C137.929 97.2077 136.847 96.7583 135.718 96.7573ZM137.137 106.69C137.137 107.066 136.988 107.427 136.722 107.693C136.456 107.959 136.095 108.109 135.718 108.109H130.043C129.259 108.109 128.623 107.473 128.623 106.69V101.014C128.623 100.23 129.259 99.5955 130.043 99.5955H135.718C136.095 99.5955 136.456 99.7447 136.722 100.011C136.988 100.277 137.137 100.638 137.137 101.014V106.69Z" fill="#FFF6E0"/>
<path d="M147.07 93.9185H152.746C153.875 93.9175 154.957 93.4691 155.754 92.6709C156.552 91.8728 157.002 90.7905 157.002 89.6617V83.9863C157.002 82.8575 156.552 81.7752 155.754 80.978C154.957 80.1799 153.874 79.7304 152.746 79.7295H147.07C145.941 79.7304 144.859 80.1799 144.061 80.978C143.263 81.7752 142.814 82.8575 142.813 83.9863V89.6617C142.814 90.7905 143.263 91.8728 144.061 92.6709C144.859 93.4691 145.941 93.9175 147.07 93.9185ZM145.652 83.9862H145.651C145.651 83.2023 146.286 82.5676 147.07 82.5676H152.746C153.122 82.5676 153.483 82.7168 153.749 82.9828C154.015 83.2489 154.164 83.61 154.164 83.9862V89.6617C154.164 90.038 154.015 90.399 153.749 90.6651C153.483 90.9311 153.122 91.0812 152.746 91.0812H147.07C146.286 91.0812 145.651 90.4456 145.651 89.6617L145.652 83.9862Z" fill="#FFF6E0"/>
<path d="M160.256 91.4984L154.556 97.1987C153.994 96.9175 153.375 96.7673 152.746 96.7588H147.071C146.442 96.7673 145.822 96.9174 145.259 97.1987L145.236 97.174C144.682 96.62 143.783 96.62 143.229 97.174C142.675 97.7289 142.675 98.6268 143.229 99.1808L143.254 99.2045V99.2055C142.971 99.768 142.821 100.387 142.814 101.016V106.691C142.815 107.82 143.263 108.902 144.061 109.7C144.859 110.498 145.942 110.947 147.071 110.948H152.746C153.875 110.947 154.957 110.498 155.754 109.7C156.552 108.902 157.002 107.82 157.003 106.691V101.016C156.994 100.387 156.844 99.768 156.563 99.2055L162.263 93.5062V93.5053C162.817 92.9513 162.817 92.0524 162.263 91.4985C161.709 90.9445 160.81 90.9445 160.256 91.4984ZM152.159 99.5969L150.91 100.845C150.644 101.111 150.283 101.261 149.907 101.261C149.53 101.261 149.17 101.111 148.903 100.845L147.654 99.5969H152.159ZM154.165 106.691C154.165 107.067 154.016 107.428 153.749 107.694C153.483 107.96 153.122 108.11 152.746 108.11H147.071C146.287 108.11 145.651 107.475 145.651 106.691V101.603L146.9 102.851C147.699 103.648 148.781 104.096 149.91 104.096C151.039 104.096 152.121 103.648 152.92 102.851L154.169 101.603L154.165 106.691Z" fill="#FFF6E0"/>
<path d="M64.7702 82.5686H87.4739C88.2568 82.5686 88.8925 81.933 88.8925 81.1491C88.8925 80.3661 88.2568 79.7305 87.4739 79.7305H64.7702C63.9872 79.7305 63.3516 80.3661 63.3516 81.1491C63.3516 81.933 63.9872 82.5686 64.7702 82.5686Z" fill="#FFF6E0"/>
<path d="M64.7702 65.5413H87.4739C88.2568 65.5413 88.8925 64.9056 88.8925 64.1217C88.8925 63.3388 88.2568 62.7031 87.4739 62.7031H64.7702C63.9872 62.7031 63.3516 63.3388 63.3516 64.1217C63.3516 64.9057 63.9872 65.5413 64.7702 65.5413Z" fill="#FFF6E0"/>
<path d="M64.7702 93.9183H76.122C76.9059 93.9183 77.5406 93.2836 77.5406 92.4997C77.5406 91.7158 76.9059 91.0811 76.122 91.0811H64.7702C63.9872 91.0811 63.3516 91.7158 63.3516 92.4997C63.3516 93.2836 63.9872 93.9183 64.7702 93.9183Z" fill="#FFF6E0"/>
<path d="M88.8924 112.367V106.69C88.8915 105.563 88.442 104.48 87.6439 103.682C86.8467 102.884 85.7644 102.435 84.6356 102.434H67.6083C66.4795 102.435 65.3973 102.884 64.6001 103.682C63.802 104.48 63.3525 105.563 63.3516 106.69V112.367C63.3525 113.495 63.802 114.577 64.6001 115.375C65.3973 116.173 66.4796 116.622 67.6083 116.624H84.6356C85.7644 116.622 86.8467 116.173 87.6439 115.375C88.442 114.577 88.8915 113.495 88.8924 112.367ZM66.1897 112.367V106.69C66.1897 105.907 66.8244 105.272 67.6083 105.272H84.6356C85.0119 105.272 85.3729 105.421 85.639 105.687C85.905 105.953 86.0542 106.314 86.0542 106.69V112.367C86.0542 112.743 85.905 113.104 85.639 113.37C85.3729 113.636 85.0119 113.785 84.6356 113.785H67.6083C66.8244 113.785 66.1897 113.15 66.1897 112.367Z" fill="#FFF6E0"/>
</svg>
