<svg width="172" height="164" viewBox="0 0 172 164" fill="none" xmlns="http://www.w3.org/2000/svg">
<path d="M170.5 82C170.5 126.392 132.736 162.5 86 162.5C39.2638 162.5 1.5 126.392 1.5 82C1.5 37.6076 39.2638 1.5 86 1.5C132.736 1.5 170.5 37.6076 170.5 82Z" stroke="#FFF6E0" stroke-width="3"/>
<path d="M69.381 76.0776L70.5381 91.0805H65.4389C64.5088 91.0805 63.7547 91.8339 63.7547 92.7647V99.6842C63.7547 100.615 64.5088 101.368 65.4389 101.368H86.196C87.1261 101.368 87.8803 100.615 87.8803 99.6842V92.7647C87.8803 91.8339 87.1261 91.0805 86.196 91.0805H81.0968L82.254 76.0752C88.0253 74.2046 92.6622 69.9024 94.9525 64.2715C103.049 61.9271 108.638 54.5693 108.638 46.0625L108.637 44.3324C108.637 43.4016 107.883 42.6482 106.953 42.6482H96.5293V35.6842C96.5293 34.7534 95.7752 34 94.8451 34H56.7916C55.8616 34 55.1074 34.7534 55.1074 35.6842V42.6482H44.6842C43.7541 42.6482 43 43.4016 43 44.3324V46.0625C43 54.5692 48.5887 61.9271 56.685 64.2715C58.9798 69.9099 63.6203 74.2122 69.3828 76.0776H69.381ZM84.5109 97.9992H67.123V94.4481H84.5109V97.9992ZM73.9162 91.0797L72.8252 76.9301C74.8095 77.203 76.8236 77.203 78.8087 76.9301L77.7177 91.0797H73.9162ZM105.267 46.0161C105.286 52.2438 101.662 57.7499 96.1758 60.2545C96.7789 57.6281 96.4533 48.8109 96.5285 46.0161H105.267ZM58.4735 37.3679H93.1585C93.1036 42.4958 93.2766 52.8424 93.0818 58.0327C92.3878 68.4108 81.4059 76.1034 71.4104 73.1996C63.8954 71.3545 58.3946 64.1778 58.4712 56.4395C58.4728 52.0546 58.4712 41.6493 58.472 37.3673L58.4735 37.3679ZM46.366 46.0619V46.016H55.105C55.1825 48.8694 54.8532 57.5814 55.4577 60.2544C49.9847 57.7545 46.366 52.2761 46.366 46.0619Z" fill="#FFF6E0"/>
<path d="M142.318 52.5275H112.272C110.074 52.5358 110.066 55.8869 112.272 55.8959H140.634V113.159H135.582C135.026 97.5515 112.553 97.5636 112.003 113.159H54.7395V68.3764C54.6741 66.1644 51.3742 66.302 51.3711 68.511V114.843C51.3711 115.774 52.1252 116.527 53.0553 116.527H112.513C113.198 118.83 114.579 120.881 116.462 122.38L115.378 133.202C115.318 133.802 115.583 134.387 116.073 134.738C116.565 135.091 117.204 135.154 117.751 134.902L123.79 132.154L129.829 134.902C130.376 135.152 131.017 135.09 131.507 134.738C131.998 134.387 132.262 133.802 132.202 133.202L131.119 122.381C133.009 120.875 134.392 118.819 135.072 116.527H142.315C143.245 116.527 143.999 115.774 143.999 114.843V54.2116C144.002 53.2807 143.248 52.5273 142.318 52.5273L142.318 52.5275ZM123.792 104.738C128.931 104.688 133.018 109.508 132.085 114.566C130.475 123.821 117.075 123.806 115.494 114.532C114.582 109.487 118.668 104.686 123.792 104.738ZM124.49 128.771C124.047 128.57 123.538 128.57 123.095 128.771L119.024 130.625L119.666 124.205C122.333 125.166 125.253 125.167 127.919 124.205L128.562 130.625L124.49 128.771Z" fill="#FFF6E0"/>
<path d="M113.81 72.738H96.8692C94.6722 72.7463 94.6624 76.0974 96.8692 76.1065H113.81C116.008 76.0982 116.017 72.7471 113.81 72.738Z" fill="#FFF6E0"/>
<path d="M96.8695 81.1592C94.6694 81.1682 94.665 84.5185 96.8695 84.5276H104.399C106.599 84.5186 106.603 81.1682 104.399 81.1592H96.8695Z" fill="#FFF6E0"/>
<path d="M108.362 82.8434C108.362 83.7742 109.116 84.5276 110.047 84.5276H128.87C129.8 84.5276 130.554 83.7742 130.554 82.8434C130.554 81.9126 129.8 81.1592 128.87 81.1592H110.047C109.116 81.1592 108.362 81.9126 108.362 82.8434Z" fill="#FFF6E0"/>
</svg>
