<svg width="181" height="194" viewBox="0 0 181 194" fill="none" xmlns="http://www.w3.org/2000/svg">
<path d="M176 82C176 126.691 137.99 163 91 163C44.0104 163 6 126.691 6 82C6 37.3093 44.0104 1 91 1C137.99 1 176 37.3093 176 82Z" stroke="#37616A" stroke-width="2"/>
<path d="M61.5399 130.992C61.3025 130.99 61.0682 130.931 60.8591 130.82C60.3884 130.571 60.0935 130.087 60.0915 129.56V116.672C56.1229 116.313 52.4344 114.496 49.7538 111.581C47.0732 108.665 45.5954 104.86 45.6115 100.92V57.9598C45.6115 53.7824 47.2902 49.7759 50.2769 46.8211C53.2647 43.8674 57.3159 42.2073 61.54 42.2073H119.46C123.684 42.2073 127.735 43.8674 130.723 46.8211C133.71 49.7759 135.388 53.7824 135.388 57.9598V100.92C135.388 105.097 133.71 109.104 130.723 112.058C127.735 115.012 123.684 116.672 119.46 116.672H83.6504L62.3353 130.749C62.1 130.905 61.8232 130.989 61.5394 130.992L61.5399 130.992ZM61.5399 45.0719C58.0835 45.0719 54.7684 46.4294 52.3252 48.8468C49.8809 51.2631 48.5081 54.5415 48.5081 57.9597V100.92C48.5081 104.338 49.8808 107.616 52.3252 110.033C54.7685 112.45 58.0835 113.807 61.5399 113.807C61.9247 113.805 62.2944 113.955 62.5681 114.223C62.8327 114.498 62.9822 114.86 62.9883 115.24V126.882L82.4065 113.994H82.4055C82.664 113.846 82.963 113.781 83.26 113.807H119.46C122.916 113.807 126.231 112.45 128.675 110.033C131.119 107.616 132.492 104.338 132.492 100.92V57.9597C132.492 54.5416 131.119 51.2631 128.675 48.8468C126.231 46.4295 122.916 45.072 119.46 45.072L61.5399 45.0719Z" fill="#37616A"/>
<path d="M90.4997 90.896C89.6997 90.896 89.0513 90.2547 89.0513 89.4635V82.3035C89.0513 81.5124 89.6997 80.8721 90.4997 80.8721C92.9955 80.8721 95.3903 79.8912 97.1548 78.1452C98.9204 76.4002 99.9112 74.0328 99.9112 71.5636C99.9112 69.0954 98.9204 66.7281 97.1548 64.982C95.3903 63.237 92.9954 62.2561 90.4997 62.2561C88.004 62.2561 85.6091 63.237 83.8446 64.982C82.0791 66.7281 81.0882 69.0955 81.0882 71.5636C81.0882 72.3548 80.4398 72.996 79.6398 72.996C78.8398 72.996 78.1914 72.3548 78.1914 71.5636C78.1914 68.4181 79.4226 65.3945 81.6265 63.1271C83.8304 60.8596 86.8373 59.5241 90.0148 59.4003C93.1935 59.2765 96.2963 60.3742 98.6739 62.463C101.052 64.5527 102.52 67.4704 102.77 70.606C103.019 73.7426 102.032 76.852 100.014 79.2834C97.9973 81.7157 95.1066 83.2799 91.9482 83.6505V89.4639C91.9482 89.8435 91.7957 90.2081 91.524 90.4767C91.2523 90.7454 90.8836 90.8963 90.4998 90.8963L90.4997 90.896Z" fill="#37616A"/>
<path d="M90.4997 99.4879C89.3281 99.4879 88.2726 98.7907 87.824 97.7199C87.3756 96.6501 87.624 95.4184 88.4523 94.5994C89.2805 93.7803 90.5259 93.5346 91.6076 93.9781C92.6904 94.4216 93.3954 95.4664 93.3954 96.6242C93.3954 97.3844 93.0904 98.1125 92.547 98.6499C92.0046 99.1864 91.2674 99.4879 90.4997 99.4879Z" fill="#37616A"/>
<path d="M104.817 183.048V184.067C104.647 183.95 104.475 183.863 104.3 183.807C104.127 183.751 103.948 183.723 103.763 183.723C103.409 183.723 103.133 183.826 102.934 184.031C102.737 184.234 102.639 184.519 102.639 184.886C102.639 185.252 102.737 185.536 102.934 185.741C103.133 185.944 103.409 186.045 103.763 186.045C103.958 186.045 104.146 186.017 104.324 185.961C104.502 185.903 104.666 185.816 104.817 185.701V186.724C104.62 186.796 104.419 186.849 104.215 186.884C104.013 186.921 103.808 186.94 103.601 186.94C102.887 186.94 102.328 186.759 101.924 186.396C101.522 186.035 101.322 185.531 101.322 184.886C101.322 184.239 101.522 183.734 101.924 183.372C102.328 183.01 102.887 182.828 103.601 182.828C103.808 182.828 104.013 182.847 104.215 182.884C104.417 182.919 104.617 182.974 104.817 183.048Z" fill="#37616A"/>
<path d="M107.293 181.814V182.924H108.598V183.819H107.293V185.482C107.293 185.663 107.33 185.785 107.402 185.849C107.475 185.913 107.619 185.945 107.835 185.945H108.485V186.84H107.402C106.901 186.84 106.546 186.738 106.336 186.532C106.128 186.325 106.025 185.975 106.025 185.482V183.819H105.398V182.924H106.025V181.814H107.293Z" fill="#37616A"/>
</svg>
