<svg width="172" height="164" viewBox="0 0 172 164" fill="none" xmlns="http://www.w3.org/2000/svg">
<path d="M170.5 82C170.5 126.392 132.736 162.5 86 162.5C39.2638 162.5 1.5 126.392 1.5 82C1.5 37.6076 39.2638 1.5 86 1.5C132.736 1.5 170.5 37.6076 170.5 82Z" stroke="#37616A" stroke-width="3"/>
<path d="M144.866 57.1871L139.64 51.5339C139.405 51.2774 139.082 51.1158 138.738 51.0774L125.653 49.6148C125.216 49.5654 124.778 49.7189 124.468 50.03L116.303 58.1993L106.712 46.2595L118.101 43.3777C118.745 43.2151 119.196 42.6333 119.193 41.9687C119.19 41.3041 118.738 40.7264 118.09 40.5668L97.7282 35.5639C97.2615 35.4478 96.7727 35.574 96.4161 35.8942L84.9087 46.2541L80.4261 43.3977C80.1079 43.1947 79.719 43.1209 79.3514 43.2017L28.2137 53.9355C27.5764 54.0689 27.1057 54.6113 27.0653 55.2617C27.0249 55.9122 27.4229 56.5081 28.038 56.7212L55.656 66.246L76.0397 97.3857L45.3343 121.242C45.0101 121.494 44.8091 121.87 44.7778 122.278C44.7475 122.686 44.892 123.089 45.1748 123.386L49.2949 127.694L46.7829 130.513C46.3364 131.011 46.292 131.751 46.6728 132.3L60.4174 152.133C60.6901 152.526 61.1366 152.755 61.6073 152.755C61.681 152.755 61.7567 152.749 61.8305 152.738C62.3789 152.651 62.8294 152.26 62.992 151.73L66.5029 140.236L119.484 96.3433C119.635 96.2191 119.757 96.0666 119.846 95.8928L129.937 76.3929L137.038 59.7857H143.958C143.969 59.7867 143.981 59.7857 143.987 59.7857C144.788 59.7857 145.435 59.1372 145.435 58.3373C145.435 57.8696 145.215 57.4525 144.866 57.1878L144.866 57.1871ZM69.4948 106.14L51.7323 126.053L48.3788 122.544L69.4948 106.14ZM52.3443 128.623C52.6958 128.229 52.7806 127.695 52.6281 127.22L75.8148 101.229L76.2531 100.89L64.9993 137.724L64.3206 138.286C64.1034 138.465 63.9408 138.707 63.86 138.977L61.0956 148.031L49.7024 131.59L52.3443 128.623ZM135.907 56.9163C135.4 56.979 134.957 57.2911 134.75 57.7688L128.81 71.665L126.418 52.6134L137.231 53.8225L135.907 56.9163ZM116.107 61.8121C116.52 61.8414 116.919 61.6808 117.208 61.3889L125.073 53.5216L127.687 74.3043L127.661 74.3619L112.729 64.8452L115.837 61.7371C115.925 61.7604 116.011 61.8058 116.107 61.8119L116.107 61.8121ZM103.041 46.317L114.699 60.8272L111.477 64.0493L86.8835 48.3744L97.7525 38.5891L102.823 44.8969C102.814 44.9161 102.803 44.9302 102.797 44.9494C102.639 45.4171 102.733 45.9311 103.041 46.317ZM103.941 43.9737L100.036 39.1154L111.762 41.9951L103.941 43.9737ZM127.046 75.6875L127.032 75.7147L78.9295 96.5137L78.7528 96.243L80.3052 46.755L84.2797 49.2892C84.7241 49.57 85.2655 49.5761 85.713 49.3458L127.046 75.6875ZM77.369 94.1319L58.0901 64.6832L78.8708 46.276L77.369 94.1319ZM76.0266 46.8598L57.0519 63.666L33.9379 55.6937L76.0266 46.8598ZM67.026 136.039L78.2395 99.3447L78.8697 98.8568C79.0445 98.7205 79.1667 98.5467 79.2626 98.3599L115.163 96.16L67.026 136.039ZM82.0606 96.7383L125.976 77.7475L117.407 94.3012L117.054 94.5952L82.0606 96.7383ZM137.493 56.8898L138.491 54.5566L140.649 56.8898H137.493Z" fill="#37616A"/>
</svg>
