<svg width="196" height="187" fill="none" xmlns="http://www.w3.org/2000/svg"><path d="M194.5 93.5c0 50.745-43.137 92-96.5 92s-96.5-41.255-96.5-92 43.137-92 96.5-92 96.5 41.255 96.5 92z" stroke="#FFF6E0" stroke-width="3"/><path d="M74.705 132.23a1.419 1.419 0 0 0 1.419 1.419h22.702a1.42 1.42 0 1 0 0-2.838H76.124c-.784 0-1.419.636-1.419 1.419z" fill="#FFF6E0"/><path d="M155.584 62.703h-32.636V52.77A12.782 12.782 0 0 0 110.177 40H64.77A12.783 12.783 0 0 0 52 52.77v11.351a1.42 1.42 0 0 0 2.838 0v-11.35a9.945 9.945 0 0 1 9.932-9.933h45.407a9.947 9.947 0 0 1 9.933 9.932v9.933h-2.839l.001-9.933a7.1 7.1 0 0 0-7.095-7.095h-2.995c-1.983.003-3.94.465-5.715 1.35l-.879.44c-1.38.688-2.9 1.046-4.442 1.049H78.803a10.028 10.028 0 0 1-4.44-1.046l-.884-.446a12.87 12.87 0 0 0-5.712-1.346h-2.996a7.1 7.1 0 0 0-7.094 7.094v79.46a7.1 7.1 0 0 0 7.094 7.095h45.407a7.103 7.103 0 0 0 7.095-7.095v-15.608h2.838l-.001 15.608a9.946 9.946 0 0 1-9.932 9.933H64.771a9.942 9.942 0 0 1-7.019-2.914 9.941 9.941 0 0 1-2.913-7.019V69.798a1.42 1.42 0 1 0-2.838 0v62.432A12.783 12.783 0 0 0 64.77 145h45.407a12.782 12.782 0 0 0 12.771-12.77v-15.608h32.636a12.788 12.788 0 0 0 12.77-12.771v-28.38a12.784 12.784 0 0 0-12.77-12.77l-.001.002zm0 51.082h-45.407a9.94 9.94 0 0 1-7.019-2.914 9.94 9.94 0 0 1-2.913-7.019 1.42 1.42 0 0 0-2.838 0 12.784 12.784 0 0 0 12.77 12.771h4.257v15.608a4.262 4.262 0 0 1-4.257 4.256H64.77a4.26 4.26 0 0 1-4.256-4.256v-79.46a4.26 4.26 0 0 1 4.257-4.257h2.995c1.542.002 3.06.36 4.44 1.045l.884.447a12.844 12.844 0 0 0 5.713 1.346h17.343a12.829 12.829 0 0 0 5.714-1.35l.879-.44a10.01 10.01 0 0 1 4.442-1.047h2.996a4.263 4.263 0 0 1 4.257 4.257v9.932h-4.257a12.783 12.783 0 0 0-12.77 12.77v22.703a1.42 1.42 0 1 0 2.837 0V76.893h49.662a1.418 1.418 0 1 0 0-2.837h-49.518a9.917 9.917 0 0 1 9.789-8.514h45.407a9.916 9.916 0 0 1 9.788 8.514h-9.788a1.42 1.42 0 1 0 0 2.837h9.932v26.961a9.938 9.938 0 0 1-2.914 7.019 9.937 9.937 0 0 1-7.018 2.914v-.002z" fill="#FFF6E0"/><path d="M118.691 79.73h-5.675a4.264 4.264 0 0 0-4.257 4.257v5.675a4.26 4.26 0 0 0 4.257 4.257h5.675a4.262 4.262 0 0 0 4.257-4.257v-5.675a4.259 4.259 0 0 0-1.249-3.008 4.256 4.256 0 0 0-3.008-1.249zm1.419 9.932a1.42 1.42 0 0 1-1.419 1.42h-5.675a1.42 1.42 0 0 1-1.42-1.42v-5.675a1.42 1.42 0 0 1 1.42-1.419h5.675a1.419 1.419 0 0 1 1.419 1.419v5.675zM135.718 79.73h-5.675a4.26 4.26 0 0 0-4.257 4.257v5.675a4.262 4.262 0 0 0 4.257 4.257h5.675a4.26 4.26 0 0 0 4.257-4.257v-5.675a4.258 4.258 0 0 0-4.257-4.257zm1.419 9.932a1.419 1.419 0 0 1-1.419 1.42h-5.675a1.42 1.42 0 0 1-1.42-1.42v-5.675a1.42 1.42 0 0 1 1.42-1.419h5.675a1.42 1.42 0 0 1 1.419 1.419v5.675zM118.691 96.757h-5.675a4.264 4.264 0 0 0-4.257 4.257v5.676a4.261 4.261 0 0 0 4.257 4.256h5.675a4.263 4.263 0 0 0 4.257-4.256v-5.676a4.258 4.258 0 0 0-1.249-3.008 4.256 4.256 0 0 0-3.008-1.249zm1.419 9.933a1.42 1.42 0 0 1-1.419 1.419h-5.675a1.42 1.42 0 0 1-1.42-1.419v-5.676c0-.784.636-1.418 1.42-1.418h5.675a1.418 1.418 0 0 1 1.419 1.418v5.676zM135.718 96.757h-5.675a4.26 4.26 0 0 0-4.257 4.257v5.676a4.262 4.262 0 0 0 4.257 4.256h5.675a4.26 4.26 0 0 0 4.257-4.256v-5.676a4.26 4.26 0 0 0-4.257-4.257zm1.419 9.933a1.418 1.418 0 0 1-1.419 1.419h-5.675a1.42 1.42 0 0 1-1.42-1.419v-5.676c0-.784.636-1.418 1.42-1.418h5.675a1.418 1.418 0 0 1 1.419 1.418v5.676zM147.07 93.918h5.676a4.257 4.257 0 0 0 4.256-4.257v-5.675a4.258 4.258 0 0 0-4.256-4.257h-5.676a4.26 4.26 0 0 0-4.257 4.257v5.676a4.262 4.262 0 0 0 4.257 4.256zm-1.418-9.932h-.001c0-.784.635-1.418 1.419-1.418h5.676a1.419 1.419 0 0 1 1.418 1.418v5.676a1.419 1.419 0 0 1-1.418 1.42h-5.676a1.42 1.42 0 0 1-1.419-1.42l.001-5.676z" fill="#FFF6E0"/><path d="m160.256 91.498-5.7 5.7a4.171 4.171 0 0 0-1.81-.44h-5.675a4.182 4.182 0 0 0-1.812.44l-.023-.024a1.42 1.42 0 0 0-2.007 2.007l.025.023v.002a4.13 4.13 0 0 0-.44 1.81v5.675a4.26 4.26 0 0 0 4.257 4.257h5.675a4.261 4.261 0 0 0 4.257-4.257v-5.675a4.185 4.185 0 0 0-.44-1.81l5.7-5.7a1.42 1.42 0 0 0-2.007-2.008zm-8.097 8.099-1.249 1.248a1.42 1.42 0 0 1-2.007 0l-1.249-1.248h4.505zm2.006 7.094a1.42 1.42 0 0 1-1.419 1.419h-5.675a1.42 1.42 0 0 1-1.42-1.419v-5.088l1.249 1.248a4.262 4.262 0 0 0 6.02 0l1.249-1.248-.004 5.088zM64.77 82.569h22.704a1.42 1.42 0 0 0 0-2.838H64.77a1.42 1.42 0 0 0 0 2.838zM64.77 65.541h22.704a1.42 1.42 0 0 0 0-2.838H64.77a1.42 1.42 0 0 0 0 2.838zM64.77 93.918h11.352a1.418 1.418 0 1 0 0-2.837H64.77a1.419 1.419 0 0 0 0 2.837zM88.892 112.367v-5.677a4.261 4.261 0 0 0-4.256-4.256H67.608a4.258 4.258 0 0 0-4.256 4.256v5.677a4.26 4.26 0 0 0 4.256 4.257h17.028a4.263 4.263 0 0 0 4.256-4.257zm-22.702 0v-5.677c0-.783.634-1.418 1.418-1.418h17.028a1.419 1.419 0 0 1 1.418 1.418v5.677a1.419 1.419 0 0 1-1.418 1.418H67.608a1.418 1.418 0 0 1-1.418-1.418z" fill="#FFF6E0"/></svg>