<svg width="172" height="176" viewBox="0 0 172 176" fill="none" xmlns="http://www.w3.org/2000/svg">
<path d="M170.5 81.9998C170.5 126.392 132.736 162.5 86 162.5C39.2638 162.5 1.5 126.392 1.5 81.9998C1.5 37.6074 39.2638 1.49976 86 1.49976C132.736 1.49976 170.5 37.6074 170.5 81.9998Z" stroke="#37616A" stroke-width="3"/>
<path fill-rule="evenodd" clip-rule="evenodd" d="M85.5 26.8123C54.4889 26.8123 29.3125 51.9887 29.3125 82.9998C29.3125 114.011 54.4889 139.187 85.5 139.187C116.511 139.187 141.688 114.011 141.688 82.9998C141.688 51.9887 116.511 26.8123 85.5 26.8123ZM85.5 30.6873C114.372 30.6873 137.813 54.1277 137.813 82.9998C137.813 111.872 114.372 135.312 85.5 135.312C56.6279 135.312 33.1875 111.872 33.1875 82.9998C33.1875 54.1277 56.6279 30.6873 85.5 30.6873Z" fill="#37616A"/>
<path fill-rule="evenodd" clip-rule="evenodd" d="M85.4998 37.3447C60.3013 37.3447 39.8457 57.801 39.8457 82.9989C39.8457 108.197 60.3019 128.653 85.4998 128.653C110.698 128.653 131.154 108.197 131.154 82.9989C131.154 57.801 110.698 37.3447 85.4998 37.3447ZM85.4998 41.2197C108.559 41.2197 127.279 59.94 127.279 82.9989C127.279 106.058 108.559 124.778 85.4998 124.778C62.4409 124.778 43.7207 106.058 43.7207 82.9989C43.7207 59.94 62.4409 41.2197 85.4998 41.2197Z" fill="#37616A"/>
<path fill-rule="evenodd" clip-rule="evenodd" d="M87.4177 51.3022H83.5816L79.2646 82.9997L83.5816 114.697H87.4177L91.7346 82.9997L87.4177 51.3022ZM85.4992 65.9225L87.8242 82.9993L85.4992 100.076L83.1742 82.9993L85.4992 65.9225Z" fill="#37616A"/>
<path fill-rule="evenodd" clip-rule="evenodd" d="M82.2691 84.8863L68.4238 82.999L82.2691 81.1117L81.7458 77.2756L53.8037 81.0807V84.9167L81.7458 88.7217L82.2691 84.8857V84.8863Z" fill="#37616A"/>
<path fill-rule="evenodd" clip-rule="evenodd" d="M88.7305 81.1132L102.576 83.0005L89.6992 84.7555L90.2225 88.5915L117.197 84.918V81.082L89.2549 77.277L88.7305 81.1132Z" fill="#37616A"/>
<path fill-rule="evenodd" clip-rule="evenodd" d="M41.7832 84.9373H49.3082V81.0623H41.7832V84.9373Z" fill="#37616A"/>
<path fill-rule="evenodd" clip-rule="evenodd" d="M121.692 84.9373H129.217V81.0623H121.692V84.9373Z" fill="#37616A"/>
<path fill-rule="evenodd" clip-rule="evenodd" d="M83.5625 39.2822V46.8073H87.4375V39.2822H83.5625Z" fill="#37616A"/>
<path fill-rule="evenodd" clip-rule="evenodd" d="M83.5625 119.192V126.717H87.4375V119.192H83.5625Z" fill="#37616A"/>
<path fill-rule="evenodd" clip-rule="evenodd" d="M115.043 50.7177L109.723 56.0379L112.462 58.7772L117.782 53.4569L115.043 50.7177Z" fill="#37616A"/>
<path fill-rule="evenodd" clip-rule="evenodd" d="M58.5371 107.222L53.2168 112.542L55.9561 115.281L61.2764 109.961L58.5371 107.222Z" fill="#37616A"/>
<path fill-rule="evenodd" clip-rule="evenodd" d="M53.2178 53.4567L58.538 58.777L61.2773 56.0377L55.9571 50.7174L53.2178 53.4567Z" fill="#37616A"/>
<path fill-rule="evenodd" clip-rule="evenodd" d="M109.722 109.963L115.042 115.283L117.781 112.544L112.461 107.224L109.722 109.963Z" fill="#37616A"/>
</svg>
