<svg width="172" height="166" viewBox="0 0 172 166" fill="none" xmlns="http://www.w3.org/2000/svg">
<path d="M170.5 82C170.5 126.392 132.736 162.5 86 162.5C39.2638 162.5 1.5 126.392 1.5 82C1.5 37.6076 39.2638 1.5 86 1.5C132.736 1.5 170.5 37.6076 170.5 82Z" stroke="#37616A" stroke-width="3"/>
<path d="M35.6248 32.8742C32.7055 32.8742 30.2998 35.2799 30.2998 38.1992V87.8992C30.2998 90.8185 32.7055 93.2242 35.6248 93.2242H40.9498V109.199C40.9498 109.917 41.3825 110.564 42.0457 110.839C42.7089 111.114 43.472 110.962 43.98 110.454L51.5967 102.838V105.646C51.5967 108.565 54.0096 110.978 56.9288 110.978H98.7944L116.024 128.208C116.533 128.713 117.294 128.863 117.956 128.589C118.617 128.315 119.049 127.67 119.051 126.953V110.978H124.369C127.288 110.978 129.704 108.565 129.704 105.646V55.9462C129.704 53.0268 127.288 50.6283 124.369 50.6283H108.401V38.2C108.401 35.2807 105.995 32.875 103.076 32.875L35.6248 32.8742ZM35.6248 36.4242H103.075C104.089 36.4242 104.85 37.1849 104.85 38.1992V50.6275L56.9289 50.6282C54.0095 50.6282 51.5968 53.0268 51.5968 55.9461V97.8179L44.5 104.915V91.45L44.5008 91.4492C44.5008 90.469 43.706 89.675 42.7258 89.6742H35.6258C34.6115 89.6742 33.8508 88.9135 33.8508 87.8992V38.1992C33.8508 37.1849 34.6115 36.4242 35.6258 36.4242H35.6248ZM56.9289 54.1775L124.369 54.1782C125.383 54.1782 126.151 54.9326 126.151 55.9461V105.646C126.151 106.66 125.383 107.428 124.369 107.428H117.283C116.811 107.425 116.358 107.611 116.023 107.942C115.689 108.274 115.499 108.725 115.497 109.196V122.668L100.783 107.938H100.784C100.449 107.607 99.9965 107.424 99.5258 107.427H56.9299C55.9156 107.427 55.1478 106.66 55.1478 105.645V55.9453C55.1478 54.9311 55.9156 54.1775 56.9299 54.1775L56.9289 54.1775ZM82.4158 61.2568C79.0695 61.2568 75.7262 62.5309 73.1771 65.081C68.0779 70.1794 68.0779 78.4601 73.1771 83.5593L89.0967 99.4789C89.7021 100.491 91.1087 100.641 91.9154 99.7808L108.123 83.5593C113.221 78.4601 113.221 70.1803 108.123 65.0811C105.574 62.532 102.234 61.2576 98.8872 61.2568C95.9657 61.2568 93.0464 62.2283 90.6573 64.1721C88.265 62.2291 85.3378 61.2568 82.417 61.2568L82.4158 61.2568ZM82.4127 64.7893C84.8407 64.7893 87.2725 65.7323 89.1489 67.608L89.3986 67.8545H89.3978C90.0903 68.543 91.2084 68.543 91.901 67.8545L92.1475 67.608C95.8956 63.8552 101.868 63.8568 105.619 67.608C109.37 71.3593 109.37 77.3253 105.619 81.0767L90.653 96.0533L75.6765 81.0767C71.9252 77.3255 71.9252 71.3595 75.6765 67.608C77.5521 65.7324 79.9839 64.7893 82.4127 64.7893Z" fill="#37616A"/>
</svg>
