<svg width="172" height="176" fill="none" xmlns="http://www.w3.org/2000/svg"><path d="M170.5 82c0 44.392-37.764 80.5-84.5 80.5S1.5 126.392 1.5 82C1.5 37.607 39.264 1.5 86 1.5s84.5 36.107 84.5 80.5z" stroke="#37616A" stroke-width="3"/><path fill-rule="evenodd" clip-rule="evenodd" d="M85.5 26.812C54.489 26.812 29.312 51.99 29.312 83c0 31.011 25.177 56.187 56.188 56.187 31.011 0 56.188-25.176 56.188-56.187S116.511 26.812 85.5 26.812zm0 3.875c28.872 0 52.313 23.44 52.313 52.313 0 28.872-23.441 52.312-52.313 52.312-28.872 0-52.313-23.44-52.313-52.312 0-28.872 23.44-52.313 52.313-52.313z" fill="#37616A"/><path fill-rule="evenodd" clip-rule="evenodd" d="M85.5 37.345c-25.199 0-45.654 20.456-45.654 45.654 0 25.198 20.456 45.654 45.654 45.654 25.198 0 45.654-20.456 45.654-45.654 0-25.198-20.456-45.654-45.654-45.654zm0 3.875c23.059 0 41.779 18.72 41.779 41.779 0 23.059-18.72 41.779-41.78 41.779-23.058 0-41.778-18.72-41.778-41.78C43.72 59.94 62.44 41.22 85.5 41.22z" fill="#37616A"/><path fill-rule="evenodd" clip-rule="evenodd" d="M87.418 51.302h-3.836L79.265 83l4.317 31.697h3.836L91.735 83l-4.317-31.698zm-1.919 14.62L87.824 83 85.5 100.076l-2.325-17.077L85.5 65.923z" fill="#37616A"/><path fill-rule="evenodd" clip-rule="evenodd" d="M82.27 84.886 68.423 83l13.845-1.887-.523-3.836-27.942 3.805v3.836l27.942 3.805.523-3.836zM88.73 81.113l13.846 1.888-12.877 1.754.523 3.837 26.975-3.674v-3.836l-27.942-3.805-.524 3.836zM41.783 84.937h7.525v-3.875h-7.525v3.875zM121.692 84.937h7.525v-3.875h-7.525v3.875zM83.563 39.282v7.525h3.874v-7.525h-3.874zM83.563 119.192v7.525h3.874v-7.525h-3.874zM115.043 50.718l-5.32 5.32 2.739 2.74 5.32-5.321-2.739-2.74zM58.537 107.222l-5.32 5.32 2.74 2.739 5.32-5.32-2.74-2.739zM53.218 53.457l5.32 5.32 2.74-2.74-5.32-5.32-2.74 2.74zM109.722 109.963l5.32 5.32 2.739-2.739-5.32-5.32-2.739 2.739z" fill="#37616A"/></svg>