<svg width="173" height="164" viewBox="0 0 173 164" fill="none" xmlns="http://www.w3.org/2000/svg">
<path d="M171.102 82C171.102 126.392 133.338 162.5 86.6016 162.5C39.8654 162.5 2.10156 126.392 2.10156 82C2.10156 37.6076 39.8654 1.5 86.6016 1.5C133.338 1.5 171.102 37.6076 171.102 82Z" stroke="#37616A" stroke-width="3"/>
<path d="M60.9175 72.7526L62.2307 89.779H56.4438C55.3882 89.779 54.5324 90.6339 54.5324 91.6903V99.543C54.5324 100.599 55.3882 101.454 56.4438 101.454H80.0004C81.0559 101.454 81.9118 100.599 81.9118 99.543V91.6903C81.9118 90.6339 81.0559 89.779 80.0004 89.779H74.2135L75.5267 72.75C82.0764 70.627 87.3387 65.7445 89.9379 59.3543C99.126 56.6937 105.469 48.3435 105.469 38.6893L105.468 36.7259C105.468 35.6696 104.612 34.8146 103.556 34.8146H91.7274V26.9114C91.7274 25.855 90.8715 25 89.816 25H46.6302C45.5747 25 44.7189 25.855 44.7189 26.9114V34.8146H32.8899C31.8344 34.8146 30.9785 35.6696 30.9785 36.7259V38.6893C30.9785 48.3433 37.321 56.6937 46.5092 59.3543C49.1135 65.7531 54.3799 70.6357 60.9196 72.7526H60.9175ZM78.088 97.6308H58.355V93.6008H78.088V97.6308ZM66.0644 89.7781L64.8263 73.72C67.0782 74.0298 69.3639 74.0298 71.6167 73.72L70.3786 89.7781H66.0644ZM101.644 38.6367C101.665 45.7043 97.5527 51.9531 91.3262 54.7954C92.0105 51.8148 91.6411 41.8084 91.7264 38.6367H101.644ZM48.5389 28.8221H87.9019C87.8396 34.6416 88.0359 46.3837 87.8149 52.2739C87.0273 64.0518 74.5643 72.7818 63.2206 69.4864C54.692 67.3925 48.4494 59.2479 48.5364 50.4659C48.5381 45.4896 48.5364 33.6809 48.5372 28.8215L48.5389 28.8221ZM34.7985 38.6887V38.6366H44.7162C44.804 41.8748 44.4303 51.7619 45.1163 54.7954C38.9052 51.9582 34.7985 45.741 34.7985 38.6887Z" fill="#37616A"/>
<path d="M143.694 46.0263H109.595C107.1 46.0357 107.092 49.8387 109.595 49.849H141.782V114.835H136.048C135.418 97.1227 109.914 97.1365 109.289 114.835H44.3032V64.0127C44.229 61.5024 40.484 61.6586 40.4805 64.1655V116.746C40.4805 117.803 41.3363 118.658 42.3918 118.658H109.868C110.646 121.271 112.213 123.598 114.351 125.3L113.12 137.581C113.052 138.262 113.352 138.927 113.909 139.324C114.467 139.725 115.192 139.796 115.813 139.511L122.667 136.393L129.52 139.511C130.141 139.794 130.868 139.725 131.425 139.324C131.981 138.927 132.282 138.262 132.213 137.581L130.984 125.301C133.129 123.591 134.698 121.258 135.47 118.658H143.69C144.746 118.658 145.601 117.803 145.601 116.746V47.9375C145.605 46.8811 144.749 46.0261 143.693 46.0261L143.694 46.0263ZM122.669 105.278C128.501 105.221 133.139 110.692 132.08 116.432C130.254 126.936 115.046 126.918 113.252 116.393C112.216 110.669 116.854 105.22 122.669 105.278ZM123.461 132.553C122.958 132.324 122.38 132.324 121.878 132.553L117.257 134.656L117.986 127.371C121.013 128.461 124.327 128.462 127.353 127.371L128.082 134.656L123.461 132.553Z" fill="#37616A"/>
<path d="M111.338 68.9626H92.1124C89.6191 68.972 89.608 72.7751 92.1124 72.7854H111.338C113.832 72.776 113.842 68.9729 111.338 68.9626Z" fill="#37616A"/>
<path d="M92.1128 78.5194C89.616 78.5296 89.6109 82.3319 92.1128 82.3421H100.658C103.154 82.3319 103.159 78.5297 100.658 78.5194H92.1128Z" fill="#37616A"/>
<path d="M105.156 80.4308C105.156 81.4871 106.012 82.3421 107.068 82.3421H128.43C129.485 82.3421 130.341 81.4871 130.341 80.4308C130.341 79.3744 129.485 78.5194 128.43 78.5194H107.068C106.012 78.5194 105.156 79.3744 105.156 80.4308Z" fill="#37616A"/>
</svg>
