<svg width="45" height="42" viewBox="0 0 45 42" fill="none" xmlns="http://www.w3.org/2000/svg">
<path d="M41.3107 21.0627C41.3107 20.9744 41.3107 20.8741 41.3065 20.7577C41.3023 20.4326 41.2938 20.0674 41.2854 19.678C41.2517 18.5582 41.1927 17.4424 41.1 16.3908C40.9736 14.9419 40.7882 13.7338 40.5353 12.8267C40.2685 11.8801 39.7455 11.0168 39.0186 10.323C38.2917 9.62923 37.3863 9.12933 36.393 8.87328C35.2005 8.56824 32.8659 8.3796 29.5791 8.2632C28.0157 8.20701 26.3427 8.17089 24.6698 8.15082C24.0841 8.14279 23.5405 8.13878 23.0516 8.13477H21.8127C21.3239 8.13878 20.7803 8.14279 20.1946 8.15082C18.5217 8.17089 16.8487 8.20701 15.2853 8.2632C11.9985 8.38361 9.65972 8.57225 8.47139 8.87328C7.47774 9.1287 6.57203 9.62839 5.84502 10.3223C5.11801 11.0161 4.59523 11.8798 4.32908 12.8267C4.07203 13.7338 3.89083 14.9419 3.76441 16.3908C3.6717 17.4424 3.61271 18.5582 3.57899 19.678C3.56635 20.0674 3.56214 20.4326 3.55792 20.7577C3.55792 20.8741 3.55371 20.9744 3.55371 21.0627V21.2875C3.55371 21.3758 3.55371 21.4761 3.55792 21.5925C3.56214 21.9176 3.57057 22.2829 3.57899 22.6722C3.61271 23.792 3.6717 24.9078 3.76441 25.9594C3.89083 27.4083 4.07624 28.6164 4.32908 29.5235C4.86846 31.4461 6.45291 32.9632 8.47139 33.477C9.65972 33.782 11.9985 33.9706 15.2853 34.087C16.8487 34.1432 18.5217 34.1793 20.1946 34.1994C20.7803 34.2074 21.3239 34.2115 21.8127 34.2155H23.0516C23.5405 34.2115 24.0841 34.2074 24.6698 34.1994C26.3427 34.1793 28.0157 34.1432 29.5791 34.087C32.8659 33.9666 35.2047 33.778 36.393 33.477C38.4115 32.9632 39.9959 31.4501 40.5353 29.5235C40.7924 28.6164 40.9736 27.4083 41.1 25.9594C41.1927 24.9078 41.2517 23.792 41.2854 22.6722C41.298 22.2829 41.3023 21.9176 41.3065 21.5925C41.3065 21.4761 41.3107 21.3758 41.3107 21.2875V21.0627ZM38.2766 21.2714C38.2766 21.3557 38.2766 21.448 38.2724 21.5564C38.2682 21.8695 38.2598 22.2147 38.2514 22.5879C38.2219 23.6556 38.1629 24.7232 38.0744 25.7146C37.9606 27.007 37.8005 28.0666 37.6024 28.777C37.3411 29.7041 36.5742 30.4386 35.605 30.6835C34.7201 30.9082 32.4909 31.0888 29.4611 31.1972C27.9272 31.2534 26.2753 31.2895 24.6277 31.3096C24.0504 31.3176 23.5152 31.3216 23.0348 31.3216H21.8296L20.2367 31.3096C18.5891 31.2895 16.9414 31.2534 15.4033 31.1972C12.3735 31.0848 10.1401 30.9082 9.2594 30.6835C8.29019 30.4346 7.52325 29.7041 7.26198 28.777C7.06393 28.0666 6.9038 27.007 6.79002 25.7146C6.70153 24.7232 6.64675 23.6556 6.61304 22.5879C6.6004 22.2147 6.59618 21.8655 6.59197 21.5564C6.59197 21.448 6.58775 21.3517 6.58775 21.2714V21.0788C6.58775 20.9945 6.58775 20.9022 6.59197 20.7938C6.59618 20.4808 6.60461 20.1356 6.61304 19.7623C6.64253 18.6947 6.70153 17.6271 6.79002 16.6357C6.9038 15.3433 7.06393 14.2837 7.26198 13.5733C7.52325 12.6461 8.29019 11.9116 9.2594 11.6668C10.1443 11.442 12.3735 11.2614 15.4033 11.153C16.9372 11.0968 18.5891 11.0607 20.2367 11.0406C20.814 11.0326 21.3492 11.0286 21.8296 11.0286H23.0348L24.6277 11.0406C26.2753 11.0607 27.923 11.0968 29.4611 11.153C32.4909 11.2654 34.7243 11.442 35.605 11.6668C36.5742 11.9156 37.3411 12.6461 37.6024 13.5733C37.8005 14.2837 37.9606 15.3433 38.0744 16.6357C38.1629 17.6271 38.2176 18.6947 38.2514 19.7623C38.264 20.1356 38.2682 20.4848 38.2724 20.7938C38.2724 20.9022 38.2766 20.9985 38.2766 21.0788V21.2714ZM18.6818 26.5534L28.4581 21.135L18.6818 15.7968V26.5534Z" fill="#37616A"/>
</svg>
